<?xml version="1.0" standalone="no"?>
<!DOCTYPE svg PUBLIC "-//W3C//DTD SVG 1.1//EN" "http://www.w3.org/Graphics/SVG/1.1/DTD/svg11.dtd" >
<svg xmlns="http://www.w3.org/2000/svg">
<metadata></metadata>
<defs>
<font id="starred_font-familyregular" horiz-adv-x="1792" >
<font-face units-per-em="2048" ascent="1792" descent="-256" />
<missing-glyph horiz-adv-x="2400" />
<glyph horiz-adv-x="0" />
<glyph horiz-adv-x="682" />
<glyph unicode=" "  horiz-adv-x="2400" />
<glyph unicode="&#x09;" horiz-adv-x="2400" />
<glyph unicode="&#xa0;" horiz-adv-x="2400" />
<glyph unicode="!" horiz-adv-x="2088" d="M0 20q0 -63 42.5 -105.5t105.5 -42.5h1300q66 0 109 42.5t43 105.5v284q-10 6 -27.5 14t-63 18.5t-81.5 3.5v-296h-1256v1448h1256v-260q37 0 80 -15t68 -30l24 -15v344q0 64 -44 108q-34 40 -108 40h-1300q-63 0 -105.5 -42.5t-42.5 -105.5v-1496zM404 272h476l-216 172 h-260v-172zM404 1092h260l212 172h-472v-172zM544 764.5q1 -19.5 12 -30.5l12 -10q496 -376 560 -432q35 -18 49 -8t18.5 31t0.5 21v252q500 0 680 -180q45 -43 75.5 -108.5t42 -129.5t16.5 -121.5t4 -92.5l-2 -36q4 9 10.5 25.5t22.5 68t26 104t15 127.5t-2.5 144.5 t-35.5 148.5t-76 146q-47 67 -116 118t-140.5 79.5t-147.5 47t-142.5 24t-119.5 7t-84 -1.5l-30 -2q4 184 4 272q-1 21 -11.5 30.5t-24.5 8t-27.5 -6.5t-22.5 -10l-10 -6l-536 -432q-21 -28 -20 -47.5z" />
<glyph unicode="&#x22;" horiz-adv-x="904" d="M0 640h384l-120 -640l640 896h-384l120 640z" />
<glyph unicode="$" horiz-adv-x="2512" d="M4 1312q-14 36 12 76q22 33 64 40l1920 196l412 36q42 3 69.5 -18.5t30.5 -57.5q3 -39 -18.5 -68t-57.5 -32l-344 -32v-1112q0 -38 -25 -65t-59 -27h-1640q-36 0 -60 26.5t-24 65.5q0 36 24 60t60 24h1552v132h-1624q-30 0 -52.5 17t-31.5 47zM204 1264l40 -136h388 l-16 176zM304 952l60 -220h300l-20 220h-340zM452 40q0 -69 55 -118.5t133 -49.5q75 0 129.5 49.5t54.5 118.5q0 72 -54.5 124t-129.5 52q-78 0 -133 -52t-55 -124zM788 1316l20 -188h472l8 240zM824 952l12 -220h440v220h-452zM1456 732h464v220h-464v-220zM1456 1128h464 v304l-464 -44v-260zM1508 40q0 -69 54.5 -118.5t129.5 -49.5q81 0 136.5 49.5t55.5 118.5q0 73 -56 124.5t-136 51.5q-75 0 -129.5 -52t-54.5 -124z" />
<glyph unicode="&#x26;" d="M0 384h320q9 0 28 44q35 40 100 76q21 14 88 20q21 0 8 20q-12 12 -24 16q-6 2 -18 4t-18 4l-32 8q-20 7 -20 28v44q4 4 36 4q32 4 68 16l24 12q6 6 -12 36q-20 60 -20 96v88q0 56 -8 104q-24 148 -188 148q-110 0 -152 -72q-32 -51 -32 -192q0 -88 -4 -112l-12 -48 l-16 -48q46 -34 128 -28v-64q-7 -15 -28 -20q-6 -1 -25.5 -7.5t-30.5 -8.5l-36 -8q-124 -41 -124 -160zM88 448q14 21 36 32q30 15 60 20q9 1 20.5 2.5t17.5 2.5t10 3q70 23 76 88q0 116 -4 116q-8 0 -104 8q18 36 12 136q-5 83 4 136q18 100 120 100q106 0 124 -92 q8 -64 8 -140q-6 -92 12 -140q-64 -8 -68 -8h-32q-8 0 -8 -20q-12 -120 16 -148q-75 -44 -104 -96h-196zM340 192h1112q0 88 -48 160q-59 73 -136 100q-38 15 -80 20q-47 5 -84 20q-49 12 -56 32q-8 24 -8 60v44q0 4 16 20q12 18 12 20q23 46 28 124q15 -5 28 8q7 13 12 40 l8 28l8 24q0 20 4 32q0 20 -4 28q-7 14 -20 8q11 23 16 60q17 94 -4 156q-24 80 -88 120q-65 42 -148 48q-84 6 -156 -36q-71 -42 -100 -116q-24 -66 -12 -156q5 -54 20 -76q-30 6 -12 -84l8 -28q6 -29 16 -44q6 -18 24 -12q3 -29 16 -96q18 -42 32 -56q8 -8 8 -20 q0 -80 -4 -92q-6 -40 -104 -52q-157 -36 -196 -64q-108 -78 -108 -220zM412 256q13 45 48 80t84 56q56 14 72 16q42 6 60 12q72 18 108 48q26 26 32 96v84q0 12 -4 16l-16 16l-12 12q-12 17 -24 92q0 30 -12 36q-22 15 -28 32l-8 32l-8 32q-5 5 8 24l8 16q4 12 4 24 q-2 2 -3 6t-2 10.5t-3 11.5l-8 24q-23 123 36 188q73 79 196 56q124 -24 148 -132q11 -67 -8 -144q-7 -49 -4 -52q16 -27 4 -76q-14 -36 -36 -52q-3 -3 -16 -60q-6 -47 -20 -68q0 -5 -16 -16q-16 -16 -16 -20q0 -76 8 -132q6 -30 24 -48q16 -21 36 -28q12 -4 52 -24 q51 -13 80 -16q47 -5 84 -20q96 -42 120 -132h-968zM1244 540q-5 -10 8 -16q4 -4 24 -4h20q47 -7 112 -60q59 -53 64 -76h320q0 119 -124 160q-5 2 -17.5 4t-18.5 4l-48 12q-18 6 -32 20q-4 4 -4 68q40 0 52 4l48 12q4 4 12 4t12 4q12 6 0 24q-18 24 -24 60q-8 48 -8 60 q0 40 4 68v60q0 127 -80 176q-90 54 -192 12t-108 -216q-6 -169 -20 -204q-19 -38 0 -44q3 -1 19 -7.5t25 -8.5q64 -8 72 -8v-56q-5 -10 -64 -28q-47 -13 -52 -24zM1312 720q16 32 16 136q-5 83 4 136q18 100 124 100q102 0 120 -92q9 -70 4 -140q-6 -92 12 -140 q-20 -4 -104 -4q-4 0 -4 -108q6 -71 68 -96q20 -7 52 -12q24 -4 64 -20q22 -11 36 -32h-176q-16 0 -60 44q-28 28 -64 52q28 28 16 148q-7 20 -36 20q-40 0 -72 8z" />
<glyph unicode="'" horiz-adv-x="904" d="M0 640h384l-120 -640l640 896h-384l120 640zM124 704l400 560l-68 -356l-12 -76h336l-400 -560l68 356l12 76h-336z" />
<glyph unicode="(" horiz-adv-x="944" d="M-4 180v1484l292 -588l652 -96l-468 -460l108 -648z" />
<glyph unicode=")" d="M0 384q0 118 120 160l36 8q11 2 30.5 8.5t25.5 7.5q21 5 28 20q4 8 4 64q-82 -6 -128 28l16 48l8 24q4 8 4 20q4 24 4 112q0 145 32 196q42 72 152 72q164 0 188 -148q8 -48 8 -104v-88q0 -36 20 -96q18 -30 12 -36l-24 -12q-36 -12 -68 -16q-32 0 -36 -4v-44 q0 -21 20 -28l32 -8q6 -2 18 -4t18 -4q12 -4 24 -16q13 -20 -8 -20q-47 -5 -84 -20h-4l-12 -4l8 4q-2 0 -4 -2t-4 -2l-4 -4q-43 -27 -84 -68q-19 -44 -28 -44h-320zM340 192q0 142 108 220q39 28 196 64q98 12 104 52q4 12 4 92q0 12 -8 20q-14 14 -32 56q-13 67 -16 96 q-18 -6 -24 12q-10 15 -16 44l-8 28q-18 90 12 84q-15 22 -20 76q-12 90 12 156q29 74 100 116q72 42 156 36q83 -6 148 -48q64 -40 88 -120q21 -62 4 -156q-5 -37 -16 -60q13 6 20 -8q4 -8 4 -28q-4 -12 -4 -32l-8 -24l-8 -28q-5 -27 -12 -40q-13 -13 -28 -8 q-5 -78 -28 -124q0 -2 -12 -20q-16 -16 -16 -20v-44q0 -36 8 -60q7 -20 56 -32q37 -15 84 -20q42 -5 80 -20q77 -27 136 -100q48 -72 48 -160h-1112zM432 496l4 4h4zM1244 540q5 11 52 24q59 18 64 28v56q-8 0 -72 8q-9 2 -25 8.5t-19 7.5q-19 6 0 44q14 35 20 204 q6 174 108 216t192 -12q80 -49 80 -176v-60q-4 -28 -4 -68q0 -12 8 -60q6 -36 24 -60q12 -18 0 -24q-4 -4 -12 -4t-12 -4l-48 -12q-12 -4 -52 -4q0 -64 4 -68q14 -14 32 -20l48 -12q6 -2 18.5 -4t17.5 -4q124 -41 124 -160h-320q-5 23 -64 76q-65 53 -112 60h-20 q-20 0 -24 4q-13 6 -8 16z" />
<glyph unicode="*" horiz-adv-x="936" d="M0 980l652 96l288 588v-1484l-580 -308l112 648z" />
<glyph unicode="+" horiz-adv-x="1544" d="M0 92q0 -42 28 -64q22 -28 64 -28h1224q40 0 68 28q24 24 24 64v804l-128 -128v-600q0 -40 -36 -40h-1076q-40 0 -40 40v1072q0 40 44 40h596l128 128h-804q-40 0 -64 -24q-28 -28 -28 -68v-1224zM384 384l256 56l708 692l-220 220l-688 -712zM1168 1388l220 -220 l128 124q53 53 0 100l-124 124q-47 53 -100 0z" />
<glyph unicode="," d="M0 768l384 -384v304h432v-432h-304l384 -384l384 384h-308v432h436v-304l384 384l-384 384v-304h-432v432h304l-384 384l-384 -384h304v-432h-432v304z" />
<glyph unicode="." horiz-adv-x="1536" d="M0 192h384l192 -320l192 424l136 296q-53 -16 -136 -16q-260 0 -436 200zM256 1152q0 -208 152 -360t360 -152q212 0 364 152q148 148 148 360q0 216 -148 364t-364 148q-212 0 -360 -148q-152 -152 -152 -364zM384 1152q0 160 112 272t272 112t272 -112t112 -272 t-112 -272t-272 -112t-272 112t-112 272zM416 1152q0 -144 104 -248t248 -104q148 0 252 104q100 100 100 248q0 152 -100 252t-252 100q-148 0 -248 -100q-104 -104 -104 -252zM800 224l160 -352l192 320h384l-332 584q-92 -103 -224 -160z" />
<glyph unicode="/" horiz-adv-x="1800" d="M8 32q19 -32 56 -32h1672q37 0 56 32q17 28 -8 72l-828 1396q-18 36 -56 36t-56 -36l-828 -1396q-25 -44 -8 -72zM772 192v192h256v-192h-256zM772 512v576h256v-576h-256z" />
<glyph unicode="0" d="M0 764q0 183 71 349t190.5 285.5t285.5 190.5t349 71t349 -71t285.5 -190.5t190.5 -285.5t71 -349q0 -181 -71 -347t-190.5 -286t-285.5 -191.5t-349 -71.5t-349 71t-285.5 190.5t-190.5 285.5t-71 349zM400 624h360v-360h284l-8 360h368v276h-368v368h-276v-368h-360 v-276z" />
<glyph unicode="1" horiz-adv-x="1408" d="M0 120v1320q0 84 70.5 154t157.5 70h728l452 -472v-1072q0 -100 -69.5 -174t-158.5 -74h-952q-89 0 -158.5 74t-69.5 174zM228 120h952v984l-304 336h-648v-1320z" />
<glyph unicode="2" horiz-adv-x="2300" d="M0 108v1320q0 94 68 162.5t160 65.5h780l440 -460v-236h-224v148l-316 320h-680v-1320h488v-236h-488q-92 0 -160 71t-68 165zM688 704q-5 20 8 52q10 21 40 28l1504 152q24 0 40.5 -16t19.5 -40q3 -21 -12.5 -39t-39.5 -21l-216 -20v-716q0 -27 -16.5 -43.5t-43.5 -16.5 h-88q12 -36 12 -40q0 -48 -34.5 -80t-85.5 -32q-49 0 -84.5 32.5t-35.5 79.5q0 22 12 40h-456q8 -24 8 -40q0 -48 -34.5 -80t-85.5 -32q-49 0 -84.5 32.5t-35.5 79.5q0 24 16 40h-64q-30 0 -49 16.5t-19 43.5q0 22 19.5 39t48.5 17h988v84h-1040q-43 0 -56 40zM820 672 l24 -88h252l-8 116zM880 476l48 -140h184l-8 140h-224zM1204 708l8 -124h300v156zM1220 476l8 -140h280v140h-288zM1521 1289q0 9 5 10l6 1h124q4 241 -96 316q-28 19 -36.5 28.5t0.5 15.5q7 2 24 2t30 -1l14 -1q47 -14 86.5 -41.5t65 -60t45 -68.5t29.5 -69.5t16.5 -60.5 t7.5 -44l2 -16l108 4q14 0 17 -8t-1 -16l-4 -8q-188 -284 -208 -304q-5 -7 -12 -7t-12 3l-4 4q-172 264 -196 296q-11 16 -11 25zM1624 336h296v140h-296v-140zM1624 584h296v200l-296 -28v-172z" />
<glyph unicode="3" horiz-adv-x="1616" d="M0 220v1228q0 88 61.5 152t150.5 64h660l428 -428l-212 -80l-304 296h-572v-1232h276v-212h-276q-89 0 -150.5 62t-61.5 150zM564 432q0 54 28 96q-9 141 60 252q82 100 260 100l36 72q50 92 192 92h4q60 0 104 -17.5t67.5 -45.5t37.5 -61.5t16.5 -67t2 -61.5t-3.5 -45 l-4 -18q1 -2 8.5 0.5t16.5 -13t11 -47.5q1 -21 -4.5 -38t-13.5 -26t-17 -15t-15 -7l-6 -2q-3 -32 -10.5 -58t-16 -40t-16 -23t-12.5 -12l-5 -3v-116l332 -144v-176h-204l-60 -136l-328 144q-21 9 -34.5 28.5t-13.5 43.5v112q0 41 40 68q0 1 4 9t9 26t7 41q3 24 19.5 43 t40.5 25v8v4l-16 8q-13 13 -19.5 34.5t-0.5 41.5q5 15 6.5 41.5t-5.5 61.5t-25 57q-30 40 -124 40q-60 0 -91 -8.5t-45 -31.5q-18 -22 -25 -57t-5.5 -61.5t6.5 -41.5q6 -20 -1.5 -42t-22.5 -34q-8 -8 -12 -8v-4q0 -2 2 -4t2 -4q23 -6 38 -24.5t18 -43.5q0 -23 5 -41t10 -27 l5 -8q36 -29 36 -68v-192h-156v160q-33 50 -52 120q-65 49 -60 144z" />
<glyph unicode="4" horiz-adv-x="1664" d="M0 104v1328q0 94 68.5 163t163.5 69h784l448 -464v-116h-232v24l-316 324h-684v-1328h488v-232h-488q-96 0 -164 68t-68 164zM800 -12v200v200q0 37 15 64t36 39.5t42 19.5t36 8l15 1v240q0 113 88 188q74 67 180 80q106 6 196 -52q86 -57 120 -200l4 -256q37 0 64 -13 t39.5 -32t19.5 -38t8 -32l1 -13v-400q0 -32 -12.5 -56t-30 -35t-35 -17.5t-30.5 -7.5h-12h-616q-36 0 -62.5 11.5t-38.5 28t-18.5 33t-7.5 27.5zM1092 520h284v236q-7 43 -26.5 71.5t-44.5 39t-44 13t-37 0.5q-51 -3 -91.5 -37t-40.5 -83v-240zM1116 280q0 -25 16.5 -50.5 t39.5 -41.5v-184q0 -27 16 -43.5t40 -16.5q25 0 42.5 17t17.5 43v184q23 16 39.5 41.5t16.5 50.5q0 50 -33.5 83t-82.5 33q-46 0 -79 -33t-33 -83z" />
<glyph unicode="5" horiz-adv-x="1280" d="M0 448q0 -24 20 -44t48 -20h1144q28 0 48 20t20 44t-12 36l-8 8l-544 624q-36 36 -76 36t-76 -36l-544 -624l-8 -12q-12 -12 -12 -32z" />
<glyph unicode="6" horiz-adv-x="1280" d="M0 1088q0 -24 12 -36l8 -8l544 -624q36 -36 76 -36t76 36l544 624l8 12q12 12 12 32q0 28 -20 48q-16 16 -48 16h-1144q-32 0 -48 -16q-20 -20 -20 -48z" />
<glyph unicode="7" horiz-adv-x="768" d="M0 768q0 -40 36 -76l624 -544l8 -8q12 -12 36 -12q28 0 48 20q16 16 16 48v1144q0 32 -16 48q-20 20 -48 20q-24 0 -36 -12l-8 -8l-624 -544q-36 -36 -36 -76z" />
<glyph unicode="8" horiz-adv-x="768" d="M0 196q0 -28 20 -48t44 -20t36 12l8 8l624 544q36 36 36 76t-36 76l-624 544l-12 8q-12 12 -32 12q-24 0 -44 -20t-20 -48v-1144z" />
<glyph unicode="9" horiz-adv-x="1028" d="M16 8l120 -124q32 -32 64 0l816 852q12 12 12 32t-12 32l-816 852q-27 27 -64 -4l-120 -120q-32 -32 0 -64l668 -696l-668 -696q-32 -32 0 -64z" />
<glyph unicode=":" d="M0 768q0 -374 264 -632q258 -264 632 -264q372 0 636 264q260 260 260 632q0 370 -260 636q-266 260 -636 260q-372 0 -632 -260q-264 -264 -264 -636zM128 768q0 320 224 544t544 224t544 -224t224 -544t-224 -544t-544 -224t-544 224t-224 544zM272 868q-41 -47 12 -88 q18 -12 40 -12q38 0 56 24q29 40 68 40t68 -40q18 -24 56 -24q22 0 40 12q56 37 16 88q-67 92 -180 92q-102 0 -176 -92zM340 552q66 -138 216 -216q154 -80 340 -80q178 0 332 80q150 78 220 212q29 52 -28 84q-24 8 -28 8q-37 0 -56 -32q-56 -106 -172 -164 q-120 -60 -268 -60q-152 0 -272 60q-121 61 -168 160q-18 36 -56 36q-24 0 -28 -4q-62 -31 -32 -84zM1168 868q-41 -47 12 -88q18 -12 40 -12q38 0 56 24q29 40 68 40t68 -40q18 -24 56 -24q22 0 40 12q56 37 16 88q-67 92 -180 92q-102 0 -176 -92z" />
<glyph unicode=";" horiz-adv-x="1408" d="M0 -16q0 -50 36 -80q32 -32 76 -32h1188q44 0 76 32t32 80v1440q0 48 -32 80t-76 32h-296v-52q0 -34 24 -52q24 -24 56 -24h148q48 0 48 -52v-1308q0 -48 -44 -48h-1060q-44 0 -44 48v1308q0 52 48 52h148q32 0 56 24q20 20 20 52v52h-292q-44 0 -76 -32q-36 -30 -36 -80 v-1440zM256 128h640v128h-640v-128zM256 384h516v128h-516v-128zM256 640h832v128h-832v-128zM256 896h448v128h-448v-128zM320 1152h768q-12 130 -108 160h-8q-84 18 -84 84v84q0 80 -52 132t-132 52q-76 0 -128 -52q-56 -56 -56 -132v-84q0 -62 -84 -80l-4 -4 q-100 -29 -112 -160zM652 1480q0 56 52 56q56 0 56 -56t-56 -56q-52 0 -52 56z" />
<glyph unicode="?" horiz-adv-x="2000" d="M0 36v1472q0 66 45 111t111 45h1280q62 0 112 -44q44 -44 44 -112v-640q174 -33 291 -174.5t117 -321.5q0 -136 -67 -251t-182 -182t-251 -67q-52 0 -112 12v-4h-1232q-66 0 -111 45t-45 111zM184 64h920q-76 111 -92 216h-604v184h604q18 115 96 212h-700v192h776v-112 q92 81 224 112v612h-1224v-1416zM408 1080v188h776v-188h-776zM1084 360q0 -48 36 -82t84 -34q42 0 72 24l348 -152q3 -43 36 -73.5t80 -30.5q48 0 82 34.5t34 85.5q0 48 -34 82t-82 34q-42 0 -72 -24l-320 140l324 140q24 -24 68 -24q48 0 82 34t34 82q0 51 -34 85.5 t-82 34.5q-47 0 -80 -31t-36 -77l-348 -152q-40 24 -72 24q-49 0 -84.5 -35t-35.5 -85z" />
<glyph unicode="@" horiz-adv-x="1152" d="M0 104q0 -40 32 -72t64 -32h972q34 0 60 32q24 30 24 72v976q0 28 -4 36q-6 18 -16 28l-332 368q-4 4 -28 16q-16 8 -36 8h-640q-36 0 -64 -28q-32 -32 -32 -64v-1340zM128 128v1280h516v-328q0 -46 36 -76q30 -36 76 -36h268v-840h-896zM772 1096v252l232 -252h-232z " />
<glyph unicode="A" horiz-adv-x="1536" d="M0 896l768 -512v320q195 -6 348 -80q154 -71 300 -308l80 -124h40v128q0 348 -196 544q-206 206 -572 224v320z" />
<glyph unicode="B" horiz-adv-x="1536" d="M0 640h192v-640h384v512h384v-512h384v640h192l-768 896z" />
<glyph unicode="C" horiz-adv-x="1956" d="M0 472q0 88 70.5 156t165.5 68h112v736q0 96 68.5 164t167.5 68h704l668 -672v-884q-6 -99 -74.5 -167.5t-161.5 -68.5h-1136q-99 0 -167.5 68.5t-68.5 167.5v128h-112q-97 0 -166.5 69t-69.5 167zM584 108h1136v732h-360q-96 0 -164 67.5t-68 160.5v364h-544v-736h640 q95 0 163.5 -68t68.5 -156q0 -99 -68 -167.5t-164 -68.5h-640v-128zM1360 1068h184l-184 196v-196z" />
<glyph unicode="D" horiz-adv-x="1976" d="M-2 893q0 -17 9 -25l9 -8l440 -360q25 -15 38.5 -9t17.5 21l4 16l-8 200q31 1 62 1q73 -1 144 -7q100 -10 203 -43.5t163 -90.5q36 -32 59.5 -83.5t31.5 -100.5q9 -50 11 -95q1 -25 1 -45q0 -16 -1 -28l-2 -28q6 14 15.5 38.5t26.5 98.5q18 74 20 145v15q0 67 -20 151 q-22 94 -74 172q-52 72 -136.5 121t-169.5 67q-84 20 -161 28q-62 7 -106 6h-19l-48 -2v204q-5 30 -23 35t-33 -5l-16 -10l-420 -344q-18 -18 -18 -35zM368 0v384h224v-284h1156v800l-528 528h-628v-88h-224v196q0 53 33.5 90.5t86.5 37.5h828l660 -668v-996 q0 -51 -38.5 -89.5t-89.5 -38.5h-1360q-53 0 -86.5 37.5t-33.5 90.5z" />
<glyph unicode="E" horiz-adv-x="1664" d="M0 340q0 -24 32 -56q28 -28 64 -28h1480q32 0 60 28t28 56v820v24q-12 0 -32 -4q-3 -1 -15 -9.5t-35.5 -23.5t-49.5 -31q-132 -88 -216 -148q-49 -35 -121 -82t-87 -58l328 -372q11 -17 8 -20q-6 -6 -12 0q-8 0 -12 4l-392 332q-98 -63 -108 -68q-27 -16 -84 -16t-84 16 q-10 5 -108 68l-392 -332q-4 -4 -12 -4q-6 -6 -12 0q-8 8 4 20l332 372q-15 11 -87.5 58t-120.5 82l-220 148q-26 16 -49.5 31t-35.5 23.5t-15 9.5q-36 18 -36 -20v-820zM24 1240q14 -28 52 -44q673 -367 676 -368q27 -16 84 -16t84 16q3 1 676 368q38 16 52 44q3 13 3 21 t-3 11q-16 8 -48 8h-1528q-36 0 -44 -8q-7 -3 -7 -14q0 -8 3 -18z" />
<glyph unicode="F" horiz-adv-x="2000" d="M0 40v1472q0 63 44.5 107.5t107.5 44.5h1280q66 0 112 -40q52 -61 52 -112v-652q172 -34 288 -170t116 -318q0 -102 -39 -194.5t-106 -159.5t-160.5 -106.5t-198.5 -39.5q-64 0 -108 12h-1236q-63 0 -107.5 45t-44.5 111zM180 68h916q-8 11 -16 23.5t-16 29.5t-13.5 28.5 t-13.5 33t-11 30.5t-11.5 33.5t-10.5 29.5h-588v192h600q19 131 96 208h-696v200h768v-116q94 77 220 100v624h-1224v-1416zM416 1080v180h768v-180h-768zM1224 288h192v-192h168v192h196v168h-196v192h-168v-192h-192v-168z" />
<glyph unicode="G" d="M0 832q0 -16 4 -32v-32h892v892q-16 0 -32 4h-32q-344 0 -588 -244t-244 -588zM132 640q18 -258 180 -456q252 -312 648 -312q344 0 588 244t244 588q0 396 -312 648q-198 162 -456 180v-892h-892z" />
<glyph unicode="H" d="M0 768q0 -40 28 -68l448 -448q28 -28 68 -28t68 28t28 68t-28 68l-380 380l380 380q28 28 28 68t-28 68t-68 28t-68 -28l-448 -448q-28 -28 -28 -68zM512 768q0 -96 96 -96t96 96t-96 96t-96 -96zM800 768q0 -96 96 -96t96 96t-96 96t-96 -96zM1088 768q0 -96 96 -96 t96 96t-96 96t-96 -96zM1152 320q0 -40 28 -68t68 -28t68 28l448 448q28 28 28 68t-28 68l-448 448q-28 28 -68 28t-68 -28t-28 -68t28 -68l380 -380l-380 -380q-28 -28 -28 -68z" />
<glyph unicode="I" d="M0 756q0 185 70.5 353t190 288.5t283.5 191.5t344 71q186 0 353.5 -71t288 -191.5t191.5 -288t71 -353.5q0 -180 -71 -344t-191.5 -283.5t-288.5 -190t-353 -70.5q-180 0 -344 70.5t-283.5 190t-190 283.5t-70.5 344zM736 112h284v888h-284v-888zM736 1192h284v296h-284 v-296z" />
<glyph unicode="J" horiz-adv-x="1788" d="M0 44v1232l692 324v-324l700 324v-792q165 -12 280.5 -140.5t115.5 -299.5q0 -177 -127.5 -304.5t-304.5 -127.5q-79 0 -153.5 29.5t-130.5 78.5h-1072zM144 220h272v316h-272v-316zM144 700h272v324h-272v-324zM560 220h280v316h-280v-316zM560 700h280v324h-280v-324z M980 700h104q85 78 168 100v224h-272v-324zM1256 -4h192v552h-192v-552zM1256 592h192v140h-192v-140z" />
<glyph unicode="K" horiz-adv-x="1604" d="M0 -128v1416l796 376v-376l808 376v-1792h-1604zM168 76h316v364h-316v-364zM168 632h316v368h-316v-368zM644 76h324v364h-324v-364zM644 632h324v368h-324v-368zM1128 76h316v364h-316v-364zM1128 632h316v368h-316v-368z" />
<glyph unicode="L" horiz-adv-x="1592" d="M0 40q0 -69 49 -118.5t115 -49.5h1264q69 0 116.5 49.5t47.5 118.5v728q0 69 -47.5 118.5t-116.5 49.5h-100v200q0 143 -71.5 265t-194 192.5t-266.5 70.5t-266.5 -70.5t-194 -192.5t-71.5 -265v-200h-100q-66 0 -115 -49.5t-49 -118.5v-728zM68 40v728q0 42 28.5 71 t67.5 29h1264q40 0 70 -29.5t30 -70.5v-728q0 -41 -30 -70.5t-70 -29.5h-1264q-39 0 -67.5 29t-28.5 71zM332 936v200q0 192 136 328t328 136t328 -136t136 -328v-200h-132v200q0 138 -97 235t-235 97t-235 -97t-97 -235v-200h-132zM532 936v200q0 108 78 186t186 78 q110 0 187 -77.5t77 -186.5v-200h-528zM664 248q0 -20 8 -28q8 -16 24 -16h200q12 0 28 16q5 11 5 20q0 4 -1 8l-48 188q48 36 48 100q0 57 -39 96.5t-93 39.5t-93 -39.5t-39 -96.5q0 -64 48 -100zM732 536q0 30 18.5 49t45.5 19q28 0 48 -19.5t20 -48.5q0 -34 -36 -56 q-9 -6 -14 -16.5t-2 -19.5l40 -172h-112l40 172q8 24 -16 36q-32 19 -32 56z" />
<glyph unicode="M" horiz-adv-x="1656" d="M0 40l68 -168l568 252q52 23 52 84v184q0 26 -13.5 49t-38.5 31q-32 36 -48 152q0 18 -5 32t-18 24t-20 14.5t-25 13.5q-1 0 -3.5 0.5t-8 3t-9.5 7.5t-7.5 15.5t-3.5 25.5q0 8 8 16t8 16q16 0 16 16q15 9 22.5 24.5t8.5 27t1 32.5q-16 68 -16 136q-152 48 -168 64 q-7 -7 -7 -39.5t3.5 -75.5t3.5 -53q-48 -48 -48 -148q0 -151 100 -220q23 -139 84 -200v-100zM320 1580l84 -368q2 -3 7.5 -9t34.5 -20.5t71.5 -25.5t126.5 -20t192 -9q103 0 186 8.5t127.5 21t74.5 25t39 21.5l9 8l68 368l-300 -152l-204 236l-200 -236zM988 208 q0 -61 52 -84l552 -252l64 168l-500 216v100q80 80 100 200q100 69 100 220q0 100 -48 148v152q-23 -14 -70 -22t-82 -9l-36 -1q9 -37 9 -75t-5 -57l-4 -20q-5 -14 -5 -26q0 -35 41 -58q0 -7 4 -11t8 -5h4v-32q0 -17 -0.5 -24t-1.5 -15t-4.5 -10.5t-9.5 -2.5 q-38 -13 -53 -30t-15 -54q-7 -52 -19 -90t-21 -50l-8 -12q-25 -8 -38.5 -31t-13.5 -49v-184z" />
<glyph unicode="N" horiz-adv-x="1664" d="M0 264q0 -56 40 -96t96 -40h1392q56 0 96 40t40 96v808q0 56 -40 96q-42 36 -96 36h-268l-164 164q-40 40 -92 40h-336q-62 0 -100 -44l-156 -160h-276q-54 0 -96 -36q-40 -40 -40 -96v-808zM464 700q0 150 108 264q108 108 260 108t260 -108q108 -114 108 -264 q0 -152 -108 -260q-106 -112 -260 -112t-260 112q-108 108 -108 260zM552 700q0 -118 84 -196q78 -84 196 -84q116 0 200 84q80 80 80 196q0 114 -80 200q-86 80 -200 80q-116 0 -196 -80q-84 -84 -84 -200zM1448 1048q0 56 56 56t56 -56t-56 -56t-56 56z" />
<glyph unicode="O" horiz-adv-x="956" d="M0 1056q0 -132 52 -288q58 -175 116 -280q53 -112 144 -248q71 -114 112 -172l52 -68l120 160q118 159 240 428q120 264 120 468q0 200 -140 340q-146 140 -340 140q-196 0 -336 -140t-140 -340zM252 1048q0 92 68 160t156 68q92 0 160 -68t68 -160q0 -88 -68 -156 t-160 -68q-88 0 -156 68t-68 156z" />
<glyph unicode="P" horiz-adv-x="1536" d="M0 640h640v-640h256v640h640v256h-640v640h-256v-640h-640v-256z" />
<glyph unicode="Q" d="M0 0h1300v120q0 124 -8 188q-17 70 -276 172l-76 28q-36 12 -76 32q-24 6 -36 36t-12 44v80q0 35 32 80q30 37 48 136q8 40 20 56q16 21 28 88q6 36 0 60l-8 32q4 36 12 116v12q0 76 -68 160q-78 96 -232 96t-228 -92q-68 -85 -68 -163v-13l12 -116q0 -16 -4 -32 q-6 -30 0 -60q12 -67 28 -88q8 -16 16 -56q18 -99 48 -136q32 -45 32 -80q0 -116 -20 -136q-18 -24 -180 -84q-259 -102 -276 -172q-8 -64 -8 -308zM1060 1108q0 -28 4 -48t4 -40q0 -12 -4 -28q-6 -25 0 -44q13 -51 24 -68l12 -44q12 -75 36 -112q24 -42 24 -76v-20v-24v-20 q-4 -8 -12 -16q-12 -12 -20 -16q-2 -1 -11.5 -7.5t-16.5 -8.5q13 -7 40 -12l36 -16q94 -39 152 -84q52 -41 60 -64q2 -6 4 -24.5t4 -27.5q4 -16 4 -308h392l-8 360q-6 53 -212 132q-35 15 -70 29t-49.5 19.5t-16.5 7.5q-20 20 -20 100q0 33 28 72q25 43 36 116q8 32 16 44 q12 36 20 68q8 38 4 48l-8 24q0 20 4 40t4 48v9q0 51 -52 127q-60 72 -180 72q-122 0 -176 -72q-52 -71 -52 -126v-10z" />
<glyph unicode="R" d="M0 476l36 -268q12 -80 112 -80h1496q100 0 112 80l36 268q2 12 2 24q0 68 -62 104l-284 220h-168l248 -248h-204q-14 0 -20 -12l-72 -180h-672l-72 180q-6 12 -24 12h-200l248 248h-168l-288 -220q-58 -37 -58 -105q0 -11 2 -23zM384 1024l512 -464l512 464h-320v384 h-384v-384h-320z" />
<glyph unicode="S" horiz-adv-x="1884" d="M0 980l652 96l292 588l288 -588l652 -96l-468 -460l112 -648l-584 308l-584 -308l112 648z" />
<glyph unicode="T" horiz-adv-x="1408" d="M0 128h256v384h-256v-384zM384 128h256v1280h-256v-1280zM768 128h256v640h-256v-640zM1152 128h256v896h-256v-896z" />
<glyph unicode="U" horiz-adv-x="1280" d="M0 0h1280v1216h-512v-64h448v-1088h-1152v1088h448v64h-512v-1216zM344 736l296 -296l296 296l-44 48l-220 -220v972h-64v-972l-220 220z" />
<glyph unicode="V" horiz-adv-x="1664" d="M0 600l8 -24l12 -12l564 -544q20 -20 40 -20q12 0 36 24l996 1280l8 24q0 2 -1 5t-3.5 9t-3.5 10l-220 176q-24 8 -28 8q-16 0 -24 -8l-800 -1028l-320 312q-24 24 -40 24q-8 0 -32 -24t-176 -184l-8 -8q-2 -5 -4 -9.5t-3 -6.5t-1 -4z" />
<glyph unicode="W" horiz-adv-x="1536" d="M0 132q0 -52 40 -92t92 -40h1280q54 0 88 40q36 42 36 92v1284q0 52 -36 88q-38 32 -88 32h-1280q-54 0 -92 -32q-40 -34 -40 -88v-1284zM256 256v684h220v-684h-220zM256 1160q0 52 36 88q32 32 84 32t84 -32q32 -38 32 -88q0 -48 -32 -80q-36 -36 -88 -36q-54 0 -84 36 q-32 32 -32 80zM608 256v684h220v-96q77 112 200 112q114 0 184 -76q68 -80 68 -224v-400h-220v376q0 148 -112 148q-81 0 -112 -80q-8 -24 -8 -56v-388h-220z" />
<glyph unicode="X" horiz-adv-x="1540" d="M0 204q0 -24 16 -40l152 -148q16 -16 40 -16q20 0 36 16l524 524l524 -524q16 -16 40 -16q20 0 36 16l152 148q16 16 16 40t-16 40l-528 528l528 520q20 18 20 37t-20 39l-148 152q-16 16 -40 16q-19 0 -40 -16l-524 -520l-524 520q-16 16 -40 16q-19 0 -40 -16 l-148 -152q-20 -20 -20 -40t20 -40l528 -520l-528 -524q-16 -16 -16 -40z" />
<glyph unicode="Y" d="M0 764q0 -374 264 -632q258 -264 632 -264q372 0 636 264q260 260 260 632q0 370 -260 636q-266 260 -636 260q-372 0 -632 -260q-264 -264 -264 -636zM456 440q0 12 8 20l304 304l-304 300q-12 12 -12 24t12 24l84 84q12 12 24 12q8 0 20 -12l304 -296l304 296 q12 12 20 12q12 0 24 -12l88 -84q12 -12 12 -24t-12 -24l-304 -300l300 -300q12 -12 12 -24q0 -18 -12 -24l-84 -84q-12 -12 -24 -12q-8 0 -20 12l-304 300l-300 -304q-8 -8 -24 -8t-24 8l-84 88q-8 8 -8 24z" />
<glyph unicode="Z" horiz-adv-x="1152" d="M0 1280h84l96 -1164q0 -50 36 -80q30 -36 80 -36h564q48 0 84 36q32 32 32 80l96 1164h80v60h-320v80q0 46 -32 84q-38 32 -84 32h-280q-48 0 -80 -32q-36 -36 -36 -84v-80h-320v-60zM320 1152h56l44 -964h-56zM380 1340v80q0 56 56 56h280q56 0 56 -56v-80h-392z M548 188v964h56v-964h-56zM732 188l44 964h56l-44 -964h-56z" />
<glyph unicode="[" horiz-adv-x="1796" d="M1 76q-3 -100 63 -172q72 -72 176 -72q98 0 172 68l268 272q32 32 32 72q0 20 -8 44l8 8q27 -12 59.5 -6.5t56.5 26.5l48 48q12 12 12 28q0 12 -12 24l-120 120l44 48l268 -268q-32 -100 -8.5 -200t96.5 -176q108 -108 264 -108q96 0 176 40q16 8 16 24q0 24 -8 32 l-204 204l92 92l204 -200q12 -12 32 -12q21 10 24 20q57 108 38 228.5t-106 207.5q-51 51 -120 79.5t-144 28.5q-52 0 -112 -20l-264 268l520 520q16 -8 24 -8h12l72 24l16 8l96 100q12 6 12 24q0 12 -12 24l-96 96q-12 9 -25.5 9t-22.5 -9l-100 -96l-8 -16l-24 -72 q-5 -16 8 -36l-524 -520l-264 264q32 100 8.5 200t-96.5 176q-112 112 -264 112q-88 0 -176 -44q-16 -8 -16 -24q0 -24 8 -32l204 -204l-92 -92l-204 204q-8 8 -32 8q-16 0 -24 -16q-57 -111 -38 -231.5t106 -204.5q106 -112 264 -112q52 0 112 20l264 -264l-44 -48 l-124 120q-9 12 -24 12t-24 -12l-48 -48q-32 -32 -32 -72q0 -26 12 -44l-8 -8q-30 12 -63 6.5t-57 -26.5l-264 -264q-72 -72 -75 -172zM70.5 74.5q2.5 71.5 53.5 125.5l268 264q8 8 24 8q8 0 24 -8q9 -12 22.5 -12t25.5 12l48 48q12 6 12 24q0 12 -12 24q-8 8 -8 24t8 24 l24 24l244 -240l-24 -28q-9 -9 -24 -9t-24 9q-26 26 -52 0l-48 -48q-8 -8 -8 -24q0 -8 8 -24q12 -6 12 -24q0 -12 -12 -24l-272 -272q-48 -48 -120 -48t-124 52q-48 51 -45.5 122.5zM77 1179.5q-20 83.5 7 164.5l196 -192q9 -9 24 -9t24 9l144 144q8 16 8 24q0 16 -8 24 l-192 192q37 16 96 16q124 0 212 -88q65 -62 83.5 -151.5t-15.5 -172.5q-6 -19 8 -40l280 -276l-144 -144l-276 280q-16 8 -28 8h-12q-45 -20 -108 -20q-134 0 -216 88q-63 60 -83 143.5zM156 120q0 -15 12 -24q6 -12 24 -12q12 0 24 12l224 220q9 12 9 25.5t-9 22.5 q-12 12 -25.5 12t-22.5 -12l-224 -220q-12 -9 -12 -24zM264 -4q16 -8 24 -8q16 0 24 8l224 224q9 9 9 24t-9 24q-9 12 -24 12t-24 -12l-224 -220q-20 -26 0 -52zM852 632l140 140l280 -280q20 -13 40 -8q54 24 108 24q130 0 216 -92q63 -60 83 -143.5t-7 -164.5l-196 192 q-9 9 -24 9t-24 -9l-144 -144q-8 -16 -8 -24q0 -16 8 -24l192 -192q-37 -16 -96 -16q-124 0 -212 88q-65 62 -83.5 151.5t15.5 172.5q5 20 -8 40zM1580 1428l16 44l68 68l48 -48l-68 -68l-44 -16z" />
<glyph unicode="\" d="M36 1108q109 -285 512 -688q160 -161 301.5 -275t248 -170t183 -79.5t139.5 -23.5q98 0 168 60l152 160q58 58 52 136q-6 83 -68 132l-240 184q-48 39 -111.5 39t-108.5 -39l-56 -40q-30 -27 -72 -24.5t-72 32.5l-428 428q-27 30 -29.5 70.5t21.5 73.5l44 52 q39 48 39 110t-39 110l-188 240q-49 68 -140 68q-76 0 -128 -52l-152 -152q-115 -115 -28 -352zM104 1132q-74 196 12 276l152 156q32 32 76 32q53 0 84 -44l188 -240q21 -30 21 -66t-21 -66l-44 -52q-42 -54 -37 -123t53 -117l428 -428q52 -52 128 -52q62 0 108 40l56 40 q27 24 64.5 24t67.5 -24l240 -184q40 -33 40 -80q6 -46 -32 -84l-152 -156q-40 -40 -116 -40q-50 0 -115 20t-165 71.5t-241.5 163.5t-302.5 273q-394 400 -492 660z" />
<glyph unicode="]" horiz-adv-x="1952" d="M0 604q0 -39 28.5 -67.5t67.5 -28.5h228v-488q0 -42 29 -69t71 -27h1432q40 0 68 27.5t28 68.5v912q0 39 -28.5 67.5t-67.5 28.5h-228v488q0 42 -29 69t-71 27h-1432q-40 0 -68 -27.5t-28 -68.5v-912zM64 604v556h1496v-132h-1136q-42 0 -71 -28.5t-29 -67.5v-360h-228 q-12 0 -22 10t-10 22zM64 1268v84h84zM64 1420v96q0 14 9.5 23t22.5 9h1432q32 0 32 -32v-96h-1496zM112 1224l128 128h104l-128 -128h-104zM308 1224l128 128h104l-132 -128h-100zM392 20v912q0 13 9 22.5t23 9.5h1432q12 0 22 -10t10 -22v-912q0 -14 -9.5 -23t-22.5 -9 h-1432q-32 0 -32 32zM456 704q0 -27 18.5 -47.5t45.5 -20.5h132q27 0 45.5 20.5t18.5 47.5v128q0 27 -18.5 47.5t-45.5 20.5h-132q-27 0 -45.5 -20.5t-18.5 -47.5v-128zM500 1224l132 128h104l-132 -128h-104zM520 84q0 -12 10 -22t22 -10h588q12 0 22 10t10 22 q0 14 -9.5 23t-22.5 9h-588q-13 0 -22.5 -9t-9.5 -23zM520 216q0 -14 9.5 -23t22.5 -9h132q13 0 22.5 9t9.5 23q0 12 -10 22t-22 10h-132q-12 0 -22 -10t-10 -22zM520 476q0 -14 9.5 -23t22.5 -9q32 0 32 32v32q0 13 -9 22.5t-23 9.5q-12 0 -22 -10t-10 -22v-32zM520 704 v128h132v-128h-132zM652 476q0 -32 32 -32q13 0 22.5 9t9.5 23v32q0 12 -10 22t-22 10q-14 0 -23 -9.5t-9 -22.5v-32zM696 1224l132 128h104l-132 -128h-104zM780 216q0 -14 9.5 -23t22.5 -9h132q13 0 22.5 9t9.5 23q0 12 -10 22t-22 10h-132q-12 0 -22 -10t-10 -22z M780 476q0 -14 9.5 -23t22.5 -9q32 0 32 32v32q0 13 -9 22.5t-23 9.5q-12 0 -22 -10t-10 -22v-32zM892 1224l132 128h100l-128 -128h-104zM912 476q0 -32 32 -32q13 0 22.5 9t9.5 23v32q0 12 -10 22t-22 10q-14 0 -23 -9.5t-9 -22.5v-32zM1040 476q0 -14 9.5 -23t22.5 -9 q15 0 25.5 8.5t10.5 23.5v32q0 12 -10.5 22t-25.5 10q-12 0 -22 -10t-10 -22v-32zM1088 1224l128 128h104l-128 -128h-104zM1172 476q0 -32 32 -32q13 0 22.5 9t9.5 23v32q0 12 -10 22t-22 10q-14 0 -23 -9.5t-9 -22.5v-32zM1284 1224l128 128h104l-132 -128h-100zM1300 216 q0 -68 48.5 -116t115.5 -48q51 0 96 32q45 -32 100 -32q66 0 113 47.5t47 116.5q0 66 -47 113t-113 47q-55 0 -100 -32q-45 32 -96 32q-66 0 -115 -47t-49 -113zM1300 476q0 -14 9.5 -23t22.5 -9q15 0 25.5 8.5t10.5 23.5v32q0 12 -10.5 22t-25.5 10q-12 0 -22 -10t-10 -22 v-32zM1368 216q0 39 28.5 67.5t67.5 28.5q46 0 72 -32q9 -12 24.5 -12t27.5 12q26 32 72 32q39 0 67.5 -28.5t28.5 -67.5q0 -42 -28.5 -71t-67.5 -29q-48 0 -72 36q-12 12 -28 12q-12 0 -24 -12q-24 -36 -72 -36q-39 0 -67.5 29t-28.5 71zM1432 476q0 -14 9.5 -23t22.5 -9 t22.5 9t9.5 23v32q0 12 -10 22t-22 10t-22 -10t-10 -22v-32zM1476 1224l84 84v-84h-84zM1560 476q0 -15 10.5 -23.5t25.5 -8.5q13 0 22.5 9t9.5 23v32q0 12 -10 22t-22 10q-15 0 -25.5 -10t-10.5 -22v-32zM1692 476q0 -14 9.5 -23t22.5 -9q32 0 32 32v32q0 13 -9 22.5 t-23 9.5q-12 0 -22 -10t-10 -22v-32z" />
<glyph unicode="_" horiz-adv-x="1772" d="M0 1040q5 -74 30.5 -150t55 -134.5t89 -131t97 -114.5t117.5 -112t112 -96t116 -93q7 -6 11 -9q65 -50 101 -79t75 -67t56 -66q8 -16 24 -16q12 0 28 16q24 40 79 88.5t153 123.5q214 171 313 267q293 287 314 560q1 7 1 13q6 106 -29 203.5t-107 172.5q-62 70 -149 107 t-183 37q-127 0 -234.5 -65.5t-181.5 -190.5q-72 126 -177.5 193t-234.5 67q-100 0 -191 -40.5t-157 -115.5q-71 -74 -104 -169.5t-24 -198.5zM64 1044q-18 181 108 320q60 66 140 103t164 37q122 0 221 -73.5t159 -206.5q7 -20 28 -20q20 0 28 16q69 136 169.5 208 t222.5 72q172 0 288 -128q128 -141 116 -328q-7 -115 -58.5 -225t-158.5 -222t-171.5 -169t-198.5 -165q-9 -7 -13 -11q-166 -125 -224 -192q-65 76 -220 192q-207 166 -298 256q-278 271 -301 526q-1 5 -1 10z" />
<glyph unicode="a" d="M0 748h248q0 -122 42.5 -230t121.5 -190l-176 -172q-108 114 -169 267.5t-67 324.5zM0 808q6 158 68.5 304t167.5 260l176 -164q-152 -179 -164 -400h-248zM284 108l172 172q172 -146 400 -164v-244q-160 6 -307 68.5t-265 167.5zM284 1428q118 105 265 167.5t307 68.5 v-244q-231 -18 -400 -168zM420 700l144 144l164 -164l480 484l156 -156l-624 -624zM916 116q230 0 420 164l164 -172q-115 -109 -264.5 -169.5t-319.5 -66.5v244zM916 1420v244q166 -6 316 -68.5t268 -167.5l-164 -176q-187 168 -420 168zM1380 328q80 83 124 191t44 229 h244q-6 -168 -69.5 -322t-170.5 -270zM1380 1208l172 164q107 -113 170.5 -259t69.5 -305h-244q-12 224 -168 400z" />
<glyph unicode="b" horiz-adv-x="1536" d="M0 704q0 -134 96 -224q90 -96 224 -96h192l-24 20q-28 17 -60 68q-32 52 -44 104h-64q-56 0 -92 36t-36 92v128q0 56 36 92t92 36h448q56 0 92 -36t36 -92v-128h192v128q0 68 -24 128q-36 85 -116 140q-81 52 -180 52h-448q-132 0 -224 -92q-96 -96 -96 -228v-128z M448 704q0 -66 28 -128q90 -192 292 -192h448q132 0 228 96q92 92 92 224v128q0 130 -92 228q-98 92 -228 92h-192l24 -20q28 -17 60 -68q32 -52 44 -104h64q56 0 92 -36t36 -92v-128q0 -56 -36 -92t-92 -36h-448q-56 0 -92 36t-36 92v128h-192v-128z" />
<glyph unicode="c" horiz-adv-x="1152" d="M0 0h960v192h192v1044l-300 300h-660v-192h-192v-1344zM64 64v1216h128v-1088h704v-128h-832zM256 256v1216h572l260 -264v-952h-832zM704 1088h320v64h-256v256h-64v-320z" />
<glyph unicode="d" horiz-adv-x="1536" d="M0 204q0 -34 24 -52q18 -24 52 -24h1152q76 0 76 76v436l-152 -124v-236h-1000v720h232l16 24q4 4 26 24t38 36q56 48 92 68h-480q-76 0 -76 -76v-872zM384 512q143 230 268 304q129 80 372 80v-256l512 384l-512 384v-240q-170 0 -300 -68q-134 -73 -192 -160 q-65 -88 -100 -200q-32 -102 -40 -156q-8 -56 -8 -72z" />
<glyph unicode="e" horiz-adv-x="1536" d="M0 616h176q21 -69 68 -156l-128 -128l216 -216l132 128q46 -29 152 -60v-184h304v184q101 31 152 60l132 -128l216 216l-128 128q47 87 68 156h176v304h-172q-16 75 -64 164l120 120l-216 216l-116 -116q-54 35 -168 68v164h-304v-164q-114 -33 -168 -68l-116 116 l-216 -216l120 -120q-37 -66 -64 -164h-172v-304zM552 768q0 88 64 152t152 64t152 -64t64 -152t-64 -152t-152 -64t-152 64t-64 152z" />
<glyph unicode="f" horiz-adv-x="1600" d="M0 24q0 -63 44.5 -107.5t107.5 -44.5h1296q61 0 106.5 45t45.5 107v1500q0 52 -46.5 96t-105.5 44h-1296q-61 0 -106.5 -43.5t-45.5 -96.5v-1500zM180 52v1448h1252v-1448h-1252zM412 272h788v180h-788v-180zM412 684h788v164h-788v-164zM412 1084h788v180h-788v-180z " />
<glyph unicode="g" d="M0 76v1396q0 78 57 135t135 57h1240h8h8l336 -344q4 0 6 -2t2 -4v-2v-1236q0 -87 -58.5 -145.5t-145.5 -58.5h-1396q-79 0 -135.5 59t-56.5 145zM204 24q0 -33 23.5 -56.5t56.5 -23.5h1224q33 0 56.5 23.5t23.5 56.5v652q0 29 -25 72.5t-55 43.5h-1224q-30 0 -55 -43.5 t-25 -72.5v-652zM336 1056q0 -27 16.5 -43.5t43.5 -16.5h928q28 0 50 17t22 43v8v476q-21 64 -72 64h-928q-22 0 -41 -19t-19 -45v-476v-8zM1052 1072l8 -8h184q5 0 8 2t4 4v2v452q0 6 -1.5 7t-10.5 1h-184q-8 0 -8 -8v-452z" />
<glyph unicode="h" horiz-adv-x="2340" d="M0 76v1388q0 86 59 143t141 57h1224h12q0 -4 4 -4l348 -348q4 -4 4 -16v-88l-428 -436h-1080q-33 0 -58.5 -26t-25.5 -62v-656q0 -35 25 -59.5t59 -24.5h568v-72h-652q-81 0 -140.5 60t-59.5 144zM344 1044q0 -27 19 -43.5t49 -16.5h904q31 0 51.5 16.5t20.5 43.5 q0 6 -1 7t-7 1h8v484q-6 29 -24.5 46.5t-47.5 17.5h-904q-30 0 -49 -18.5t-19 -45.5v-484v-8zM996 -84v344q0 12 12 24l912 924q24 21 49 21t43 -21l308 -304q21 -18 21 -44.5t-21 -47.5l-916 -928q-2 -5 -8.5 -8t-7.5 -4h-352zM1036 1064v452q0 5 4 8.5t8 3.5h184 q16 0 16 -12v-452q0 -3 -5 -7.5t-11 -4.5h-184q-3 0 -7.5 4.5t-4.5 7.5zM1080 100l140 -144h144l716 720l-24 28l-652 -652l-60 60l648 660l-20 28l-656 -664l-60 64l652 660l-24 28l-652 -664l-52 60l640 656l-24 24l-716 -724v-140zM1856 1024l280 -284l112 120l-276 276z " />
<glyph unicode="i" d="M0 0h1536l-8 160q-19 82 -324 196q-3 2 -10.5 4t-9.5 4q-186 66 -196 76q-24 18 -24 136q0 48 36 96q38 44 56 160q6 40 24 64q12 16 32 96q7 20 7 41q0 13 -3 27q-12 30 -12 40q2 22 8 66t8 66v13q0 90 -80 187q-92 104 -272 104t-272 -104q-80 -97 -80 -187v-13 q2 -22 8 -66t8 -66l-8 -40q-6 -16 -6 -33t6 -35q20 -80 32 -96q18 -24 24 -64q18 -116 56 -160q36 -48 36 -96v-24q0 -88 -16 -104q-24 -24 -108 -52l-116 -40q-305 -114 -324 -196q-8 -72 -8 -160zM1216 684h204v-204h168v204h204v168h-204v204h-168v-204h-204v-168z" />
<glyph unicode="j" horiz-adv-x="2124" d="M0 100l540 236v72q-72 88 -96 224q-116 80 -116 239v13q0 2 2 17.5t3.5 25.5t6 29t9.5 33.5t14.5 33t20.5 33.5q-5 46 -5 90q0 198 109 338q144 180 436 180t436 -180q107 -137 107 -355q0 -36 -3 -73q52 -69 52 -172q2 -4 2 -7.5t-1 -7.5t-1 -5q72 16 112 16 q100 0 192 -40.5t158.5 -108.5t106 -160t39.5 -191q0 -136 -67 -251t-181 -182t-248 -67q-131 0 -241.5 63t-178.5 169l-76 32q-33 15 -52.5 46t-19.5 70v204q0 33 16.5 61t43.5 43q35 35 44 156q6 43 32 74.5t64 37.5q12 4 12 32v12q-12 4 -24 16q-27 24 -38 58 q-6 18 -6 36q0 15 4 30q8 36 12 84v23q0 40 -9 93q-12 68 -47 108q-65 88 -236 88q-179 0 -244 -88q-35 -40 -47 -108q-9 -53 -9 -93v-23q4 -48 12 -84q4 -15 4 -30q0 -18 -6 -36q-11 -34 -38 -58q-2 -4 -5 -6t-9 -4.5t-10 -5.5v-12q0 -12 3 -20t6 -10l3 -2q38 -6 64 -37.5 t32 -74.5q9 -121 44 -156q27 -15 43.5 -43t16.5 -61v-204q0 -39 -19.5 -70t-52.5 -46l-612 -272zM1512 -80h220v668h-220v-668zM1512 632h220v168h-220v-4v-164z" />
<glyph unicode="k" horiz-adv-x="1808" d="M0 768q0 -166 60 -316q70 -166 164 -260q10 -13 68 -64l92 96q-132 107 -188 236q-68 155 -68 308q0 60 20 160q17 85 52 148q34 63 80 128q49 60 104 108l-92 96q-58 -51 -68 -64q-94 -94 -164 -260q-60 -150 -60 -316zM320 768q0 -236 148 -384l72 -64l92 100 q-80 55 -132 148q-52 92 -52 200t52 200q52 93 132 148l-92 100l-72 -64q-148 -148 -148 -384zM640 768q0 -256 256 -256t256 256t-256 256t-256 -256zM1160 420l92 -100l72 64q148 148 148 384t-148 384l-72 64l-92 -100q80 -55 132 -148q52 -92 52 -200t-52 -200 q-52 -93 -132 -148zM1408 224l92 -96q18 14 68 64q94 94 164 260q60 150 60 316t-60 316q-70 166 -164 260q-10 13 -68 64l-92 -96q132 -107 188 -236q68 -155 68 -308t-68 -308q-56 -129 -188 -236z" />
<glyph unicode="l" d="M0 752h244q12 -250 164 -420l-164 -176q-108 114 -171.5 268.5t-72.5 327.5zM0 816q9 165 72.5 310t171.5 250l164 -164q-69 -85 -113.5 -188.5t-50.5 -207.5h-244zM284 112l180 168q73 -70 177 -114.5t219 -53.5v-240q-321 11 -576 240zM284 1432q261 221 576 232v-240 q-120 -9 -222.5 -52t-173.5 -116zM452 728v100h240q-12 -12 -12 -56q0 -32 12 -44h-240zM536 1048l92 88l164 -176q-24 -9 -48.5 -30.5t-39.5 -45.5zM552 496l164 164q32 -45 64 -64l-164 -164zM860 332v232h40h36v-232h-76zM892 992v232h8v-232h-8zM924 112q118 9 227.5 52 t188.5 116l164 -168q-116 -107 -267 -170.5t-313 -69.5v240zM924 1424v240q163 0 313.5 -61t266.5 -171l-164 -176q-83 77 -193.5 122.5t-222.5 45.5zM1024 608q23 9 44 44l164 -164l-44 -44zM1032 940l164 164l24 -24l-164 -164q0 5 -3 8.5t-10 7.5t-11 8zM1108 764v8v32 h232v-40h-232zM1384 332q168 188 168 420h240q0 -171 -61 -325.5t-171 -270.5zM1384 1212l176 164q102 -108 164 -253.5t68 -306.5h-240q-20 236 -168 396z" />
<glyph unicode="m" d="M0 744h244q3 -116 45.5 -223.5t118.5 -192.5l-168 -172q-112 118 -174.5 269.5t-65.5 318.5zM0 808q9 166 71.5 313t168.5 259l168 -172q-153 -179 -164 -400h-244zM284 112l172 168q179 -152 400 -164v-244q-162 6 -310.5 69.5t-261.5 170.5zM284 1424 q112 106 260 168.5t312 71.5v-244q-236 -12 -400 -164zM492 428l32 -76l268 120q28 7 28 44v84q0 27 -20 40q-24 16 -28 76q0 15 -10 25.5t-22 10.5q-12 4 -12 28q0 8 4 12q2 0 4 4t4 4q16 11 16 40q0 2 -3 14.5t-4 24.5t3 33q-80 16 -84 24q-3 -3 -3 -34t3 -46 q-24 -32 -24 -72q-2 -10 -2 -19q0 -50 46 -81q16 -68 48 -100v-44zM644 1176l40 -180q3 -4 12.5 -10t62.5 -16t133 -10t132 9t64 18l12 9l36 180l-148 -80l-96 116l-100 -116zM924 116q235 6 412 164l172 -168q-118 -112 -269 -174.5t-315 -65.5v244zM924 1420v244 q164 -3 315 -65.5t269 -174.5l-172 -168q-171 158 -412 164zM964 516q0 -36 24 -44l268 -120l28 76l-236 112v44q34 34 44 100q48 27 48 88v12q0 50 -28 72q6 15 6 44t-6 32q-11 -5 -31 -10t-35 -8l-14 -2q2 -16 0 -32t-5 -27t-3 -13q0 -27 20 -40q2 0 4 -2t3 -4l1 -2 q4 -4 4 -12q0 -22 -12 -28q-15 0 -23.5 -10.5t-8.5 -25.5q-3 -24 -10.5 -42.5t-11 -24t-2.5 -5.5q-24 -24 -24 -44v-84zM1384 328q76 85 118.5 192.5t45.5 223.5h244q-3 -167 -65.5 -318.5t-174.5 -269.5zM1384 1208l168 172q108 -114 171 -261t69 -311h-244 q-12 236 -164 400z" />
<glyph unicode="n" horiz-adv-x="1744" d="M0 736q0 217 89.5 396.5t246.5 299.5l136 -196q-109 -87 -170.5 -215.5t-61.5 -288.5q0 -84 16 -148l-224 -72q-32 96 -32 224zM52 440l228 72q64 -168 210.5 -280t329.5 -124v-236q-263 12 -473 170t-295 398zM352 732q0 -105 40.5 -199.5t108.5 -163t162 -109 t197 -40.5q113 0 213 40.5t170.5 109t111.5 163t41 199.5q0 231 -152.5 381.5t-383.5 150.5q-212 0 -360 -152t-148 -380zM392 1472q219 139 483 139q7 -1 13 -1q272 -4 484 -146l-144 -192q-149 100 -344 102q-5 0 -9 1q-189 0 -347 -99zM916 108q178 9 327 116t217 280 l228 -76q-92 -244 -305 -395.5t-467 -160.5v236zM1280 1236l140 188q208 -164 284 -413q39 -127 40 -259q0 -126 -36 -256l-224 76q21 89 21 174q0 100 -29 195q-53 176 -196 295z" />
<glyph unicode="o" horiz-adv-x="1744" d="M0 736q0 217 89.5 396.5t246.5 299.5l136 -196q-109 -87 -170.5 -215.5t-61.5 -288.5q0 -84 16 -148l-224 -72q-32 96 -32 224zM52 440l228 72q64 -168 210.5 -280t329.5 -124v-236q-263 12 -473 170t-295 398zM392 1472q219 139 483 139q7 -1 13 -1q272 -4 484 -146 l-144 -192q-149 100 -344 102q-5 0 -9 1q-189 0 -347 -99zM916 108q178 9 327 116t217 280l228 -76q-92 -244 -305 -395.5t-467 -160.5v236zM1280 1236l140 188q208 -164 284 -413q39 -127 40 -259q0 -126 -36 -256l-224 76q21 89 21 174q0 100 -29 195q-53 176 -196 295z " />
<glyph unicode="p" d="M0 768q304 -316 412 -392l-284 -284l92 -92l308 308q164 -88 368 -88q123 0 232 40q127 47 196 84q67 36 184 140q96 80 148 132l136 144q-222 268 -416 400l288 284l-92 92l-308 -312q-190 92 -368 92q-232 0 -436 -132q-208 -141 -460 -416zM536 768q0 148 108 256 q102 108 252 108q115 0 208 -68l-204 -200q-4 8 -4 32q0 39 32 84h-32q-88 0 -148 -60q-60 -66 -60 -152q0 -56 20 -96l-108 -108q-64 93 -64 204zM688 472l112 108q42 -24 96 -24q90 0 148 64q60 60 60 148v28q-39 -28 -80 -28q-24 0 -32 4l200 204q64 -93 64 -208 q0 -146 -104 -256q-108 -108 -256 -108q-115 0 -208 68z" />
<glyph unicode="q" d="M0 768q0 -374 264 -632q258 -264 632 -264q372 0 636 264q260 260 260 632q0 370 -260 636q-266 260 -636 260q-372 0 -632 -260q-264 -264 -264 -636zM572 968q0 195 112 272q75 52 188 52q152 0 248 -72q100 -76 100 -208q0 -78 -48 -144q-28 -42 -100 -92l-56 -36 q-35 -29 -48 -68q-8 -40 -8 -76q0 -16 -20 -16h-156q-16 0 -16 16q5 102 40 164q35 58 140 120q36 29 40 40q32 51 32 80q0 47 -32 92q-31 44 -100 44q-68 0 -104 -60q-16 -21 -16 -108h-196zM740 364q0 54 36 84q38 32 84 32q52 0 88 -36q29 -35 29 -76q0 -6 -1 -12 q0 -50 -36 -80q-38 -32 -88 -32t-80 36q-32 32 -32 84z" />
<glyph unicode="r" horiz-adv-x="1840" d="M0 864q0 162 72.5 310t196 255.5t296 171t363.5 63.5q187 0 356 -63.5t291 -171t193.5 -255.5t71.5 -310q0 -169 -71.5 -321.5t-193.5 -261.5t-291 -173t-356 -64q-84 0 -204 16q-120 -51 -217.5 -85.5t-154 -51t-116 -22.5t-80 -6t-69.5 4q-13 1 -19 1q-47 6 -47 28 q0 8 7 18q13 19 87 83q42 36 65 59q44 43 68 89t26 71l2 24q-130 115 -203 266t-73 326zM476 933q0 -13 6 -19l6 -6q284 -240 320 -268q27 -13 40.5 -9t16.5 17l3 12v164q283 0 388 -124q26 -26 43 -64t22.5 -74.5t7.5 -69t1 -52.5l-2 -20q5 10 12 27.5t20.5 71t16.5 105.5 q1 9 1 17q0 45 -13 103q-15 70 -53 128q-37 54 -96.5 90.5t-117.5 50.5t-111 20q-45 5 -76 5h-10l-33 -2v152q0 12 -7 18q-6 6 -15 6h-2q-10 0 -20 -3t-17 -6l-7 -3l-312 -240q-12 -14 -12 -27z" />
<glyph unicode="s" horiz-adv-x="1248" d="M4 588q-4 7 -4 14q0 11 8 22q15 15 36 20l1152 116q22 0 37 -11t15 -29q1 -3 1 -7q-1 -15 -11 -27q-12 -16 -30 -18l-168 -16v-548q0 -18 -13 -31t-31 -13h-812q-18 0 -31 13t-13 31t13 31t31 13h768v64h-804q-27 0 -40 32zM104 560l20 -68h192l-8 88zM152 408l32 -108 h148l-12 108h-168zM228 -44q0 -34 27 -59t65 -25q36 0 64 25.5t28 58.5q0 36 -28 62t-64 26q-39 0 -65.5 -26t-26.5 -62zM396 588l8 -96h232v120zM412 408l8 -108h212v108h-220zM440 1651q0 5 8 9q7 2 26 2t34 -1l16 -1q76 -22 134 -74t86.5 -110t46.5 -113t21 -91l4 -36 l132 4q16 0 20 -9q2 -4 2 -8.5t-2 -9.5l-4 -9l-244 -360q-7 -9 -15 -9t-13 5l-4 4q-212 308 -236 348q-12 21 -11.5 31t7.5 11l8 2h144q0 298 -116 368q-44 39 -44 47zM724 300h228v108h-228v-108zM724 492h228v152l-228 -20v-132zM748 -44q0 -34 27 -59t65 -25 q41 0 68.5 25t27.5 59q0 37 -27.5 62.5t-68.5 25.5q-39 0 -65.5 -26t-26.5 -62z" />
<glyph unicode="t" d="M0 744h240q12 -237 172 -416l-172 -168q-111 117 -174 267t-66 317zM0 808q9 168 70.5 314t169.5 254l172 -168q-154 -160 -172 -400h-240zM288 112l168 168q176 -156 400 -168v-240q-163 6 -309.5 68.5t-258.5 171.5zM288 1424q112 109 258.5 171.5t309.5 68.5v-248 q-220 0 -400 -160zM792 712l404 -408l136 144l-348 348v556h-192v-640zM924 112q227 12 416 168l168 -168q-120 -111 -270 -174t-314 -66v240zM924 1424v240q164 -3 314 -66t270 -174l-168 -168q-189 156 -416 168zM1384 328q162 182 168 416h240q0 -166 -64 -316t-176 -268 zM1384 1208l168 168q109 -109 171.5 -255.5t68.5 -312.5h-244q-6 236 -164 400z" />
<glyph unicode="u" horiz-adv-x="1536" d="M0 0h1536l-8 160q-19 82 -324 196q-3 2 -10.5 4t-9.5 4q-186 66 -196 76q-24 18 -24 136q0 48 36 96q38 44 56 160q6 40 24 64q12 16 32 96q7 20 7 41q0 13 -3 27q-12 30 -12 40q2 22 8 66t8 66v13q0 90 -80 187q-92 104 -272 104t-272 -104q-80 -97 -80 -187v-13 q2 -22 8 -66t8 -66l-8 -40q-6 -16 -6 -33t6 -35q20 -80 32 -96q18 -24 24 -64q18 -116 56 -160q36 -48 36 -96v-24q0 -88 -16 -104q-24 -24 -108 -52l-116 -40q-305 -114 -324 -196q-8 -72 -8 -160z" />
<glyph unicode="v" d="M0 768q160 -160 204 -200q44 -44 188 -152q116 -87 240 -124q120 -36 264 -36q122 0 236 40q137 50 188 76q77 38 188 132q29 25 65 54t55 45t28 25l136 136q-456 516 -896 516q-237 0 -432 -124q-199 -123 -464 -388zM536 768q0 148 108 256q102 108 252 108 q148 0 256 -108q104 -110 104 -256t-104 -256q-108 -108 -256 -108q-150 0 -252 108q-108 108 -108 256zM688 768q0 -88 60 -148q58 -64 148 -64t148 64q60 60 60 148v28q-39 -28 -80 -28q-56 0 -92 36t-36 92q0 39 32 84h-32q-88 0 -148 -60q-60 -66 -60 -152z" />
<glyph unicode="w" horiz-adv-x="1820" d="M0 80q0 -4 1 -11.5t5.5 -29.5t11 -41.5t20.5 -43.5t31.5 -41t45.5 -29t61 -12h1060q4 0 10.5 0.5t25.5 4t36.5 9.5t39 19t36.5 31t25.5 47t10.5 65v448l-184 -172v-276h-1060v1168h116v180h-124q-4 0 -10 -0.5t-23.5 -4.5t-33 -10.5t-35 -20t-33.5 -31.5t-23.5 -47.5 t-9.5 -65.5v-1136zM296 608l240 236l268 -272l760 784l256 -256l-1008 -996zM356 1160v236q43 0 90.5 34.5t89.5 89.5q48 68 122 82q27 5 51 5q45 0 85 -17q62 -26 90 -70q20 -46 65 -77t80 -39l35 -8v-216v-8t-2.5 -17t-7 -21.5t-15.5 -17.5t-27 -8h-616q-4 0 -11 1.5 t-18 14.5t-11 36zM628 1400q0 -34 23 -61t65 -27t69 27.5t27 60.5q0 46 -26 77t-70 31q-43 0 -65.5 -30t-22.5 -78z" />
<glyph unicode="x" horiz-adv-x="2040" d="M2 1181q0 6 -1 11q1 26 7 50q8 28 35 59t73 47q103 31 128 40q-4 20 -4 37q0 30 12 55q14 42 68 60l156 52q92 28 156 52q24 8 40 8q44 0 72.5 -25.5t39.5 -58.5l140 48q30 8 56 8q16 0 30 -3q37 -8 62.5 -29.5t41.5 -44.5t23 -41l7 -18l-1132 -372q-2 7 -5 19.5t-5 45.5 zM96 36v1080h1024v-1080q0 -46 -14 -79.5t-34 -49t-40 -24.5t-34 -10l-14 -1h-752q-6 0 -15 1t-32.5 10t-41.5 24.5t-32.5 49t-14.5 79.5zM300 20h108v984h-108v-984zM552 20h112v984h-112v-984zM808 20h116v984h-116v-984zM1140 1324l4 -12l180 -520q6 -18 14 -25t16 -4 t15 8t11 11l4 6l108 168q318 -207 368 -416q6 -31 6 -61q0 -23 -3 -45q-8 -52 -28 -101t-41 -86.5t-38 -60.5l-16 -22q13 8 34 23.5t74 67t93 107t71 141.5q28 78 28 158v15q-3 66 -26.5 130.5t-59 114.5t-77 95.5t-82.5 77.5t-75 55.5t-55 34.5l-21 12q76 120 108 176 q14 25 4.5 35.5t-28.5 11.5l-20 1l-524 -52q-28 -5 -38 -19q-7 -10 -7 -18q0 -4 1 -7z" />
<glyph unicode="y" horiz-adv-x="1536" d="M0 964q0 -238 168 -400q162 -168 400 -168q212 0 372 136l28 -24v-68l436 -440l132 132l-440 440h-72l-28 20q136 160 136 372q0 234 -164 404q-168 168 -404 168q-234 0 -396 -168q-168 -168 -168 -404zM176 964q0 164 116 280t276 116q164 0 280 -116t116 -280 q0 -160 -116 -276t-280 -116q-160 0 -276 116t-116 276z" />
<glyph unicode="z" horiz-adv-x="1804" d="M0 960q0 143 55.5 273.5t149.5 224.5t222.5 150t268.5 56q183 0 340.5 -94.5t250.5 -257t93 -352.5q0 -175 -92 -328q24 -8 52 -36l408 -408q54 -54 54 -129.5t-54 -126.5q-54 -60 -132 -60t-132 60l-408 408q-27 27 -32 40q-169 -100 -348 -100q-140 0 -268.5 54.5 t-222.5 145.5t-149.5 217t-55.5 263zM184 960q0 -130 69 -243.5t187.5 -181t255.5 -67.5q181 0 336 136h-8l52 44q120 162 120 312q0 137 -68.5 255.5t-184 187.5t-247.5 69q-103 0 -198 -41t-163.5 -109.5t-109.5 -163.5t-41 -198zM344 896h672v128h-672v-128z" />
<glyph unicode="{" horiz-adv-x="1796" d="M0 408q0 -59 20 -124.5t49.5 -120t65.5 -108t65.5 -88.5t52.5 -61l23 -26q8 -8 12 -8h12h4h8l4 4q4 0 4 4q14 14 34.5 36.5t67 82.5t82 120t64 139.5t28.5 149.5q0 123 -86.5 211.5t-209.5 88.5q-125 0 -212.5 -88t-87.5 -212zM60 408q0 99 70.5 169.5t169.5 70.5 t167.5 -70.5t68.5 -169.5q0 -64 -27 -138t-70.5 -140.5t-75 -107.5t-63.5 -78q-32 34 -66 77t-77 108t-70 139t-27 140zM180 408q0 -51 34.5 -85.5t85.5 -34.5q49 0 84.5 35t35.5 85q0 48 -36 84t-84 36q-50 0 -85 -35.5t-35 -84.5zM240 408q0 25 17 42.5t43 17.5 q24 0 42 -18t18 -42t-18 -42t-42 -18q-26 0 -43 17.5t-17 42.5zM388 -96q7 -28 32 -28q12 0 20 10t8 22t-10 20t-22 8t-20 -10t-8 -22zM508 -88q0 -12 10 -20t22 -8q28 7 28 32q0 12 -10 20t-22 8t-20 -10t-8 -22zM628 -76q0 -11 9 -19.5t19 -8.5l32 32q-7 28 -32 28 q-28 -6 -28 -32zM748 -64q0 -9 8 -16.5t20 -7.5l32 32q-3 12 -13.5 20t-22.5 8q-12 -3 -19.5 -13.5t-4.5 -22.5zM812 720q-3 -12 2.5 -22.5t17.5 -13.5l36 20q3 12 -2.5 22.5t-17.5 13.5t-22.5 -2.5t-13.5 -17.5zM828.5 605.5q-2.5 -12.5 3.5 -21.5q5 -16 24 -16q12 0 16 4 q12 6 15 18.5t-3 21.5q-6 12 -19 15t-25 -3q-9 -6 -11.5 -18.5zM864 -44q7 -28 32 -28l4 4q12 0 19.5 10t4.5 22t-13.5 19.5t-22.5 4.5q-11 0 -17.5 -9.5t-6.5 -22.5zM884.5 809.5q-2.5 -12.5 3.5 -21.5q8 -16 24 -16l16 4q26 20 8 44q-14 21 -40 8q-9 -6 -11.5 -18.5z M919 513q5 -11 17 -17q4 -4 12 -4q12 0 28 16q8 34 -16 40q-9 6 -21.5 3t-18.5 -15t-1 -23zM984 -24q3 -9 11 -16.5t17 -7.5q4 0 8 4q12 0 17.5 10t2.5 22t-13.5 19.5t-22.5 4.5t-17.5 -13.5t-2.5 -22.5zM996 840q0 -9 8 -16.5t20 -7.5h8q12 3 17.5 13.5t2.5 22.5 t-13.5 19.5t-22.5 4.5t-17.5 -13.5t-2.5 -22.5zM1032 488q-3 -12 2.5 -22.5t17.5 -13.5h8q21 0 28 20q3 12 -2.5 22.5t-17.5 13.5q-12 6 -22.5 -0.5t-13.5 -19.5zM1100 4q7 -20 28 -20h8q27 13 20 40q-3 12 -13.5 17.5t-22.5 2.5q-27 -13 -20 -40zM1112 864q0 -12 8 -20 t20 -8l32 32q-7 28 -32 28q-28 -7 -28 -32zM1144 456q-3 -12 2.5 -22.5t17.5 -13.5q4 -4 12 -4q22 0 28 24q3 12 -2.5 22.5t-17.5 13.5q-27 7 -40 -20zM1196 1364q0 -70 27.5 -149t66 -142t80 -118.5t69 -85t33.5 -33.5q12 -12 20 -12q12 0 24 12t32.5 34.5t67 83 t82.5 120.5t65 140t29 150q0 124 -87.5 212t-212.5 88q-123 0 -209.5 -88.5t-86.5 -211.5zM1212 44q7 -20 28 -20q2 0 6 2t6 2q12 6 17 17t-1 23q-12 23 -40 16q-11 -6 -15 -18t-1 -22zM1232 868q0 -12 8 -20t20 -8t22 8t10 20q0 14 -9.5 23t-22.5 9q-12 0 -20 -8.5 t-8 -23.5zM1256 1364q0 99 68.5 169.5t167.5 70.5t169.5 -70.5t70.5 -169.5q0 -66 -27 -140t-70 -139t-77 -108t-66 -77q-236 267 -236 464zM1257 394.5q3 -12.5 15 -18.5q2 0 6 -2t6 -2q20 0 28 16q6 12 3 25t-15 19q-28 7 -40 -16q-6 -9 -3 -21.5zM1313 118q-2 -13 7 -22 q4 -8 24 -8q12 0 16 4q12 9 12.5 22t-8.5 22q-6 9 -18.5 9.5t-21.5 -5.5q-9 -9 -11 -22zM1345.5 333.5q-2.5 -12.5 6.5 -21.5q8 -16 24 -16q8 0 16 8q12 6 14.5 18.5t-6.5 21.5q-6 11 -18.5 13t-21.5 -5q-12 -6 -14.5 -18.5zM1352 868q-3 -12 5 -22t23 -10q25 0 32 28 q0 12 -8 22t-20 10q-15 0 -23.5 -8t-8.5 -20zM1372 216q0 -25 28 -32h4q10 0 19 8.5t9 19.5q3 12 -4.5 22t-19.5 10q-29 6 -36 -28zM1372 1364q0 -50 35.5 -85t84.5 -35q51 0 85.5 34.5t34.5 85.5q0 49 -35 84.5t-85 35.5q-48 0 -84 -36t-36 -84zM1432 1364q0 24 18 42 t42 18q26 0 43 -17.5t17 -42.5t-17 -42.5t-43 -17.5q-24 0 -42 18t-18 42z" />
<glyph unicode="|" horiz-adv-x="1440" d="M8 588q0 -146 56.5 -278.5t152.5 -228.5t228.5 -152.5t278.5 -56.5t278.5 56.5t228.5 152.5t152.5 228.5t56.5 278.5q0 267 -176 468l60 56l36 -40q16 -8 20 -8q8 0 24 8l28 32q20 20 0 40l-120 120q-20 20 -40 0l-32 -28q-9 -9 -9 -22t9 -22l40 -36l-56 -56 q-157 151 -368 192q76 57 76 160q0 87 -60.5 149.5t-147.5 62.5t-147.5 -62.5t-60.5 -149.5q0 -103 76 -160q-218 -42 -372 -196l-60 60l40 36q9 9 9 22t-9 22l-28 28q-9 9 -22 9t-22 -9l-120 -120q-20 -20 0 -40l32 -32q8 -8 20 -8t20 8l40 40l60 -60q-82 -94 -127 -214 t-45 -250zM68 588q0 133 52.5 254t140.5 209t209 140.5t254 52.5q139 0 263.5 -55t216.5 -153q176 -196 176 -448q0 -179 -87.5 -331t-238.5 -240.5t-330 -88.5q-177 0 -328 88.5t-239.5 240.5t-88.5 331zM128 588q0 -122 47.5 -233.5t127.5 -191.5t190 -127.5t231 -47.5 q122 0 233.5 47.5t191.5 127.5t127.5 191.5t47.5 233.5q0 121 -47.5 231t-127.5 190t-191.5 127.5t-233.5 47.5q-161 0 -298.5 -80t-217.5 -217.5t-80 -298.5zM188 588q0 109 42.5 208.5t114 171t171 114t208.5 42.5q146 0 270 -71.5t197 -195.5t73 -269q0 -109 -43 -209 t-115.5 -172.5t-172.5 -115.5t-209 -43q-145 0 -269 73t-195.5 197t-71.5 270zM248 588q0 -8 8 -24q8 -8 20 -8q8 0 24 8q8 16 8 24q0 12 -8 20q-9 9 -22 9t-22 -9q-8 -8 -8 -20zM308 364q0 -8 8 -24q8 -8 20 -8q8 0 24 8q8 16 8 24q0 12 -8 20q-9 9 -22 9t-22 -9 q-8 -8 -8 -20zM308 812q0 -8 8 -24q8 -8 20 -8q8 0 24 8q8 16 8 24q0 12 -8 20q-9 9 -22 9t-22 -9q-8 -8 -8 -20zM472 200q0 -8 8 -24q8 -8 20 -8q8 0 24 8q8 16 8 24q0 12 -8 20q-9 9 -22 9t-22 -9q-8 -8 -8 -20zM472 976q0 -8 8 -24q8 -8 20 -8q8 0 24 8q8 16 8 24 q0 12 -8 20q-9 9 -22 9t-22 -9q-8 -8 -8 -20zM576 1452q0 63 44 107.5t104 44.5q63 0 107.5 -44.5t44.5 -107.5q0 -44 -26 -80.5t-66 -55.5v108q0 12 -8 20t-20 8h-60q-12 0 -22 -8t-10 -20v-108q-40 18 -64 55t-24 81zM636 556q0 -27 16.5 -51t43.5 -33v-36q0 -12 8 -20 t20 -8t22 8t10 20v36q25 9 42.5 33.5t17.5 50.5q0 29 -17.5 52t-42.5 32v276q0 12 -10 20t-22 8t-20 -8t-8 -20v-276q-27 -9 -43.5 -31.5t-16.5 -52.5zM696 140q0 -8 8 -24q8 -8 20 -8q8 0 24 8q8 16 8 24q0 12 -8 20q-9 9 -22 9t-22 -9q-8 -8 -8 -20zM696 1036q0 -8 8 -24 q8 -8 20 -8q8 0 24 8q8 16 8 24q0 12 -8 20q-9 9 -22 9t-22 -9q-8 -8 -8 -20zM920 200q0 -8 8 -24q8 -8 20 -8q8 0 24 8q8 16 8 24q0 12 -8 20q-9 9 -22 9t-22 -9q-8 -8 -8 -20zM920 976q0 -8 8 -24q8 -8 20 -8q8 0 24 8q8 16 8 24q0 12 -8 20q-9 9 -22 9t-22 -9 q-8 -8 -8 -20zM1084 364q0 -8 8 -24q8 -8 20 -8q8 0 24 8q8 16 8 24q0 12 -8 20q-9 9 -22 9t-22 -9q-8 -8 -8 -20zM1084 812q0 -8 8 -24q8 -8 20 -8q8 0 24 8q8 16 8 24q0 12 -8 20q-9 9 -22 9t-22 -9q-8 -8 -8 -20zM1144 588q0 -8 8 -24q8 -8 20 -8q8 0 24 8q8 16 8 24 q0 12 -8 20q-9 9 -22 9t-22 -9q-8 -8 -8 -20z" />
<glyph unicode="}" horiz-adv-x="1700" d="M3.5 70q-8.5 -28 0.5 -58q6 -27 26 -46.5t50 -25.5q306 -68 688 -68q26 0 80 2t80 2q12 0 20 10t8 22q0 14 -9.5 23t-22.5 9q-52 -4 -156 -4q-356 0 -676 64q-22 6 -28 28q-7 27 12 40q134 117 376 160q36 -54 123.5 -101t196.5 -47q92 0 176 36q11 6 15 18t1 22 q-6 12 -19 17t-25 -1q-70 -32 -148 -32q-94 0 -169.5 40.5t-98.5 79.5l12 12q17 28 24 84q123 -100 188 -100q4 0 9 2t7 2q8 8 32 8q16 0 24 -4q27 -7 40 20q3 13 -3.5 25t-20.5 15q-24 8 -40 8q-28 0 -52 -12q-69 14 -196 128q-13 23 -32.5 64t-42.5 108t-25 112 q0 17 -16 28q-30 13 -43 62t-13 102q0 23 28 44l8 8q14 14 8 32q-4 10 -11 24t-9 20q0 12 8.5 18t43.5 22q7 4 22.5 10.5t21.5 9.5q7 5 31.5 20t36.5 24q36 24 44 28q-28 -79 12 -152q8 -16 20 -16q20 0 28 4q37 30 72.5 46t74 17.5t62 -1t67.5 -10.5q43 -8 66.5 -11 t61.5 -1.5t72 12.5q23 8 40 -4q12 -12 12 -28q-2 0 -6 -2t-6 -2q-24 -8 -24 -32q-5 -15 8 -28q0 -2 1 -3t3.5 -2.5t3.5 -2.5q28 -28 28 -44q0 -53 -16 -101.5t-44 -62.5q-10 -10 -16 -28q0 -71 -72 -228q-8 -34 16 -40q12 -5 25 -1.5t19 13.5q69 167 76 236q32 25 51 75 t22 80.5t3 56.5q0 32 -24 64v8q2 2 4 6t4 6q22 54 28 96q15 135 -56.5 245t-203.5 155q-8 4 -72 20q-250 63 -320 128q-11 13 -24.5 15t-15.5 -3q-19 -8 -26 -30t-10 -70q0 -60 -4 -72q-308 -139 -236 -416q4 -16 20 -40q1 -3 8 -13t12 -19q-40 -40 -40 -80q0 -27 3 -57.5 t22 -81t51 -73.5q3 -31 13.5 -70t25 -76t26.5 -65t25 -55t14 -30q10 -32 6.5 -59.5t-11.5 -45t-15 -19.5q-258 -42 -416 -176q-24 -18 -32.5 -46zM344 1116q-18 108 34.5 186t181.5 138q20 7 26 31t9 74v5t0.5 5t0.5 5v24q39 -28 103.5 -53.5t104.5 -37t108 -29.5 q9 -1 68 -16q46 -17 86 -45.5t73 -68.5t48.5 -95.5t8.5 -118.5q-19 13 -44.5 16.5t-47.5 -4.5q-63 -22 -168 0q-55 11 -90.5 14t-92.5 -7.5t-109 -42.5q-17 78 40 120q15 15 8 36q-7 20 -32 20q-73 -9 -152 -64q-20 -16 -60 -40l-44 -20q-40 -16 -60 -32zM504 900 q0 -14 9.5 -23t22.5 -9h44v-8q0 -12 8.5 -20t23.5 -8h4q12 0 22 8t10 20v8h40q13 0 22.5 9t9.5 23q0 12 -10 22t-22 10h-152q-12 0 -22 -10t-10 -22zM679 515q5 -13 17 -19q28 -12 72 -12q21 0 39 3t27 6l10 3q12 6 17 19t-1 25q-15 22 -40 16q-16 -8 -52 -8q-14 0 -26 2 t-17 4l-5 2q-34 8 -40 -16q-6 -12 -1 -25zM820 900q0 -14 9.5 -23t22.5 -9h40v-8q0 -12 8 -20t20 -8h8q12 0 22 8t10 20q0 2 -2 4t-2 4h48q13 0 22.5 9t9.5 23q0 12 -10 22t-22 10h-152q-12 0 -22 -10t-10 -22zM896 360q-14 -50 24 -76l164 -128l-60 -192q-6 -36 12 -60 q15 -24 43 -29t49 13l168 116l172 -116q16 -16 36 -16q37 0 56 32q18 24 12 60l-64 192l168 128q18 12 23.5 33.5t-3.5 42.5q-13 44 -64 44h-204l-64 200q-19 44 -68 44q-45 0 -64 -44l-64 -200h-208q-45 0 -64 -44zM956 340l4 4h228q25 0 32 20l72 220q0 4 4 4l8 -4 l72 -220q7 -20 32 -20h224q4 0 8 -4l-4 -8l-180 -140q-19 -12 -12 -32l68 -220q-4 -4 -8 -4h-4l-184 128q-16 8 -20 8q-8 0 -16 -8l-188 -128q-4 0 -8 8l68 216q7 20 -12 32l-180 140q-4 0 -4 8z" />
<glyph unicode="~" horiz-adv-x="1336" d="M0 768q0 -214 132 -400l8 -8q4 -4 4 -12l188 176q-14 14 -36 64q-40 86 -40 180q0 156 100 268q98 116 240 140v-232l236 204l176 156l-408 360v-228q-85 -8 -148 -32q-191 -64 -320 -236q-126 -168 -132 -384v-16zM328 232l408 -360v228q66 6 156 36q191 64 320 236 q118 165 124 380v16q0 226 -132 400q-4 8 -12 16l-188 -172q4 -4 36 -68q40 -86 40 -176q0 -154 -96 -268q-105 -117 -248 -140v232z" />
<glyph unicode="&#xa1;" d="M0 768q0 179 70 344t188.5 286t285.5 193.5t352 72.5t352 -72.5t285.5 -193.5t188.5 -286t70 -344q0 -186 -69.5 -352t-189 -285.5t-285.5 -189t-352 -69.5t-352 69.5t-285.5 189t-189 285.5t-69.5 352zM184 768q0 -152 56.5 -288.5t152 -234.5t227 -155.5t276.5 -57.5 q194 0 363 97t271 267.5t102 371.5q0 144 -60.5 276t-160.5 227.5t-235 152t-280 56.5q-144 0 -276 -56.5t-227.5 -152t-152 -227.5t-56.5 -276zM368 700q85 117 223.5 184.5t280.5 67.5q156 0 288.5 -66t219.5 -186q15 -36 15 -55t-15 -37q-18 -18 -24 -21t-24 -3 q-44 0 -68 24q-49 98 -157.5 151t-234.5 53q-108 0 -215 -53t-173 -151q-18 -18 -38.5 -18t-53.5 18q-17 17 -20.5 34t-3.5 58zM484 1180q0 23 18 47.5t50 24.5h208q30 0 49 -25t19 -47q0 -68 -68 -68h-208q-68 0 -68 68zM964 1180q0 22 19 47t49 25h208q32 0 50 -24.5 t18 -47.5q0 -68 -68 -68h-208q-68 0 -68 68z" />
<glyph unicode="&#xa2;" d="M0 768q0 179 70 344t188.5 286t285.5 193.5t352 72.5t352 -72.5t285.5 -193.5t188.5 -286t70 -344q0 -186 -69.5 -352t-189 -285.5t-285.5 -189t-352 -69.5t-352 69.5t-285.5 189t-189 285.5t-69.5 352zM184 768q0 -152 56.5 -288.5t152 -234.5t227 -155.5t276.5 -57.5 q194 0 363 97t271 267.5t102 371.5q0 144 -60.5 276t-160.5 227.5t-235 152t-280 56.5q-144 0 -276 -56.5t-227.5 -152t-152 -227.5t-56.5 -276zM344 676q0 68 68 68q18 19 45 3.5t27 -47.5q15 -153 133.5 -248.5t278.5 -95.5t278.5 95.5t133.5 248.5q0 32 27 47.5t45 -3.5 q68 0 68 -68q-36 -206 -190 -333t-362 -127t-362 127t-190 333zM596 976q0 33 29.5 62.5t62.5 29.5q37 0 76.5 -30t39.5 -62q0 -50 -38 -83t-78 -33q-35 0 -63.5 32.5t-28.5 83.5zM1012 976q0 34 28.5 63t63.5 29t73.5 -30t38.5 -62q0 -50 -37 -83t-75 -33t-65 32t-27 84z " />
<glyph unicode="&#xa3;" d="M0 768q0 179 70 344t188.5 286t285.5 193.5t352 72.5t352 -72.5t285.5 -193.5t188.5 -286t70 -344q0 -186 -69.5 -352t-189 -285.5t-285.5 -189t-352 -69.5t-352 69.5t-285.5 189t-189 285.5t-69.5 352zM184 768q0 -152 56.5 -288.5t152 -234.5t227 -155.5t276.5 -57.5 q194 0 363 97t271 267.5t102 371.5q0 144 -60.5 276t-160.5 227.5t-235 152t-280 56.5q-144 0 -276 -56.5t-227.5 -152t-152 -227.5t-56.5 -276zM596 860q0 35 30 75.5t62 40.5q35 0 75.5 -41t40.5 -75t-39 -63t-77 -29q-34 0 -63 28.5t-29 63.5zM620 424q0 22 19 45t49 23 h416q30 0 49 -23t19 -45q0 -68 -68 -68h-416q-68 0 -68 68zM1012 860q0 36 29 76t63 40q33 0 72.5 -41.5t39.5 -74.5q0 -34 -38.5 -63t-73.5 -29q-36 0 -64 28t-28 64z" />
<glyph unicode="&#xa4;" d="M0 768q0 179 70 344t188.5 286t285.5 193.5t352 72.5t352 -72.5t285.5 -193.5t188.5 -286t70 -344q0 -186 -69.5 -352t-189 -285.5t-285.5 -189t-352 -69.5t-352 69.5t-285.5 189t-189 285.5t-69.5 352zM184 768q0 -152 56.5 -288.5t152 -234.5t227 -155.5t276.5 -57.5 q194 0 363 97t271 267.5t102 371.5q0 144 -60.5 276t-160.5 227.5t-235 152t-280 56.5q-144 0 -276 -56.5t-227.5 -152t-152 -227.5t-56.5 -276zM552 584q0 14 2 25t8.5 22.5t8.5 15t13 16.5l12 13q170 35 325.5 -52.5t226.5 -247.5q9 -16 10.5 -29t-5 -25t-12 -19 t-17.5 -19h-20q-22 0 -32 1t-21 5t-15 14t-4 28q-52 105 -164.5 164t-247.5 44q-18 -19 -43 -3.5t-25 47.5zM620 1088q20 77 55 117t85 23q35 0 60 -59t8 -125q-20 -75 -54.5 -114.5t-85.5 -25.5q-35 0 -60 59t-8 125zM964 1044q-17 66 8 125t60 59q50 17 85 -23t55 -117 q17 -66 -8 -125t-60 -59q-51 -14 -85.5 25.5t-54.5 114.5z" />
<glyph unicode="&#xa5;" d="M0 768q0 179 70 344t188.5 286t285.5 193.5t352 72.5t352 -72.5t285.5 -193.5t188.5 -286t70 -344q0 -186 -69.5 -352t-189 -285.5t-285.5 -189t-352 -69.5t-352 69.5t-285.5 189t-189 285.5t-69.5 352zM184 768q0 -152 56.5 -288.5t152 -234.5t227 -155.5t276.5 -57.5 q194 0 363 97t271 267.5t102 371.5q0 144 -60.5 276t-160.5 227.5t-235 152t-280 56.5q-144 0 -276 -56.5t-227.5 -152t-152 -227.5t-56.5 -276zM421 515.5q5 30.5 39 44.5q11 13 29 10t33.5 -10.5t29.5 -19.5q50 -85 145 -134.5t199 -49.5t199 49.5t145 134.5 q14 12 29.5 19.5t33.5 10.5t29 -10q34 -14 39 -44.5t-15 -47.5q-68 -118 -193.5 -185t-266.5 -67t-266.5 67t-193.5 185q-20 17 -15 47.5zM448 1035q0 44 36 77q15 18 59 18t77 -18l48 -44l20 44q36 18 79 18t61 -18q33 -33 33 -77t-33 -59q-17 -25 -27 -37.5t-19 -20.5 t-39.5 -41t-74.5 -85q-33 29 -65 56t-45 38.5t-25 21.5t-16.5 16.5t-8 11t-10.5 17t-14 23.5q-36 15 -36 59zM931 1035q0 44 33 77q18 18 61 18t79 -18l44 -44l24 44q33 18 77 18t59 -18q36 -33 36 -77t-36 -59q-16 -26 -25 -38t-18 -20t-40.5 -41t-76.5 -85 q-24 21 -48.5 42t-37 31.5t-26.5 23t-18.5 17t-12 11.5t-9 9t-6 8.5t-6.5 10t-8 13t-12 18.5q-33 15 -33 59z" />
<glyph unicode="&#xa9;" d="M0 768q0 -374 264 -632q258 -264 632 -264q372 0 636 264q260 260 260 632q0 370 -260 636q-266 260 -636 260q-372 0 -632 -260q-264 -264 -264 -636zM132 704l252 32v64l-252 32q24 284 220 480t480 220l32 -252h64l32 252q284 -24 480 -220t220 -480l-252 -32v-64 l252 -32q-24 -284 -220 -480t-480 -220l-32 252h-64l-32 -252q-284 24 -480 220t-220 480z" />
<glyph unicode="&#xab;" d="M0 20q0 -12 8 -20t20 -8h1196q12 0 22 8t10 20v1496q0 12 -10 20t-22 8h-1196q-12 0 -20 -8t-8 -20v-1496zM60 52v60h1136v-60h-1136zM60 172v60h924h12q2 2 6 4t6 4l188 188v-256h-1136zM60 292v1012h1136v-776h-212q-12 0 -20 -8t-8 -20v-208h-896zM60 1364v120h1136 v-120h-1136zM239 498.5q0 -12.5 9 -18.5l60 -60q6 -12 20 -12q4 0 4 4q12 0 24 12l88 148q13 25 -12 44q-9 6 -21.5 3t-18.5 -15l-68 -116l-36 32q-6 9 -18.5 9t-21.5 -9t-9 -21.5zM239 798q0 -13 9 -22l60 -60q8 -8 24 -8q8 0 24 16l88 148q14 27 -12 40q-9 6 -21.5 3.5 t-18.5 -11.5l-68 -116l-36 32q-6 9 -18.5 9t-21.5 -9t-9 -22zM248 1076l60 -60q4 -8 24 -8q12 0 24 12l88 152q6 9 3 21.5t-15 18.5q-9 6 -21.5 3t-18.5 -15l-68 -116l-36 32q-6 9 -18.5 9t-21.5 -9q-20 -20 0 -40zM536 500q0 -12 10 -22t22 -10h240q12 0 20 10t8 22t-8 20 t-20 8h-240q-12 0 -22 -8t-10 -20zM536 796q0 -12 10 -20t22 -8h416q15 0 23.5 8t8.5 20q0 32 -32 32h-416q-13 0 -22.5 -9t-9.5 -23zM536 1096q0 -12 10 -20t22 -8h416q15 0 23.5 8t8.5 20q0 13 -9 22.5t-23 9.5h-416q-12 0 -22 -10t-10 -22zM1016 332v136h136zM1372 260 q0 -2 2 -6t2 -6l92 -180q5 -16 24 -16v-32q0 -12 10 -20t22 -8t20 8t8 20v32q23 0 28 16l88 180q4 4 4 12v1104h60v-388q0 -12 8.5 -20t23.5 -8q12 0 20 8t8 20v420q0 12 -8 20t-20 8h-92v32q0 36 -26 62t-62 26h-120q-36 0 -64 -26t-28 -62v-1196zM1432 292v776h180v-776 h-180zM1432 1128v328q0 12 10 20t22 8h120q12 0 20 -8t8 -20v-328h-180zM1452 232h144l-60 -120h-24z" />
<glyph unicode="&#xae;" horiz-adv-x="1536" d="M0 692q0 -310 228 -532q224 -224 540 -224q314 0 544 224q224 224 224 532q0 288 -200 512l-8 8h72l36 -32l88 92l-164 160l-92 -88l36 -36v-76l-20 20q-189 172 -452 196v152h-128v-152h-8q-270 -18 -464 -212v72l36 36l-92 88l-164 -160l92 -92l32 32h72l-4 -4 q-204 -216 -204 -516zM76 692q0 280 204 484q206 200 488 200q286 0 492 -200q200 -200 200 -484t-200 -484q-206 -200 -492 -200q-288 0 -488 200q-204 198 -204 484zM640 640q0 -90 96 -120l32 -72l32 72q96 30 96 120q0 94 -96 124v516h-64v-516q-33 -11 -64 -48 q-32 -38 -32 -76z" />
<glyph unicode="&#xb0;" horiz-adv-x="1536" d="M0 224q0 -88 68 -156t156 -68q92 0 160 68q64 64 64 156q0 96 -64 160t-160 64q-92 0 -156 -64q-68 -68 -68 -160zM0 704q320 0 512 -192t192 -512h320q0 418 -300 724q-306 300 -724 300v-320zM0 1216q512 0 864 -352t352 -864h320q0 640 -448 1088t-1088 448v-320z" />
<glyph unicode="&#xb1;" horiz-adv-x="1536" d="M0 1024l512 -384v256h768v-512h-992q-32 0 -32 -32v-192q0 -32 32 -32h1216q32 0 32 32v960q0 32 -32 32h-992v256z" />
<glyph unicode="&#xb5;" horiz-adv-x="1536" d="M0 944l52 -736q7 -47 20 -60q20 -20 64 -20h1268q34 0 52 12q19 13 24 28l8 40l48 744q5 36 -8 56q-16 16 -64 16h-1392q-78 0 -72 -80zM80 1088h1376l-8 132q0 60 -60 60h-572q-64 0 -96 8q-26 7 -68 60q-44 50 -56 56q-8 4 -92 4h-300h-56q-18 -6 -28 -16 q-10 -15 -16 -52q-24 -204 -24 -252z" />
<glyph unicode="&#xb6;" horiz-adv-x="1536" d="M0 0v1408h384v128h64v-128h640v128h64v-128h384v-1408h-1536zM64 64h1408v960h-1408v-960zM384 1216h64v128h-64v-128zM1088 1216h64v128h-64v-128z" />
<glyph unicode="&#xbb;" d="M0 704l512 -192l64 -640l320 448l448 -448l448 1792zM308 724l1288 692l-320 -1292l-380 388l512 704l-768 -616z" />
<glyph unicode="&#xbc;" horiz-adv-x="1800" d="M16 1084l852 -816q12 -12 32 -12t32 12l852 816q32 32 0 64l-124 120q-32 32 -64 0l-696 -668l-696 668q-32 32 -64 0l-124 -120q-32 -32 0 -64z" />
<glyph unicode="&#xbd;" horiz-adv-x="1028" d="M0 768q0 -20 12 -32l816 -852q32 -32 64 0l120 124q32 32 0 64l-668 696l668 696q32 32 0 64l-120 120q-37 31 -64 4l-816 -852q-12 -12 -12 -32z" />
<glyph unicode="&#xbe;" horiz-adv-x="1536" d="M0 192q147 253 348 332q193 76 548 76v-368l640 536l-640 576v-320q-212 0 -376 -88q-164 -85 -260 -200q-90 -114 -156 -252q-69 -151 -80 -200q-17 -56 -24 -92z" />
<glyph unicode="&#xbf;" horiz-adv-x="1664" d="M0 476q0 -124 88 -200q90 -84 216 -84h612q51 0 84 -20q8 -5 46.5 -31.5t123 -85t174.5 -119.5v256h16q126 0 216 84q88 76 88 200v836q0 122 -88 204q-90 84 -216 84h-1056q-126 0 -216 -84q-88 -82 -88 -204v-836z" />
<glyph unicode="&#xc0;" horiz-adv-x="1664" d="M0 476q0 -124 88 -200q90 -84 216 -84h612q51 0 84 -20q8 -5 46.5 -31.5t123 -85t174.5 -119.5v256h16q126 0 216 84q88 76 88 200v836q0 122 -88 204q-90 84 -216 84h-1056q-126 0 -216 -84q-88 -82 -88 -204v-836zM320 896q0 56 36 92t92 36t92 -36t36 -92t-36 -92 t-92 -36t-92 36t-36 92zM704 896q0 56 36 92t92 36t92 -36t36 -92t-36 -92t-92 -36t-92 36t-36 92zM1088 896q0 56 36 92t92 36t92 -36t36 -92t-36 -92t-92 -36t-92 36t-36 92z" />
<glyph unicode="&#xc1;" d="M0 728q0 -12 8 -76q0 -4 4 -8v-8v-4l4 -8v-4v-12q4 -4 4 -12q60 -258 272 -428q210 -168 476 -168q249 0 468 164l28 24l-172 184l-24 -20q-132 -96 -300 -96q-208 0 -360 152t-152 360q0 212 152 364q148 148 360 148q200 0 352 -128q150 -126 168 -320h-296l416 -448 l384 448h-260q-12 166 -92 308q-174 317 -532 384h-16q-60 12 -124 12q-266 0 -476 -168q-212 -170 -272 -428q0 -4 -4 -8v-24l-4 -4v-4v-8q-4 -4 -4 -8q-8 -64 -8 -76v-80z" />
<glyph unicode="&#xc2;" d="M0 512q0 -202 88 -384h144q-98 166 -104 352h128v64h-128q6 166 88 324l112 -60l32 52l-112 64q49 77 104 132q54 54 132 104l64 -108l56 32l-64 108q158 82 324 88v-128h64v128q166 -6 324 -88l-64 -108l56 -32l64 108q78 -50 132 -104t104 -132l-108 -64l32 -52l108 60 q82 -158 88 -324h-128v-64h128q-6 -185 -104 -352h144q88 182 88 384q0 370 -260 636q-266 260 -636 260q-372 0 -632 -260q-264 -264 -264 -636zM768 384q0 -56 36 -92t92 -36t92 36t36 92v16l256 336l-32 32l-336 -256h-16q-56 0 -92 -36t-36 -92z" />
<glyph unicode="&#xc3;" horiz-adv-x="1796" d="M0 -128l468 128l-340 340zM160 396l364 -364l1000 1004l-360 360zM1208 1444l364 -364l180 180q38 38 44 92q0 52 -36 88l-192 192q-36 36 -88 36q-54 -6 -92 -44z" />
<glyph unicode="&#xc4;" horiz-adv-x="1744" d="M32 572q-24 -211 66.5 -379t269.5 -237q222 -84 440 -84q342 0 588 204q204 165 292 417t40 531q-48 272 -300 428q-124 78 -288 123.5t-322.5 53.5t-300.5 -5t-249 -44q-36 -9 -54 -42t-6 -66q9 -35 40 -52t68 -8q91 27 216.5 38t266 4.5t285.5 -45t252 -105.5 q183 -112 220 -308q39 -234 -32 -441.5t-236 -342.5q-168 -138 -392.5 -161.5t-467.5 69.5q-69 27 -119 77t-72.5 107.5t-32.5 123t0 124.5q12 101 58 197t123.5 181t197 145.5t265.5 80.5q36 6 57 35t15 65q-3 36 -31.5 57t-64.5 15q-144 -20 -268.5 -73.5t-214.5 -127.5 t-157 -166.5t-104 -190.5t-48 -198z" />
<glyph unicode="&#xc7;" d="M0 768q0 -374 264 -632q258 -264 632 -264q372 0 636 264q260 260 260 632q0 370 -260 636q-266 260 -636 260q-372 0 -632 -260q-264 -264 -264 -636zM432 672q0 12 4 16l104 104q12 12 16 12q12 0 24 -12l180 -172l444 572q4 4 12 4q12 0 16 -4l124 -96q4 -4 4 -16 q0 -8 -4 -12l-556 -716q-12 -12 -20 -12t-20 12l-316 304l-8 4q-4 4 -4 12z" />
<glyph unicode="&#xc8;" horiz-adv-x="1664" d="M0 768q0 -344 244 -588t588 -244t588 244t244 588t-244 588t-588 244t-588 -244t-244 -588zM448 700v68h384v512h68v-580h-452z" />
<glyph unicode="&#xc9;" d="M0 860q5 -105 40 -224q32 -88 52 -132q25 -51 72 -124q85 -115 200 -200q130 -89 260 -132q140 -50 300 -44q154 6 292 60q142 57 248 144q20 16 100 104q41 48 80 120l52 112q5 12 9 24t7 22.5t4 13.5q13 38 16 64q11 37 4 104q0 -12 -4 -20q-4 -12 -4 -24 q-4 -28 -16 -52q-4 -12 -44 -100q-19 -44 -68 -124q-27 -47 -40 -60q-20 -28 -48 -56q-48 -54 -108 -96q-63 -47 -128 -76q-150 -69 -292 -80q-166 -12 -304 28q-141 43 -260 132q-103 74 -192 208q-83 121 -112 268l-8 40q-4 16 -4 36q-4 12 -4 64q0 80 8 136 q24 147 96 280q70 122 168 208q106 94 228 140q84 32 148 44q64 8 80 8q8 0 16 4h20h16q130 0 256 -36q147 -49 248 -132q116 -97 188 -224q62 -106 88 -232q4 -8 4 -28q0 -24 4 -28q6 -37 28 -44q62 -37 92 28q4 8 4 36q0 14 -24 104q-24 92 -40 128q-52 115 -144 232 q-102 120 -228 192q-120 71 -272 104q-85 16 -152 16q-88 0 -116 -4q-146 -12 -296 -84q-133 -57 -220 -144q-99 -93 -168 -200q-82 -135 -112 -272q-26 -128 -20 -232z" />
<glyph unicode="&#xcb;" horiz-adv-x="768" d="M0 96q0 -40 28 -68t68 -28h576q40 0 68 28t28 68v1344q0 40 -28 68t-68 28h-576q-40 0 -68 -28t-28 -68v-1344zM64 256v1024h640v-1024h-640zM256 1392q0 16 16 16t16 -16t-16 -16t-16 16zM320 128q0 64 64 64t64 -64t-64 -64t-64 64zM320 1392q0 16 16 16h96 q16 0 16 -16t-16 -16h-96q-16 0 -16 16z" />
<glyph unicode="&#xcc;" horiz-adv-x="1664" d="M0 768q0 -344 244 -588t588 -244t588 244t244 588t-244 588t-588 244t-588 -244t-244 -588zM68 736h364q6 -206 44 -352q-102 -30 -236 -100q-160 189 -172 452zM68 800q12 263 172 452q132 -73 236 -100q-38 -146 -44 -352h-364zM288 232q78 42 204 88q62 -198 160 -296 q-204 48 -364 208zM288 1304q147 158 364 208q-97 -103 -156 -292q-139 46 -208 84zM496 736h304v-300q-133 -6 -260 -36q-37 134 -44 336zM496 800q7 202 44 336q112 -26 260 -32v-304h-304zM560 336q106 26 240 32v-360q-145 36 -240 328zM560 1200q95 292 240 328v-360 q-134 6 -240 32zM864 8v360q141 -6 240 -32q-44 -143 -104 -220q-65 -89 -136 -108zM864 436v300h300q-7 -202 -44 -336q-125 30 -256 36zM864 800v304q145 6 256 32q37 -134 44 -336h-300zM864 1168v360q69 -19 136 -104q61 -84 104 -224q-99 -26 -240 -32zM1012 24 q89 95 156 296q118 -37 208 -88q-160 -160 -364 -208zM1012 1512q204 -48 364 -208q-90 -51 -208 -88q-67 201 -156 296zM1184 384q42 156 48 352h364q-12 -263 -172 -452q-150 75 -240 100zM1188 1152q102 30 236 100q160 -189 172 -452h-364q-6 206 -44 352z" />
<glyph unicode="&#xcd;" horiz-adv-x="1664" d="M0 1068q0 -208 136 -344l696 -724l696 724q136 136 136 344q0 204 -136 340q-122 128 -292 128t-292 -128l-112 -112l-108 112q-122 128 -292 128q-174 0 -296 -128q-136 -136 -136 -340z" />
<glyph unicode="&#xd0;" horiz-adv-x="1280" d="M0 316h1280v128h-1280v-128zM0 700h1280v128h-1280v-128zM0 1084h1280v128h-1280v-128z" />
<glyph unicode="&#xd1;" d="M0 556q0 -148 108 -256q102 -108 252 -108h408v320h-192l320 336l320 -336h-192v-320h440q138 0 232 100q96 96 96 236q0 134 -96 236q-96 96 -232 96v12q0 198 -132 336q-136 136 -328 136q-134 0 -248 -72q-121 -83 -172 -196q-50 28 -104 28q-84 0 -152 -56 q-66 -60 -84 -148q-109 -36 -176 -128q-68 -99 -68 -216z" />
<glyph unicode="&#xd7;" horiz-adv-x="1152" d="M0 96q0 -40 28 -68t64 -28h972q36 0 64 28q24 30 24 68v980q0 8 -8 40l-12 24l-336 368q-16 16 -28 20q-16 8 -36 8h-640q-36 0 -64 -28t-28 -68v-1344zM192 268v40q0 12 12 12h620q8 0 8 -12v-40q0 -12 -8 -12h-620q-12 0 -12 12zM192 524v40q0 12 12 12h492q8 0 8 -12 v-40q0 -12 -8 -12h-492q-12 0 -12 12zM192 780v40q0 12 12 12h748q8 0 8 -12v-40q0 -12 -8 -12h-748q-12 0 -12 12zM192 1036v40q0 12 12 12h284q12 0 12 -12v-40q0 -12 -12 -12h-284q-12 0 -12 12zM728 1128v264l284 -312h-240q-44 0 -44 48z" />
<glyph unicode="&#xd9;" d="M0 480q0 -33 28 -68q28 -28 68 -28h704q12 0 22 10t10 22t-10 22t-22 10h-688l488 468l76 -76q70 -64 156 -64t156 64l612 588v-500q0 -12 10 -22t22 -10t22 10t10 22v512q0 33 -28 68q-28 28 -68 28h-1472q-40 0 -68 -28q-28 -35 -28 -68v-960zM64 492v936l488 -468z M112 1472h1440l-608 -584q-48 -45 -112 -45t-112 45zM960 416q0 -171 122.5 -293.5t293.5 -122.5t293.5 122.5t122.5 293.5t-122.5 293.5t-293.5 122.5t-293.5 -122.5t-122.5 -293.5zM1024 416q0 147 102.5 249.5t249.5 102.5t249.5 -102.5t102.5 -249.5t-102.5 -249.5 t-249.5 -102.5t-249.5 102.5t-102.5 249.5zM1152 416q0 -12 10 -22t22 -10h384q12 0 22 10t10 22t-10 22t-22 10h-384q-12 0 -22 -10t-10 -22z" />
<glyph unicode="&#xda;" d="M0 -100q0 -12 8 -20t20 -8h1736q12 0 20 8t8 20q0 15 -8 23.5t-20 8.5h-212v240q78 12 129 71t51 137q0 37 -14 115.5t-38.5 169t-66.5 157t-89 66.5t-89 -66.5t-66.5 -157t-38.5 -169t-14 -115.5q0 -78 50.5 -137t125.5 -71v-240h-236v1464q0 12 -10 20t-22 8h-148v92 q0 12 -10 20t-22 8h-356v92q0 12 -10 20t-22 8t-20 -8t-8 -20v-92h-360q-12 0 -20 -8t-8 -20v-92h-152q-12 0 -20 -8t-8 -20v-1464h-32q-12 0 -20 -8.5t-8 -23.5zM120 -68v1432h1076v-1432h-60v1344q0 12 -10 20t-22 8h-896q-12 0 -20 -8t-8 -20v-1344h-60zM240 -68v416h180 v-416h-180zM240 408v120h120v-120h-120zM240 588v120h120v-120h-120zM240 768v120h120v-120h-120zM240 948v120h120v-120h-120zM240 1128v116h120v-116h-120zM300 1424v60h716v-60h-716zM420 408v120h116v-120h-116zM420 588v120h116v-120h-116zM420 768v120h116v-120h-116z M420 948v120h116v-120h-116zM420 1128v116h116v-116h-116zM476 -68v416h152v-416h-152zM596 408v120h120v-120h-120zM596 588v120h120v-120h-120zM596 768v120h120v-120h-120zM596 948v120h120v-120h-120zM596 1128v116h120v-116h-120zM688 -68v416h148v-416h-148zM776 408 v120h120v-120h-120zM776 588v120h120v-120h-120zM776 768v120h120v-120h-120zM776 948v120h120v-120h-120zM776 1128v116h120v-116h-120zM896 -68v416h180v-416h-180zM956 408v120h120v-120h-120zM956 588v120h120v-120h-120zM956 768v120h120v-120h-120zM956 948v120h120 v-120h-120zM956 1128v116h120v-116h-120zM1372 380q0 83 29 191.5t65 182.5t58 74t57 -74t63 -182.5t28 -191.5q0 -62 -43.5 -105t-104.5 -43q-63 0 -107.5 42.5t-44.5 105.5zM1412 372q5 -35 23.5 -53.5t40.5 -22.5h8q25 0 32 20q3 12 -4.5 22.5t-19.5 13.5q-9 3 -13 8 t-7 20q-8 30 -32 24q-12 0 -20 -10t-8 -22zM1464 624q3 -12 13.5 -17.5t22.5 -2.5q20 0 28 -16q12 -12 24 -12t20 4q9 6 11.5 18.5t-3.5 21.5q-35 52 -96 40q-12 -3 -17.5 -13.5t-2.5 -22.5z" />
<glyph unicode="&#xdb;" horiz-adv-x="1596" d="M0 36q0 -66 49.5 -115t118.5 -49h1260q69 0 118.5 49t49.5 115v732q0 69 -49.5 116.5t-118.5 47.5h-100v200q0 144 -70.5 266.5t-192.5 194t-265 71.5q-109 0 -207.5 -42.5t-169.5 -114t-113 -169.5t-42 -206v-200h-100q-69 0 -118.5 -47.5t-49.5 -116.5v-732zM68 36v732 q0 42 29 71t71 29h1260q42 0 71 -29t29 -71v-732q0 -39 -29 -67.5t-71 -28.5h-1260q-42 0 -71 28.5t-29 67.5zM332 932v200q0 192 136.5 328t331.5 136q192 0 328 -136t136 -328v-200h-136v200q0 138 -96.5 235t-231.5 97q-138 0 -235 -97t-97 -235v-200h-136zM532 932v200 q0 111 78.5 189.5t189.5 78.5q108 0 186 -78.5t78 -189.5v-200h-532zM664 536q0 -56 48 -104l-44 -188q-8 -16 4 -28t28 -12h196q16 0 28 12t4 28l-44 188q48 48 48 104q0 54 -39 93t-93 39q-57 0 -96.5 -39t-39.5 -93zM732 536q0 28 19.5 48t48.5 20q27 0 45.5 -20.5 t18.5 -47.5q0 -42 -36 -60q-9 -3 -14 -13.5t-2 -22.5l44 -168h-116l44 168q3 12 -2 22.5t-14 13.5q-36 18 -36 60z" />
<glyph unicode="&#xdc;" horiz-adv-x="1796" d="M0 0q0 -39 28.5 -67.5t67.5 -28.5h384q39 0 67.5 28.5t28.5 67.5v384q0 39 -28.5 67.5t-67.5 28.5h-384q-39 0 -67.5 -28.5t-28.5 -67.5v-384zM0 1024q0 -39 28.5 -67.5t67.5 -28.5h1600q39 0 67.5 28.5t28.5 67.5v512q0 39 -28.5 67.5t-67.5 28.5h-1600 q-39 0 -67.5 -28.5t-28.5 -67.5v-512zM64 0v384q0 12 10 22t22 10h384q12 0 22 -10t10 -22v-384q0 -12 -10 -22t-22 -10h-384q-12 0 -22 10t-10 22zM64 1024v512q0 12 10 22t22 10h1600q12 0 22 -10t10 -22v-512q0 -12 -10 -22t-22 -10h-1600q-12 0 -22 10t-10 22zM608 192 q0 -12 10 -22t22 -10t22 10t10 22t-10 22t-22 10t-22 -10t-10 -22zM736 192q0 -12 10 -22t22 -10t22 10t10 22t-10 22t-22 10t-22 -10t-10 -22zM864 192q0 -12 10 -22t22 -10t22 10t10 22t-10 22t-22 10t-22 -10t-10 -22zM864 320q0 -12 10 -22t22 -10t22 10t10 22t-10 22 t-22 10t-22 -10t-10 -22zM864 448q0 -12 10 -22t22 -10t22 10t10 22t-10 22t-22 10t-22 -10t-10 -22zM864 576q0 -12 10 -22t22 -10t22 10t10 22t-10 22t-22 10t-22 -10t-10 -22zM864 704q0 -12 10 -22t22 -10t22 10t10 22t-10 22t-22 10t-22 -10t-10 -22zM864 832 q0 -12 10 -22t22 -10t22 10t10 22t-10 22t-22 10t-22 -10t-10 -22zM992 192q0 -12 10 -22t22 -10t22 10t10 22t-10 22t-22 10t-22 -10t-10 -22zM1120 192q0 -12 10 -22t22 -10t22 10t10 22t-10 22t-22 10t-22 -10t-10 -22zM1216 0q0 -39 28.5 -67.5t67.5 -28.5h384 q39 0 67.5 28.5t28.5 67.5v384q0 39 -28.5 67.5t-67.5 28.5h-384q-39 0 -67.5 -28.5t-28.5 -67.5v-384zM1280 0v384q0 12 10 22t22 10h384q12 0 22 -10t10 -22v-384q0 -12 -10 -22t-22 -10h-384q-12 0 -22 10t-10 22z" />
<glyph unicode="&#xdd;" horiz-adv-x="1616" d="M0 -44q0 -32 32 -32h744q32 0 32 32q0 12 -8.5 20t-23.5 8h-712v1616h932v-276q0 -15 8 -23.5t20 -8.5h280v-528q0 -14 9.5 -23t22.5 -9t22.5 9t9.5 23v560q0 8 -4 12t-4 8l-312 312q-2 0 -6 2t-6 2q-4 4 -12 4h-992q-32 0 -32 -32v-1676zM808 348q3 -45 22.5 -90 t42.5 -78.5t62.5 -73.5t66.5 -63t70 -58q11 -9 16 -13q78 -57 100 -84q5 -16 24 -16q18 0 24 12q20 30 100 88q119 98 166 148q108 118 114 232q6 99 -64 176q-62 68 -156 68q-107 0 -184 -96q-70 96 -176 96q-102 0 -168 -72t-60 -176zM872 356q-6 74 44 124q50 56 120 56 q98 0 148 -112q5 -16 28 -16t28 16q56 112 156 112q60 0 112 -52q50 -50 44 -128q-3 -48 -26.5 -96t-66 -93.5t-77.5 -76t-86 -70.5q-64 -48 -84 -68q-11 11 -42 36.5t-42 35.5q-54 41 -85.5 68t-76 73t-68 93.5t-26.5 97.5zM1056 1352v204l204 -204h-204z" />
<glyph unicode="&#xde;" horiz-adv-x="1592" d="M1 1330.5q3 -12.5 15 -18.5l196 -112q4 -4 12 -4q23 0 28 16q6 9 3 21.5t-15 18.5l-192 112q-12 6 -25 3t-19 -15q-6 -9 -3 -21.5zM128 84v-180q0 -15 8 -23.5t20 -8.5h1260q13 0 22.5 9t9.5 23v176v4q0 8 -8 16q0 4 -4 4v4l-108 108v496q0 109 -43 209t-115.5 172.5 t-172.5 115.5t-209 43q-147 0 -271.5 -73t-196.5 -197t-72 -270v-496l-112 -112l-4 -8l-4 -4v-8zM188 52h1200v-120h-1200v120zM228 112l60 60h996l60 -60h-1116zM308 232v480q0 130 64.5 240.5t175 175t240.5 64.5t240.5 -64.5t175 -175t64.5 -240.5v-480h-960zM333 1561.5 q-3 -12.5 3 -21.5l112 -196q16 -16 28 -16q2 0 6 2t6 2q12 6 15 19t-3 25l-112 192q-6 12 -18.5 15t-21.5 -3q-12 -6 -15 -18.5zM368 712q0 -12 8 -20t20 -8t22 8t10 20q0 95 47.5 177.5t128.5 130.5q25 19 12 44q-6 9 -19 11.5t-25 -3.5q-93 -54 -148.5 -151.5 t-55.5 -208.5zM684 1088q0 -10 9 -17t23 -7q48 8 72 8q12 0 20 8.5t8 23.5q0 12 -8 20t-20 8q-28 0 -84 -8q-12 -3 -17.5 -13.5t-2.5 -22.5zM764 1408q0 -12 8 -20t20 -8t22 8t10 20v224q0 14 -9.5 23t-22.5 9q-12 0 -20 -8.5t-8 -23.5v-224zM1092 1388q-12 -24 12 -40 q4 -4 16 -4q18 0 24 12l116 196q12 24 -12 40q-26 13 -40 -8zM1344 1196q6 -12 24 -12q12 0 16 4l196 112q21 14 8 40t-40 12l-196 -112q-20 -20 -8 -44z" />
<glyph unicode="&#xdf;" d="M0 560q0 -61 40 -92.5t84 -35.5v-344q0 -37 27 -66.5t65 -29.5h124q38 0 65 29.5t27 66.5v344q44 4 84 35.5t40 92.5v176q0 135 -160 164q20 40 20 92q0 63 -39.5 105.5t-96.5 42.5h-4q-57 0 -96.5 -42.5t-39.5 -105.5q0 -52 20 -92q-160 -29 -160 -164v-176zM60 560v176 q0 16 3 28t16 31t49 32t92 17q28 7 28 32v12q0 20 -16 28q-32 16 -32 76q0 36 23 62t53 26h4q30 0 53 -26t23 -62q0 -60 -32 -76q-16 -8 -16 -28v-12q0 -25 28 -32q56 -4 92 -17t49 -32t16 -31t3 -28v-176q0 -22 -12.5 -38t-25.5 -21.5t-26 -8.5v216q0 32 -32 32 q-12 0 -20 -8.5t-8 -23.5v-620q0 -12 -10 -20t-22 -8h-32v356q0 15 -8 23.5t-20 8.5q-32 0 -32 -32v-356h-32q-12 0 -22 8t-10 20v620q0 15 -8 23.5t-20 8.5q-32 0 -32 -32v-216q-13 3 -26 8.5t-25.5 21.5t-12.5 38zM325 1195q3 -13 15 -19q25 -13 44 12q30 48 144 60 q12 0 20 8t8 20v16q0 17 -16 28q-32 16 -32 76q0 35 22.5 59.5t53.5 24.5h4q33 0 54.5 -24t21.5 -60q0 -60 -32 -76q-16 -16 -16 -28v-16q0 -12 8 -20t20 -8q118 -12 148 -60q5 -16 28 -16q8 0 12 4q12 6 15 19t-3 25q-37 62 -140 80q24 36 24 96t-41.5 104t-98.5 44h-4 q-57 0 -96.5 -44t-39.5 -104t24 -96q-100 -17 -144 -80q-6 -12 -3 -25zM616 560q0 -61 40 -92.5t84 -35.5v-344q0 -37 29 -66.5t67 -29.5h120q38 0 67 29.5t29 66.5v344q44 4 84 35.5t40 92.5v176q0 134 -164 164q24 36 24 92q0 62 -40.5 105t-95.5 43h-8q-55 0 -95.5 -43 t-40.5 -105q0 -56 24 -92q-164 -30 -164 -164v-176zM680 560v176q0 16 3 28t16 31t47.5 32t89.5 17q13 3 22.5 12t9.5 20v12q0 21 -20 28q-28 14 -28 76q0 36 21 62t51 26h8q30 0 51 -26t21 -62q0 -62 -28 -76q-20 -7 -20 -28v-12q0 -11 9.5 -20t22.5 -12q55 -4 89.5 -17 t47.5 -32t16 -31t3 -28v-176q0 -22 -12.5 -38t-24 -21.5t-23.5 -8.5v216q0 14 -9.5 23t-22.5 9t-22.5 -9t-9.5 -23v-620q0 -12 -8.5 -20t-23.5 -8h-28v356q0 14 -9.5 23t-22.5 9t-22.5 -9t-9.5 -23v-356h-28q-15 0 -23.5 8t-8.5 20v620q0 14 -9.5 23t-22.5 9t-22.5 -9 t-9.5 -23v-216q-12 3 -23.5 8.5t-24 21.5t-12.5 38zM944 1212q-14 -27 12 -40q4 -4 16 -4q17 0 28 16q23 51 148 64q12 0 20 8t8 20v16q0 12 -16 28q-32 16 -32 76q0 36 21.5 60t54.5 24h4q31 0 53.5 -24.5t22.5 -59.5q0 -60 -32 -76q-16 -11 -16 -28v-16q0 -12 8 -20t20 -8 q118 -12 148 -60q6 -13 17 -16.5t23 4.5q26 13 12 40q-36 66 -144 84q24 36 24 96t-39.5 104t-96.5 44h-4q-57 0 -98.5 -44t-41.5 -104t24 -96q-109 -18 -144 -88zM1236 560q0 -61 40 -92.5t84 -35.5v-344q0 -37 27 -66.5t65 -29.5h124q38 0 65 29.5t27 66.5v344 q44 4 84 35.5t40 92.5v176q0 135 -160 164q20 40 20 92q0 63 -39.5 105.5t-96.5 42.5h-4q-57 0 -96.5 -42.5t-39.5 -105.5q0 -52 20 -92q-160 -29 -160 -164v-176zM1296 560v176q0 16 3 28t16 31t49 32t92 17q28 7 28 32v12q0 20 -16 28q-32 16 -32 76q0 36 23 62t53 26h4 q30 0 53 -26t23 -62q0 -60 -32 -76q-16 -8 -16 -28v-12q0 -25 28 -32q56 -4 92 -17t49 -32t16 -31t3 -28v-176q0 -22 -12.5 -38t-25.5 -21.5t-26 -8.5v216q0 32 -32 32q-12 0 -20 -8.5t-8 -23.5v-620q0 -12 -10 -20t-22 -8h-32v356q0 32 -32 32q-12 0 -20 -8.5t-8 -23.5 v-356h-32q-12 0 -22 8t-10 20v620q0 15 -8 23.5t-20 8.5q-32 0 -32 -32v-216q-13 3 -26 8.5t-25.5 21.5t-12.5 38z" />
<glyph unicode="&#xe0;" d="M0 236q0 -12 10 -22t22 -10v-32q0 -39 26.5 -65.5t65.5 -26.5t67.5 26.5t28.5 65.5v32q12 0 22 10t10 22t-10 22t-22 10v64h64v-352q0 -13 9 -22.5t23 -9.5h1380q14 0 23 9.5t9 22.5v932q64 38 64 112v532q0 12 -10 22t-22 10h-1508q-12 0 -22 -10t-10 -22v-532 q0 -74 64 -112v-328h-64v60q12 0 22 10t10 22t-10 22t-22 10v32q0 39 -28.5 65.5t-67.5 26.5t-65.5 -26.5t-26.5 -65.5v-32q-12 0 -22 -10t-10 -22t10 -22t22 -10v-376q-12 0 -22 -10t-10 -22zM96 172v32h60v-32q0 -13 -9 -22.5t-23 -9.5q-12 0 -20 10t-8 22zM96 268v80 l60 -60v-20h-60zM96 436v100l60 -60v-100zM96 628v16h60v-80zM96 708v32q0 12 8 22t20 10q14 0 23 -9.5t9 -22.5v-32h-60zM220 392v128h64v-128h-64zM284 1024v60h124v-60q0 -27 -18.5 -45.5t-45.5 -18.5q-24 0 -42 18.5t-18 45.5zM284 1148v376h124v-376h-124zM344 16v880 q58 0 96 44q38 -44 96 -44q54 0 92 44q38 -44 96 -44q61 0 92 44q38 -44 96 -44t96 44q31 -44 92 -44q58 0 96 44q31 -44 92 -44q58 0 96 44q38 -44 92 -44q58 0 96 44q38 -44 96 -44v-880h-64v724q0 12 -10 22t-22 10h-440q-12 0 -22 -10t-10 -22v-724h-756zM408 172 q0 -12 10 -22t22 -10h568q12 0 20 10t8 22v568q0 12 -8 22t-20 10h-568q-12 0 -22 -10t-10 -22v-568zM472 204v504h504v-504h-504zM472 1024v60h124v-60q0 -27 -18 -45.5t-42 -18.5q-27 0 -45.5 18.5t-18.5 45.5zM472 1148v376h124v-376h-124zM531 297.5q0 -13.5 9 -25.5 q16 -8 24 -8q12 0 20 8l164 164q9 9 9 22t-9 22t-22 9t-22 -9l-164 -160q-9 -9 -9 -22.5zM531 486q0 -13 9 -22q12 -12 24 -12q14 0 20 12l132 132q9 9 9 22t-9 22t-22 9t-22 -9l-132 -132q-9 -9 -9 -22zM660 1024v60h124v-60q0 -27 -18 -45.5t-42 -18.5q-27 0 -45.5 18.5 t-18.5 45.5zM660 1148v376h124v-376h-124zM751 517.5q0 -13.5 9 -25.5q16 -8 24 -8q14 0 20 12l8 4q9 9 9 22t-9 22t-22 9t-22 -9l-8 -4q-9 -9 -9 -22.5zM815 578q0 -13 9 -22q8 -8 20 -8q16 0 24 8l36 40q9 9 9 22t-9 22t-22 9t-22 -9l-36 -40q-9 -9 -9 -22zM848 1024v60 h128v-60q0 -27 -18.5 -45.5t-45.5 -18.5t-45.5 18.5t-18.5 45.5zM848 1148v376h128v-376h-128zM1036 1024v60h128v-60q0 -27 -18.5 -45.5t-45.5 -18.5t-45.5 18.5t-18.5 45.5zM1036 1148v376h128v-376h-128zM1164 16v692h376v-692h-376zM1224 332q0 -15 10 -25.5t22 -10.5 q15 0 25.5 10.5t10.5 25.5q0 12 -10.5 22t-25.5 10q-12 0 -22 -10t-10 -22zM1228 1024v60h124v-60q0 -27 -18.5 -45.5t-45.5 -18.5q-24 0 -42 18.5t-18 45.5zM1228 1148v376h124v-376h-124zM1416 1024v60h124v-60q0 -27 -18.5 -45.5t-45.5 -18.5q-24 0 -42 18.5t-18 45.5z M1416 1148v376h124v-376h-124zM1604 1024v60h124v-60q0 -27 -18 -45.5t-42 -18.5q-27 0 -45.5 18.5t-18.5 45.5zM1604 1148v376h124v-376h-124z" />
<glyph unicode="&#xe1;" d="M32 972q95 -255 456 -616q143 -143 269.5 -243.5t221.5 -150t163.5 -70t125.5 -20.5q96 0 148 52l136 136q54 54 48 124q-6 74 -60 116l-216 168q-42 33 -98 33t-98 -33l-48 -40q-30 -21 -67 -18.5t-61 26.5l-384 384q-24 24 -26.5 61t18.5 67l40 48q33 42 33 96.5 t-33 99.5l-168 216q-21 27 -54.5 43.5t-69.5 16.5q-68 0 -116 -48l-136 -136q-100 -111 -24 -312zM92 992q-62 174 12 248l136 136q28 28 68 28q46 0 76 -36l164 -216q21 -27 21 -59.5t-21 -56.5l-36 -48q-38 -49 -34.5 -109t46.5 -103l384 -384q42 -48 112 -48q58 0 100 36 l48 36q24 21 58 21t58 -21l216 -164q36 -36 36 -72q0 -44 -28 -72l-136 -136q-36 -36 -104 -36q-45 0 -102.5 17t-147 62t-216 143.5t-270.5 241.5q-349 349 -440 592zM960 848q8 -16 20 -16q4 -4 12 -4h384q12 0 22 10t10 22t-10 22t-22 10h-308l716 716q9 9 9 22t-9 22 t-24 9t-24 -9l-712 -716v308q0 12 -10 22t-22 10q-14 0 -23 -9.5t-9 -22.5v-384v-12z" />
<glyph unicode="&#xe2;" horiz-adv-x="1952" d="M0 204q0 -44 32 -76q30 -36 80 -36h1728q50 0 80 36q32 32 32 76v1128q0 44 -32 76v4q-32 32 -80 32h-1728q-50 0 -80 -36q-32 -32 -32 -76v-1128zM76 220v1096l572 -548zM128 168l576 548l88 -88q78 -72 184 -72q108 0 180 72l92 88l576 -548h-1696zM128 1368h1696 l-720 -684q-54 -54 -128.5 -54t-131.5 54zM1304 768l572 548v-1096z" />
<glyph unicode="&#xe3;" d="M0 -128q0 -45 31.5 -76.5t76.5 -31.5h1576q45 0 76.5 31.5t31.5 76.5v1288q0 45 -31.5 76.5t-76.5 31.5h-168l-516 412q-6 39 -35.5 65.5t-68.5 26.5t-68.5 -26.5t-35.5 -65.5l-516 -412h-168q-45 0 -76.5 -31.5t-31.5 -76.5v-1288zM72 -128v968h1648v-968 q0 -15 -10.5 -25.5t-25.5 -10.5h-1576q-15 0 -25.5 10.5t-10.5 25.5zM72 908v252q0 15 10.5 25.5t25.5 10.5h1576q15 0 25.5 -10.5t10.5 -25.5v-252h-1648zM216 12q0 -8 8 -24q8 -8 28 -8q16 0 24 8q12 12 12 24q0 16 -12 28q-9 9 -24.5 9t-27.5 -9q-8 -16 -8 -28zM216 228 q0 -8 8 -24q12 -12 28 -12q12 0 24 12t12 24q0 16 -12 28q-9 9 -24.5 9t-27.5 -9q-8 -16 -8 -28zM216 444q0 -16 8 -24q12 -12 28 -12q12 0 24 12q12 6 12 24t-12 24q-9 12 -24.5 12t-27.5 -12q-8 -8 -8 -24zM388 1268l420 336q30 -48 88 -48t88 48l420 -336h-1016zM432 12 q0 -8 8 -24q8 -8 24 -8q20 0 28 8q8 16 8 24q0 12 -8 28q-9 9 -26 9t-26 -9q-8 -16 -8 -28zM432 228q0 -8 8 -24q12 -12 24 -12q16 0 28 12q8 16 8 24q0 12 -8 28q-26 19 -52 0q-8 -16 -8 -28zM432 444q0 -16 8 -24q12 -12 24 -12q16 0 28 12q8 8 8 24t-8 24q-9 12 -26 12 t-26 -12q-8 -8 -8 -24zM644 12q0 -12 12 -24q8 -8 24 -8q20 0 28 8q8 16 8 24q0 12 -8 28q-12 9 -27.5 9t-24.5 -9q-12 -12 -12 -28zM644 228q0 -12 12 -24t24 -12q16 0 28 12q8 16 8 24q0 12 -8 28q-12 9 -27.5 9t-24.5 -9q-12 -12 -12 -28zM644 444q0 -18 12 -24 q12 -12 24 -12q16 0 28 12q8 8 8 24t-8 24q-12 12 -27.5 12t-24.5 -12q-12 -6 -12 -24zM860 12q0 -12 12 -24q4 -8 24 -8t24 8q12 12 12 24q0 16 -12 28q-9 9 -24 9t-24 -9q-12 -12 -12 -28zM860 228q0 -12 12 -24q6 -12 24 -12t24 12q12 12 12 24q0 16 -12 28q-9 9 -24 9 t-24 -9q-12 -12 -12 -28zM860 444q0 -18 12 -24q6 -12 24 -12t24 12q12 6 12 24t-12 24q-9 12 -24 12t-24 -12q-12 -6 -12 -24zM860 660q0 -16 12 -28q8 -8 24 -8t24 8q12 12 12 28q0 12 -12 24q-9 9 -24 9t-24 -9q-12 -12 -12 -24zM860 1664q0 15 10.5 25.5t25.5 10.5 t25.5 -10.5t10.5 -25.5t-10.5 -25.5t-25.5 -10.5t-25.5 10.5t-10.5 25.5zM1076 228q0 -8 8 -24q12 -12 28 -12q12 0 24 12t12 24q0 16 -12 28q-9 9 -24.5 9t-27.5 -9q-8 -16 -8 -28zM1076 444q0 -16 8 -24q12 -12 28 -12q12 0 24 12q12 6 12 24t-12 24q-9 12 -24.5 12 t-27.5 -12q-8 -8 -8 -24zM1076 660q0 -12 8 -28q16 -8 28 -8q8 0 24 8q12 12 12 28q0 12 -12 24q-9 9 -24.5 9t-27.5 -9q-8 -16 -8 -24zM1292 228q0 -8 8 -24q12 -12 28 -12q12 0 24 12q8 8 8 24q0 20 -8 28q-9 9 -24.5 9t-27.5 -9q-8 -16 -8 -28zM1292 444q0 -16 8 -24 q12 -12 28 -12q12 0 24 12q8 4 8 24t-8 24q-9 12 -26 12t-26 -12q-8 -8 -8 -24zM1292 660q0 -12 8 -28q16 -8 28 -8q8 0 24 8q8 8 8 28q0 16 -8 24q-9 9 -24.5 9t-27.5 -9q-8 -16 -8 -24zM1504 228q0 -12 12 -24t24 -12q16 0 28 12q8 16 8 24q0 12 -8 28q-12 9 -27.5 9 t-24.5 -9q-12 -12 -12 -28zM1504 444q0 -18 12 -24q12 -12 24 -12q16 0 28 12q8 8 8 24t-8 24q-12 12 -27.5 12t-24.5 -12q-12 -6 -12 -24zM1504 660q0 -16 12 -28q16 -8 24 -8q12 0 28 8q8 16 8 28q0 8 -8 24q-12 9 -27.5 9t-24.5 -9q-12 -12 -12 -24z" />
<glyph unicode="&#xe4;" d="M0 0q0 -39 28.5 -67.5t67.5 -28.5h1600q39 0 67.5 28.5t28.5 67.5v768q0 39 -28.5 67.5t-67.5 28.5h-800v224q0 39 28.5 67.5t67.5 28.5h192q66 0 113 47t47 113v256q0 12 -10 22t-22 10t-22 -10t-10 -22v-256q0 -39 -28.5 -67.5t-67.5 -28.5h-192q-66 0 -113 -47 t-47 -113v-224h-736q-39 0 -67.5 -28.5t-28.5 -67.5v-768zM64 0v768q0 12 10 22t22 10h1600q12 0 22 -10t10 -22v-768q0 -12 -10 -22t-22 -10h-1600q-12 0 -22 10t-10 22zM192 192q0 -8 8 -24q16 -8 24 -8t24 8q8 16 8 24t-8 24q-9 9 -24 9t-24 -9q-8 -16 -8 -24zM192 384 q0 -8 8 -24q16 -8 24 -8t24 8q8 16 8 24t-8 24q-9 9 -24 9t-24 -9q-8 -16 -8 -24zM192 576q0 -8 8 -24q16 -8 24 -8t24 8q8 16 8 24t-8 24q-9 9 -24 9t-24 -9q-8 -16 -8 -24zM384 192q0 -8 8 -24q16 -8 24 -8t24 8q8 16 8 24t-8 24q-9 9 -24 9t-24 -9q-8 -16 -8 -24z M384 384q0 -8 8 -24q16 -8 24 -8t24 8q8 16 8 24t-8 24q-9 9 -24 9t-24 -9q-8 -16 -8 -24zM384 576q0 -8 8 -24q16 -8 24 -8t24 8q8 16 8 24t-8 24q-9 9 -24 9t-24 -9q-8 -16 -8 -24zM576 192q0 -12 10 -22t22 -10h576q12 0 22 10t10 22t-10 22t-22 10h-576q-12 0 -22 -10 t-10 -22zM576 384q0 -8 8 -24q16 -8 24 -8t24 8q8 16 8 24t-8 24q-9 9 -24 9t-24 -9q-8 -16 -8 -24zM576 576q0 -8 8 -24q16 -8 24 -8t24 8q8 16 8 24t-8 24q-9 9 -24 9t-24 -9q-8 -16 -8 -24zM768 384q0 -8 8 -24q16 -8 24 -8t24 8q8 16 8 24t-8 24q-9 9 -24 9t-24 -9 q-8 -16 -8 -24zM768 576q0 -8 8 -24q16 -8 24 -8t24 8q8 16 8 24t-8 24q-9 9 -24 9t-24 -9q-8 -16 -8 -24zM960 384q0 -8 8 -24q16 -8 24 -8t24 8q8 16 8 24t-8 24q-9 9 -24 9t-24 -9q-8 -16 -8 -24zM960 576q0 -8 8 -24q16 -8 24 -8t24 8q8 16 8 24t-8 24q-9 9 -24 9 t-24 -9q-8 -16 -8 -24zM1152 384q0 -8 8 -24q16 -8 24 -8t24 8q8 16 8 24t-8 24q-9 9 -24 9t-24 -9q-8 -16 -8 -24zM1152 576q0 -8 8 -24q16 -8 24 -8t24 8q8 16 8 24t-8 24q-9 9 -24 9t-24 -9q-8 -16 -8 -24zM1344 192q0 -8 8 -24q16 -8 24 -8t24 8q8 16 8 24t-8 24 q-9 9 -24 9t-24 -9q-8 -16 -8 -24zM1344 384q0 -8 8 -24q16 -8 24 -8t24 8q8 16 8 24t-8 24q-9 9 -24 9t-24 -9q-8 -16 -8 -24zM1344 576q0 -8 8 -24q16 -8 24 -8t24 8q8 16 8 24t-8 24q-9 9 -24 9t-24 -9q-8 -16 -8 -24zM1536 192q0 -8 8 -24q16 -8 24 -8t24 8q8 16 8 24 t-8 24q-9 9 -24 9t-24 -9q-8 -16 -8 -24zM1536 384q0 -8 8 -24q16 -8 24 -8t24 8q8 16 8 24t-8 24q-9 9 -24 9t-24 -9q-8 -16 -8 -24zM1536 576q0 -8 8 -24q16 -8 24 -8t24 8q8 16 8 24t-8 24q-9 9 -24 9t-24 -9q-8 -16 -8 -24z" />
<glyph unicode="&#xe5;" horiz-adv-x="1796" d="M0 764q0 -116 40 -256q7 -20 28 -20h12q12 3 17.5 15.5t2.5 24.5q-36 114 -36 236q0 36 8 108q3 13 -5.5 24.5t-22.5 11.5q-12 3 -22.5 -5t-13.5 -23q-8 -72 -8 -116zM36 1016q-3 -14 4 -25.5t20 -14.5q4 -4 8 -4q24 0 32 24q49 171 164 304q6 12 5.5 25t-9.5 19 q-12 9 -25.5 9t-22.5 -9q-124 -155 -176 -328zM87 407q-5 -11 1 -23q77 -171 224 -300q16 -8 20 -8q18 0 24 12q9 12 9 25t-9 19q-131 114 -212 276q-6 12 -17 17t-23 -1t-17 -17zM299 1418q0 -13 9 -22q6 -12 24 -12q12 0 20 8q132 114 300 168q14 3 20.5 15t3.5 25 q-13 27 -40 20q-186 -56 -328 -180q-9 -9 -9 -22zM408.5 23q2.5 -13 11.5 -19q152 -96 352 -128l36 28q3 11 -6 22t-22 14q-174 24 -324 120q-12 6 -25 3t-19 -15t-3.5 -25zM740 1616q3 -15 13.5 -23t22.5 -5q178 25 348 -24h8q22 0 28 24q6 12 -1 24.5t-19 15.5 q-182 49 -372 24q-12 -3 -20 -13.5t-8 -22.5zM876 -100q0 -32 32 -32q186 0 364 80q12 6 17 19t-1 25t-19 17t-25 -1q-165 -76 -336 -76q-14 0 -23 -9.5t-9 -22.5zM1223 1539q5 -13 17 -19q159 -71 280 -204q4 -8 24 -8q16 0 20 8q9 6 11 20.5t-7 23.5q-132 145 -300 220 q-12 6 -25 1t-19 -17t-1 -25zM1341 49q-3 -13 3 -25q16 -16 28 -16q4 0 20 8q153 100 260 264q12 24 -8 44q-12 6 -25 3t-19 -15q-98 -146 -244 -244q-12 -6 -15 -19zM1592.5 1241q-2.5 -13 3.5 -25q93 -146 124 -324q6 -24 36 -24q28 0 28 36q-30 186 -132 348 q-25 25 -48 8q-9 -6 -11.5 -19zM1659 401q5 -11 17 -17q4 -4 12 -4q21 0 28 20q80 178 80 364v4q0 12 -10 22t-22 10q-14 0 -23 -9.5t-9 -22.5v-4q0 -163 -72 -340q-6 -12 -1 -23z" />
<glyph unicode="&#xe7;" horiz-adv-x="1788" d="M-1 766q0 -13 9 -22l396 -400q16 -8 24 -8q16 0 24 8q9 9 9 24t-9 24l-372 376l372 372q9 12 9 25.5t-9 22.5t-22.5 9t-25.5 -9l-396 -400q-9 -9 -9 -22zM464 768q0 -42 29 -71t71 -29q39 0 67.5 29t28.5 71q0 39 -28.5 67.5t-67.5 28.5q-42 0 -71 -28.5t-29 -67.5z M528 768q0 12 10.5 22t25.5 10q12 0 22 -10t10 -22q0 -15 -10 -25.5t-22 -10.5q-15 0 -25.5 10.5t-10.5 25.5zM796 768q0 -42 29 -71t71 -29q39 0 67.5 29t28.5 71q0 39 -28.5 67.5t-67.5 28.5q-42 0 -71 -28.5t-29 -67.5zM860 768q0 12 10.5 22t25.5 10q12 0 22 -10t10 -22 q0 -15 -10 -25.5t-22 -10.5q-15 0 -25.5 10.5t-10.5 25.5zM1128 768q0 -42 28.5 -71t67.5 -29q42 0 71 29t29 71q0 39 -29 67.5t-71 28.5q-39 0 -67.5 -28.5t-28.5 -67.5zM1192 768q0 12 10 22t22 10q15 0 25.5 -10t10.5 -22q0 -15 -10.5 -25.5t-25.5 -10.5q-12 0 -22 10.5 t-10 25.5zM1327 368q0 -15 9 -24q8 -8 24 -8q8 0 24 8l396 400q9 9 9 22t-9 22l-396 400q-12 9 -25.5 9t-22.5 -9t-9 -22.5t9 -25.5l372 -372l-372 -376q-9 -9 -9 -24z" />
<glyph unicode="&#xe8;" d="M0 768q0 -48 34 -84t82 -36h64q48 -166 166 -296t282 -192q12 -6 23 -1t17 17q6 25 -16 40q-201 75 -322.5 251t-121.5 389q0 114 28 204q28 0 63 6t85 20.5t105 48t103 81.5q180 -180 496 -180q226 0 440 84q52 -116 52 -264q0 -213 -121.5 -389t-322.5 -251 q-22 -15 -16 -40q7 -20 28 -20q2 0 6 2t6 2q164 62 282 192t166 296h32v-8q0 -114 -44 -217.5t-118 -178.5t-177.5 -119.5t-216.5 -44.5h-16q-9 39 -41.5 65.5t-74.5 26.5h-116q-50 0 -85 -35.5t-35 -84.5q0 -51 34.5 -85.5t85.5 -34.5h116q42 0 74.5 24.5t41.5 63.5h16 q167 0 309 83.5t224.5 226.5t82.5 310v12q40 12 66 43.5t26 72.5v180q0 48 -36 84t-84 36h-60q-30 80 -40 100v4l-4 4q-92 192 -273 310t-399 118q-243 0 -435.5 -139t-268.5 -361q-4 -4 -4 -8l-12 -28h-60q-48 0 -82 -36t-34 -84v-180zM56 768v180q0 24 18 42t42 18h48 q-16 -64 -16 -152q0 -84 16 -148h-48q-24 0 -42 18t-18 42zM260 1120q79 189 251.5 306.5t384.5 117.5q195 0 357.5 -100t250.5 -268q-78 -32 -166 -52.5t-189.5 -26.5t-194.5 8t-183.5 58t-154.5 117q-16 8 -24 8q-12 0 -20 -8q-125 -138 -312 -160zM476 768q0 -12 8 -20 t20 -8q15 0 23.5 8t8.5 20q0 24 18 42t42 18t42 -18t18 -42q0 -12 8 -20t20 -8t22 8t10 20q0 48 -36 84t-84 36q-50 0 -85 -35.5t-35 -84.5zM744 440q0 -39 43 -65.5t109 -26.5q63 0 105.5 26.5t42.5 65.5q0 12 -10 20t-22 8t-20 -8t-8 -20q0 -5 -9.5 -12t-31 -13.5 t-47.5 -6.5q-27 0 -49.5 6.5t-32.5 13.5t-10 12q0 12 -8 20t-20 8t-22 -8t-10 -20zM776 52q0 25 17 42.5t43 17.5h116q26 0 43 -17.5t17 -42.5t-17 -42.5t-43 -17.5h-116q-26 0 -43 17.5t-17 42.5zM1072 768q0 -12 10 -20t22 -8t20 8t8 20q0 24 18 42t42 18t42 -18t18 -42 q0 -12 8.5 -20t23.5 -8q12 0 20 8t8 20q0 49 -35 84.5t-85 35.5q-48 0 -84 -36t-36 -84zM1624 708q16 64 16 148q0 88 -16 152h48q24 0 42 -18t18 -42v-180q0 -24 -18 -42t-42 -18h-48z" />
<glyph unicode="&#xe9;" horiz-adv-x="2432" d="M0 1180q0 -376 68 -752q6 -42 40.5 -71t79.5 -29h256q51 0 87.5 36.5t36.5 87.5h88q67 -133 152 -272q68 -108 192 -108q50 0 92 24q18 6 28 16q39 -28 92 -28q48 0 104 28l4 4q31 12 52 44q76 -28 144 12q35 18 64 52l48 -12q54 -6 108 28q45 30 61.5 75.5t-1.5 96.5h76 q12 -37 43 -60.5t69 -23.5h260q44 0 77.5 28.5t42.5 71.5q68 376 68 752q-3 51 -38 85.5t-86 34.5h-324q-67 0 -104 -56l-264 176q-63 44 -144 44h-136q-66 0 -126 -28.5t-102 -79.5l-48 -56h-12h-68q-72 0 -136 -32l-84 -48h-200q-12 36 -43 58t-73 22h-324 q-49 0 -84.5 -35t-35.5 -85zM80 1180q0 17 12 28.5t28 11.5h324q18 0 31 -11t13 -29v-728q0 -18 -13 -29t-31 -11h-256q-16 0 -28 9t-12 23q-68 367 -68 736zM244 612q0 -16 12 -28t28 -12t28 12t12 28q0 20 -12 32q-12 9 -28 9t-28 -9q-12 -12 -12 -32zM568 536v604h200 q16 0 20 4l92 52q48 24 100 24h16l-144 -176q-26 -32 -20 -68q7 -43 36 -60l16 -12q57 -45 127.5 -42.5t124.5 50.5l164 136q15 12 35.5 9t32.5 -21l192 -348q2 0 18 -30t59 -112t79 -150q23 -55 -24 -88q-21 -16 -56 -16q-32 8 -32 12l-144 260q-19 31 -56 16 q-31 -19 -16 -56l132 -240q-12 -24 -44 -40q-23 -16 -56.5 -13t-47.5 29l-116 204q-9 13 -25 16.5t-31 -4.5q-15 -6 -20 -21.5t4 -30.5l116 -208q1 -1 2.5 -3.5t2.5 -3.5t3 -1q-8 -12 -24 -20l-8 -4q-32 -19 -69 -19t-51 23l-104 180q-9 15 -25 20t-31 -4q-31 -19 -16 -56 l88 -152q-8 -8 -16 -8q-22 -13 -51.5 -15.5t-65 15t-59.5 56.5q-36 59 -76 131t-62 115l-22 42q-16 24 -36 24h-112zM912 984q0 8 4 8l252 312q68 80 168 80h136q55 0 100 -32l292 -192v-668h-100l-328 584q-15 29 -44.5 46.5t-63.5 17.5q-46 0 -84 -32l-160 -136 q-34 -27 -74.5 -29t-77.5 25l-16 12zM1944 452v728q0 17 12 28.5t28 11.5h324q18 0 29 -11t11 -29q0 -366 -64 -736q-6 -32 -40 -32h-260q-16 0 -28 11.5t-12 28.5zM2108 612q0 -12 8 -28q12 -12 32 -12q16 0 28 12t12 28q0 20 -12 32q-12 9 -30 9t-30 -9q-8 -16 -8 -32z " />
<glyph unicode="&#xee;" horiz-adv-x="1664" d="M0 584q0 -56 36 -92t92 -36h192v-456h1024v456h192q56 0 92 36t36 92v636q0 52 -36 88t-92 36h-128v192h-1152v-192h-128q-56 0 -92 -36t-36 -88v-636zM64 584v636q0 60 64 60h1408q64 0 64 -60v-636q0 -64 -64 -64h-192v376h-1024v-376h-192q-64 0 -64 64zM320 1344v128 h1024v-128h-1024zM384 64v768h896v-768h-896z" />
<glyph unicode="&#xf0;" d="M0 768q0 -374 264 -632q258 -264 632 -264q218 0 420 104q184 98 316 280h-164l-32 -32q-224 -224 -540 -224q-320 0 -544 224t-224 544t224 544t544 224q316 0 540 -224l32 -32h164q-132 182 -316 280q-202 104 -420 104q-372 0 -632 -260q-264 -264 -264 -636zM640 704 h908l-208 -208l88 -92l364 364l-364 364l-88 -92l208 -208h-908v-128z" />
<glyph unicode="&#xf7;" horiz-adv-x="1664" d="M0 768q0 -344 244 -588t588 -244t588 244t244 588t-244 588t-588 244t-588 -244t-244 -588zM68 768q0 316 224 540t540 224t540 -224t224 -540q0 -278 -180 -488q-200 76 -372 128q-8 8 -8 44q0 38 24 92q20 45 36 128q36 41 56 128q12 71 0 112q0 4 -4 8q-12 40 12 152 q19 105 -60 208q-81 106 -232 112h-72q-156 -12 -232 -112q-79 -103 -60 -208q24 -112 12 -152v-8q-16 -44 -4 -112q17 -80 56 -132q20 -87 36 -124q16 -27 16 -96q0 -34 -12 -40q-186 -51 -360 -128q-180 210 -180 488z" />
<glyph unicode="&#xf9;" d="M0 220h188q123 0 220 40q105 37 192 124q82 77 136 144q2 2 136 172q20 27 45 60.5t41 54.5t26 33q11 12 26 27.5t38.5 38t39.5 38.5q62 62 128 92q60 24 136 24h116v-192l324 336l-324 324v-216h-116q-118 0 -220 -36q-91 -32 -188 -116q-68 -63 -136 -140 q-51 -57 -136 -172q-35 -44 -71.5 -93.5t-40.5 -54.5q-40 -48 -100 -108q-69 -75 -132 -100q-62 -28 -140 -28h-188v-252zM0 1064h188q158 -6 296 -144q1 1 9 11t15 17l20 32q84 112 112 144q-204 192 -452 192h-188v-252zM884 428q212 -212 468 -212h116v-216l324 324 l-324 336v-188h-116q-168 0 -312 156q-8 -8 -12 -16q-5 -4 -10 -11t-6 -9q-108 -144 -128 -164z" />
<glyph unicode="&#x113;" d="M4 980q-14 -41 24 -72l468 -356l-172 -556q-14 -27 8 -56q15 -20 41 -24.5t47 8.5l476 336l480 -336q24 -8 36 -8q34 0 52 24q22 29 8 56l-172 556l468 356q18 15 23.5 34.5t-3.5 37.5q-13 44 -60 44h-580l-188 560q-19 44 -64 44q-47 0 -60 -44l-188 -560h-584 q-47 0 -60 -44zM64 960h584q20 0 37 12.5t23 31.5l188 560l188 -560q22 -44 64 -44h580l-468 -356q-33 -33 -20 -72l172 -552l-480 332q-33 26 -72 0l-476 -332l172 552q6 18 0 37t-24 31z" />
<glyph unicode="&#x114;" d="M0 536q0 125 62.5 232.5t171.5 171.5t238 64q127 0 235.5 -64t170.5 -172t62 -232q0 -197 -136 -332.5t-332 -135.5q-198 0 -335 135t-137 333zM96 536q0 -161 109.5 -272.5t266.5 -111.5q155 0 269.5 112t114.5 272q0 152 -115 262t-269 110q-156 0 -266 -109.5 t-110 -262.5zM292 440q0 7 1 13t4 11t4.5 8.5t5.5 8.5t5 7q91 18 171 -27.5t117 -128.5q6 -9 6.5 -16t-2 -12.5t-7 -10.5t-9.5 -9h-8q-24 0 -32 3.5t-8 20.5q-28 55 -87 86t-129 22q-9 -9 -20.5 -1.5t-11.5 25.5zM324 704q14 41 31 60.5t45 11.5q17 0 30.5 -31t5.5 -65 q-14 -41 -31 -60.5t-45 -11.5q-17 0 -30.5 31t-5.5 65zM504 680q-8 34 5.5 65t30.5 31q28 8 45 -11.5t31 -60.5q8 -34 -5.5 -65t-30.5 -31q-28 -8 -45 11.5t-31 60.5zM856 1000q0 125 61.5 232.5t169.5 171.5t237 64t237 -64t169.5 -171.5t61.5 -232.5q0 -198 -135 -333 t-333 -135t-333 135t-135 333zM952 1000q0 -161 109 -272.5t263 -111.5q155 0 269.5 112t114.5 272q0 152 -115 262t-269 110q-153 0 -262.5 -109.5t-109.5 -262.5zM1036 952q0 36 36 36q9 10 22.5 1.5t13.5 -25.5q9 -79 71 -129.5t145 -50.5t145 50.5t71 129.5 q0 18 14 25.5t26 -1.5q32 0 32 -36q-18 -107 -98.5 -173.5t-189.5 -66.5t-189.5 66.5t-98.5 173.5zM1168 1108q0 18 15 33t33 15q19 0 39.5 -15.5t20.5 -32.5q0 -25 -20 -42.5t-40 -17.5q-19 0 -33.5 17t-14.5 43zM1384 1108q0 18 15 33t33 15q19 0 39.5 -15.5t20.5 -32.5 q0 -25 -20 -42.5t-40 -17.5q-19 0 -33.5 17t-14.5 43z" />
<glyph unicode="&#x115;" d="M0 32q0 -66 47 -113t113 -47h1472q66 0 113 47t47 113v1472q0 66 -47 113t-113 47h-1472q-66 0 -113 -47t-47 -113v-1472zM64 32v1472q0 39 28.5 67.5t67.5 28.5h1472q39 0 67.5 -28.5t28.5 -67.5v-1472q0 -39 -28.5 -67.5t-67.5 -28.5h-1472q-39 0 -67.5 28.5 t-28.5 67.5zM192 384q0 -132 94 -226t226 -94h768q132 0 226 94t94 226t-94 226t-226 94h-768q-132 0 -226 -94t-94 -226zM192 1152q0 -132 94 -226t226 -94h768q132 0 226 94t94 226t-94 226t-226 94h-768q-132 0 -226 -94t-94 -226zM256 384q0 105 75.5 180.5t180.5 75.5 t180.5 -75.5t75.5 -180.5t-75.5 -180.5t-180.5 -75.5t-180.5 75.5t-75.5 180.5zM256 1152q0 105 75.5 180.5t180.5 75.5h576q-59 -46 -93.5 -113t-34.5 -143t34.5 -143t93.5 -113h-576q-105 0 -180.5 75.5t-75.5 180.5zM384 384q0 -54 37 -91t91 -37t91 37t37 91t-37 91 t-91 37t-91 -37t-37 -91zM448 384q0 27 18.5 45.5t45.5 18.5t45.5 -18.5t18.5 -45.5t-18.5 -45.5t-45.5 -18.5t-45.5 18.5t-18.5 45.5zM704 128q59 46 93.5 113t34.5 143t-34.5 143t-93.5 113h576q105 0 180.5 -75.5t75.5 -180.5t-75.5 -180.5t-180.5 -75.5h-576zM1024 1152 q0 105 75.5 180.5t180.5 75.5t180.5 -75.5t75.5 -180.5t-75.5 -180.5t-180.5 -75.5t-180.5 75.5t-75.5 180.5zM1152 1152q0 -54 37 -91t91 -37t91 37t37 91t-37 91t-91 37t-91 -37t-37 -91zM1216 1152q0 27 18.5 45.5t45.5 18.5t45.5 -18.5t18.5 -45.5t-18.5 -45.5 t-45.5 -18.5t-45.5 18.5t-18.5 45.5z" />
<glyph unicode="&#x116;" d="M0 400q0 -66 47 -113t113 -47h820l276 -280q16 -8 24 -8t12 4q20 7 20 28v256h320q66 0 113 47t47 113v1024q0 66 -47 113t-113 47h-1472q-66 0 -113 -47t-47 -113v-1024zM64 400v1024q0 39 28.5 67.5t67.5 28.5h1472q39 0 67.5 -28.5t28.5 -67.5v-1024 q0 -39 -28.5 -67.5t-67.5 -28.5h-352q-12 0 -22 -10t-10 -22v-212l-232 236q-16 8 -24 8h-832q-39 0 -67.5 28.5t-28.5 67.5zM448 784q0 -12 10 -22t22 -10h384q12 0 22 10t10 22t-10 22t-22 10h-384q-12 0 -22 -10t-10 -22zM448 976q0 -12 10 -22t22 -10h832q12 0 22 10 t10 22t-10 22t-22 10h-832q-12 0 -22 -10t-10 -22zM448 1168q0 -12 10 -22t22 -10h832q12 0 22 10t10 22t-10 22t-22 10h-832q-12 0 -22 -10t-10 -22z" />
<glyph unicode="&#x117;" d="M0 832q0 -264 28 -412q0 -18 13 -29t31 -11h128q15 0 28 10t16 22h44q8 -4 16 -12q77 -48 144 -48q128 0 208 16q84 17 88 80v28q25 6 43 28.5t21 51.5q0 28 -12 56q40 20 40 68q0 32 -8 48q19 6 33.5 25.5t14.5 42.5q0 37 -21 56.5t-51 19.5q-192 8 -224 8 q13 42 16 103.5t-8 100.5q-41 96 -96 104q-25 0 -36 -16q-18 -18 -12 -36q7 -28 7 -53t-3.5 -42.5t-16.5 -41.5t-21.5 -37t-29.5 -42q-38 -48 -52 -72h-84q-3 12 -16 20t-28 8h-152q-21 0 -34.5 -13t-13.5 -31zM32 832q0 6 5 11t11 5h152q6 0 11 -5t5 -11v-404q0 -6 -5 -11 t-11 -5h-128q-6 0 -11 4.5t-5 7.5q-24 148 -24 408zM140 476q0 -8 4 -12t12 -4t8 4q8 8 8 12q0 8 -8 8q-3 6 -10 6t-10 -6q-4 0 -4 -8zM248 444v372h60l-12 -24q-6 -13 8 -20q11 -5 20 4q32 69 80 124q25 36 31 45t22.5 39.5t19 48.5t3 48t-7.5 63l8 8l8 4q39 -5 72 -80 q10 -44 4.5 -107.5t-16.5 -92.5h-36q-16 0 -16 -12q0 -16 16 -16h44h4q132 0 240 -8q17 0 30.5 -11t13.5 -33q0 -18 -12.5 -31t-27.5 -13h-168q-16 0 -16 -12q0 -16 16 -16h160q12 -18 12 -44q-3 -22 -17.5 -37t-34.5 -15h-136q-16 0 -16 -12q0 -16 16 -16h136h12 q8 -16 8 -40q-3 -25 -17 -40.5t-35 -15.5h-124q-12 0 -12 -16q0 -12 12 -12h112v-24q0 -42 -64 -56q-75 -16 -200 -16q-28 0 -54 9.5t-37 16t-33 22.5q-16 8 -20 12l-8 4h-48zM920 744q0 -36 21 -56.5t51 -23.5q92 -4 220 -4q-13 -41 -16 -105.5t8 -102.5q41 -96 96 -100 q18 -6 40 16q14 21 8 32q-14 66 2.5 109.5t65.5 110.5q24 30 48 72h84q13 -32 44 -32h152q21 0 34.5 13.5t13.5 34.5q0 264 -24 412q-3 15 -16.5 25.5t-31.5 10.5h-128q-31 0 -44 -32h-44l-16 12q-73 52 -144 52q-129 0 -204 -16q-88 -15 -92 -84q0 -20 4 -28 q-28 -6 -46 -28.5t-18 -51.5q0 -36 8 -52q-18 -9 -29 -28t-11 -40q0 -32 8 -48q-44 -22 -44 -68zM948 744q0 17 12 28.5t28 11.5h168q16 0 16 16t-16 16h-160q-8 12 -8 44q0 21 13.5 34.5t34.5 13.5h136q6 0 11 5t5 11t-5 11t-11 5h-136h-12q-8 16 -8 40q3 24 19 38t37 14 h120q6 0 11 5t5 11t-5 11t-11 5h-112v24q0 42 64 52q75 16 200 16q62 0 124 -44l24 -16h8h44v-372h-60l12 24q5 11 -4 20q-6 3 -13.5 0.5t-10.5 -8.5q-30 -59 -80 -124q-21 -29 -30.5 -43t-23.5 -40.5t-18 -47t-4 -49.5t8 -60q0 -4 -8 -12l-8 -4q-20 3 -39 28.5t-29 55.5 q-13 42 -7.5 107t19.5 89h32q16 0 16 16t-16 16h-44h-4q-36 -4 -240 4q-44 9 -44 48zM1576 708v404q0 12 16 12h128q16 0 16 -12q16 -98 22 -218t2 -186q0 -16 -16 -16h-152q-6 0 -11 5t-5 11zM1624 1064q0 -8 4 -12q3 -3 10 -3t10 3q4 4 4 12t-4 12t-8 4q-2 0 -6 -2t-6 -2 q-4 -4 -4 -12z" />
<glyph unicode="&#x118;" d="M0 768q0 -183 71 -349t190.5 -285.5t285.5 -190.5t349 -71t349 71t285.5 190.5t190.5 285.5t71 349t-71 349t-190.5 285.5t-285.5 190.5t-349 71t-349 -71t-285.5 -190.5t-190.5 -285.5t-71 -349zM64 768q0 169 66 323.5t177 265.5t265.5 177t323.5 66t323.5 -66 t265.5 -177t177 -265.5t66 -323.5t-66 -323.5t-177 -265.5t-265.5 -177t-323.5 -66t-323.5 66t-265.5 177t-177 265.5t-66 323.5zM128 768q0 -12 10 -22t22 -10h128q12 0 22 10t10 22t-10 22t-22 10h-128q-12 0 -22 -10t-10 -22zM229 409q-3 -13 3 -25q5 -16 28 -16 q8 0 16 4l108 64q13 6 16.5 19t-4.5 25q-6 12 -19 15t-25 -3l-108 -64q-12 -6 -15 -19zM229 1127q3 -13 15 -19l108 -64q8 -4 16 -4q23 0 28 16q8 12 4.5 25t-16.5 19l-108 64q-12 6 -25 3t-19 -15t-3 -25zM497 1413q-3 -13 3 -25l64 -108q11 -16 28 -16q12 0 16 4 q12 6 15 19t-3 25l-64 108q-6 12 -19 15t-25 -3t-15 -19zM576 224q0 -39 28.5 -67.5t67.5 -28.5h448q39 0 67.5 28.5t28.5 67.5v128q0 39 -28.5 67.5t-67.5 28.5h-448q-39 0 -67.5 -28.5t-28.5 -67.5v-128zM640 224v128q0 12 10 22t22 10h448q12 0 22 -10t10 -22v-128 q0 -12 -10 -22t-22 -10h-448q-12 0 -22 10t-10 22zM768 768q0 -54 37 -91t91 -37t91 37t37 91q0 31 -20 64l240 240q9 9 9 22t-9 22t-22 9t-22 -9l-240 -240q-33 20 -64 20q-54 0 -91 -37t-37 -91zM832 768q0 27 18.5 45.5t45.5 18.5t45.5 -18.5t18.5 -45.5t-18.5 -45.5 t-45.5 -18.5t-45.5 18.5t-18.5 45.5zM864 1376q0 -12 10 -22t22 -10t22 10t10 22v128q0 12 -10 22t-22 10t-22 -10t-10 -22v-128zM1169 1287q3 -13 15 -19q4 -4 16 -4q17 0 28 16l64 108q6 12 3 25t-15 19t-25 3t-19 -15l-64 -108q-6 -12 -3 -25zM1391.5 455 q3.5 -13 16.5 -19l108 -64q8 -4 16 -4q23 0 28 16q6 12 3 25t-15 19l-108 64q-12 6 -25 3t-19 -15q-8 -12 -4.5 -25zM1391.5 1081q-3.5 -13 4.5 -25q5 -16 28 -16q8 0 16 4l108 64q12 6 15 19t-3 25t-19 15t-25 -3l-108 -64q-13 -6 -16.5 -19zM1472 768q0 -12 10 -22t22 -10 h128q12 0 22 10t10 22t-10 22t-22 10h-128q-12 0 -22 -10t-10 -22z" />
<glyph unicode="&#x119;" d="M0 52q0 -39 26 -65.5t62 -26.5h60q39 0 65.5 26.5t26.5 65.5v148h356v-28q0 -39 26.5 -65.5t65.5 -26.5h60q36 0 62 26.5t26 65.5v28h60v-28q0 -39 26 -65.5t62 -26.5h60q39 0 65.5 26.5t26.5 65.5v28h60v-28q0 -39 26 -65.5t62 -26.5h60q36 0 62 26.5t26 65.5v28h120 v-148q0 -39 26.5 -65.5t65.5 -26.5h60q36 0 62 26.5t26 65.5v1432q0 36 -26 64t-62 28h-60q-38 0 -65 -27.5t-27 -64.5v-148h-120v28q0 39 -26 65.5t-62 26.5h-60q-36 0 -62 -26.5t-26 -65.5v-28h-60v28q0 39 -26.5 65.5t-65.5 26.5h-60q-36 0 -62 -26.5t-26 -65.5v-28h-300 v28q0 39 -26 65.5t-62 26.5h-60q-36 0 -62 -26.5t-26 -65.5v-28h-120v148q0 37 -27 64.5t-65 27.5h-60q-36 0 -62 -28t-26 -64v-1432zM60 52v1432q0 12 8 22t20 10h60q12 0 22 -10t10 -22v-1432q0 -12 -10 -22t-22 -10h-60q-12 0 -20 10t-8 22zM240 260v300h120v-32 q0 -36 26 -62t62 -26h60q36 0 62 26t26 62v32h60v-32q0 -36 26.5 -62t65.5 -26h60q36 0 62 26t26 62v32h60v-32q0 -36 26 -62t62 -26h60q39 0 65.5 26t26.5 62v32h356v-300h-120v28q0 39 -26 65.5t-62 26.5h-60q-36 0 -62 -26.5t-26 -65.5v-28h-60v28q0 39 -26.5 65.5 t-65.5 26.5h-60q-36 0 -62 -26.5t-26 -65.5v-28h-60v28q0 39 -26 65.5t-62 26.5h-60q-39 0 -65.5 -26.5t-26.5 -65.5v-28h-356zM240 620v296h120v-28q0 -39 26 -65.5t62 -26.5h60q36 0 62 26.5t26 65.5v28h60v-28q0 -39 26.5 -65.5t65.5 -26.5h60q36 0 62 26.5t26 65.5v28 h300v-28q0 -39 26 -65.5t62 -26.5h60q36 0 62 26.5t26 65.5v28h120v-296h-356v28q0 36 -26.5 62t-65.5 26h-60q-36 0 -62 -26t-26 -62v-28h-60v28q0 36 -26 62t-62 26h-60q-39 0 -65.5 -26t-26.5 -62v-28h-60v28q0 36 -26 62t-62 26h-60q-36 0 -62 -26t-26 -62v-28h-120z M240 976v300h120v-32q0 -36 26 -62t62 -26h60q36 0 62 26t26 62v32h300v-32q0 -36 26 -62t62 -26h60q39 0 65.5 26t26.5 62v32h60v-32q0 -36 26 -62t62 -26h60q36 0 62 26t26 62v32h120v-300h-120v32q0 36 -26 62t-62 26h-60q-36 0 -62 -26t-26 -62v-32h-300v32q0 36 -26 62 t-62 26h-60q-39 0 -65.5 -26t-26.5 -62v-32h-60v32q0 36 -26 62t-62 26h-60q-36 0 -62 -26t-26 -62v-32h-120zM420 528v120q0 12 8 20t20 8h60q12 0 20 -8t8 -20v-120q0 -12 -8 -20t-20 -8h-60q-12 0 -20 8t-8 20zM420 888v120q0 12 8 20t20 8h60q12 0 20 -8t8 -20v-120 q0 -12 -8 -22t-20 -10h-60q-12 0 -20 10t-8 22zM420 1244v120q0 12 8 22t20 10h60q12 0 20 -10t8 -22v-120q0 -12 -8 -20t-20 -8h-60q-12 0 -20 8t-8 20zM656 172v116q0 14 9.5 23t22.5 9h60q12 0 20 -8.5t8 -23.5v-116q0 -15 -8 -23.5t-20 -8.5h-60q-13 0 -22.5 9t-9.5 23z M716 528v120q0 12 10 20t22 8h60q12 0 20 -8t8 -20v-120q0 -12 -8 -20t-20 -8h-60q-12 0 -22 8t-10 20zM716 888v120q0 12 10 20t22 8h60q12 0 20 -8t8 -20v-120q0 -12 -8 -22t-20 -10h-60q-12 0 -22 10t-10 22zM956 172v116q0 15 8 23.5t20 8.5h60q13 0 22.5 -9t9.5 -23 v-116q0 -14 -9.5 -23t-22.5 -9h-60q-12 0 -20 8.5t-8 23.5zM956 1244v120q0 12 8 22t20 10h60q12 0 22 -10t10 -22v-120q0 -12 -10 -20t-22 -8h-60q-12 0 -20 8t-8 20zM1016 528v120q0 12 8 20t20 8h60q12 0 22 -8t10 -20v-120q0 -12 -10 -20t-22 -8h-60q-12 0 -20 8t-8 20z M1256 172v116q0 15 8 23.5t20 8.5h60q12 0 20 -8.5t8 -23.5v-116q0 -15 -8 -23.5t-20 -8.5h-60q-12 0 -20 8.5t-8 23.5zM1256 888v120q0 12 8 20t20 8h60q12 0 20 -8t8 -20v-120q0 -12 -8 -22t-20 -10h-60q-12 0 -20 10t-8 22zM1256 1244v120q0 12 8 22t20 10h60 q12 0 20 -10t8 -22v-120q0 -12 -8 -20t-20 -8h-60q-12 0 -20 8t-8 20zM1612 52v1432q0 12 10 22t22 10h60q12 0 20 -10t8 -22v-1432q0 -12 -8 -22t-20 -10h-60q-12 0 -22 10t-10 22z" />
<glyph unicode="&#x11d;" horiz-adv-x="1788" d="M4 636q-24 -108 48 -200q78 -84 184 -84q72 0 120 32v-244q0 -36 26 -62t62 -26h304q12 0 22 8t10 20t-16 28q-30 30 -41.5 72t-2.5 84q9 53 46.5 92.5t89.5 51.5q6 0 19 2t17 2q74 0 127 -53.5t53 -126.5q0 -82 -52 -128q-6 -6 -8.5 -16t0.5 -16q7 -20 28 -20h304 q36 0 62 26t26 62v244q48 -32 120 -32q106 0 184 84q72 92 48 200q-12 72 -64 124t-124 64q-85 18 -164 -28v240q0 39 -26 65.5t-62 26.5h-244q46 79 28 164q-12 72 -64 124t-124 64q-16 4 -44 4q-99 0 -169.5 -68.5t-70.5 -167.5q0 -62 32 -120h-244q-36 0 -62 -26.5 t-26 -65.5v-240q-79 46 -164 28q-72 -12 -124 -64t-64 -124zM60 624q12 54 50.5 92.5t89.5 47.5q98 18 164 -48q6 -6 16 -8.5t16 0.5q20 7 20 28v300q0 12 8 22t20 10h304q20 0 28 16q7 21 -8 36q-52 46 -52 128q0 72 52.5 124t127.5 52h36q52 -12 89.5 -51.5t46.5 -92.5 q20 -98 -48 -160q-15 -15 -8 -36q8 -16 28 -16h304q12 0 20 -10t8 -22v-300q0 -21 20 -28q6 -3 16 -0.5t16 8.5q66 66 164 48q51 -9 89.5 -47.5t50.5 -92.5q14 -88 -40 -148q-47 -64 -136 -64q-82 0 -128 52q-6 6 -16 8.5t-16 -0.5q-20 -7 -20 -28v-304q0 -12 -8 -20t-20 -8 h-244q32 58 32 120q0 99 -70.5 167.5t-169.5 68.5q-28 0 -44 -4q-72 -12 -124 -64t-64 -124q-18 -85 28 -164h-244q-12 0 -20 8t-8 20v304q0 21 -20 28q-6 3 -16 0.5t-16 -8.5q-46 -52 -128 -52q-89 0 -136 64q-54 60 -40 148z" />
<glyph unicode="&#x11e;" d="M0 -32q0 -12 10 -22t22 -10h32v-32q0 -12 10.5 -22t25.5 -10q12 0 22 10t10 22v32h124v-32q0 -12 10 -22t22 -10q14 0 23 9.5t9 22.5v32h128v-32q0 -12 10 -22t22 -10q14 0 23 9.5t9 22.5v32h128v-32q0 -12 10 -22t22 -10q14 0 23 9.5t9 22.5v32h128v-32q0 -12 10 -22 t22 -10q14 0 23 9.5t9 22.5v32h128v-32q0 -12 10 -22t22 -10q15 0 25.5 10t10.5 22v32h124v-32q0 -12 10 -22t22 -10q14 0 23 9.5t9 22.5v32h128v-32q0 -12 10 -22t22 -10q14 0 23 9.5t9 22.5v32h128v-32q0 -12 10 -22t22 -10q14 0 23 9.5t9 22.5v32h96q14 0 23 9.5t9 22.5 t-9 22.5t-23 9.5h-1628v276l200 248q24 -12 52 -12q49 0 92 36l428 -256q-8 -24 -8 -36q0 -53 38 -90.5t90 -37.5q54 0 91 37t37 91q0 52 -32 84l504 756q24 -8 40 -8q54 0 91 37t37 91t-37 91t-91 37q-52 0 -90 -37.5t-38 -90.5q0 -48 36 -84l-504 -756q-24 8 -44 8 q-45 0 -88 -36l-428 256q4 12 4 36q0 54 -37 91t-91 37q-52 0 -90 -37.5t-38 -90.5q0 -41 28 -76l-152 -188v540l200 248q24 -12 52 -12q45 0 80 27t44 69h396q9 -42 43.5 -69t76.5 -27q16 0 40 8l192 -308q6 -12 24 -12q12 0 20 4q10 7 13 19t-5 25l-188 304q32 38 32 88 q0 54 -37 91t-91 37q-42 0 -76.5 -27t-43.5 -69h-396q-9 42 -44 69t-80 27q-52 0 -90 -37.5t-38 -90.5q0 -41 28 -76l-152 -188v616q0 12 -10 22t-22 10q-15 0 -25.5 -10t-10.5 -22v-32h-32q-12 0 -22 -10t-10 -22t10 -22t22 -10h32v-192h-32q-12 0 -22 -10t-10 -22t10 -22 t22 -10h32v-128h-32q-12 0 -22 -10t-10 -22t10 -22t22 -10h32v-128h-32q-12 0 -22 -10t-10 -22t10 -22t22 -10h32v-128h-32q-12 0 -22 -10t-10 -22t10 -22t22 -10h32v-128h-32q-12 0 -22 -10t-10 -22t10 -22t22 -10h32v-128h-32q-12 0 -22 -10t-10 -22t10 -22t22 -10h32 v-128h-32q-12 0 -22 -10t-10 -22t10 -22t22 -10h32v-128h-32q-12 0 -22 -10t-10 -22zM320 640q0 26 19.5 45t44.5 19q27 0 45.5 -18.5t18.5 -45.5q0 -24 -8 -32q-19 -32 -56 -32q-25 0 -36 16h-4q-24 24 -24 48zM320 1280q0 26 19.5 45t44.5 19q27 0 45.5 -18.5t18.5 -45.5 t-18.5 -45.5t-45.5 -18.5q-25 0 -36 16h-4q-24 24 -24 48zM964 256q0 24 8 32q19 32 52 32q27 0 47.5 -18.5t20.5 -45.5t-20.5 -45.5t-47.5 -18.5q-24 0 -42 18.5t-18 45.5zM964 1280q0 27 18 45.5t42 18.5q27 0 47.5 -18.5t20.5 -45.5q0 -39 -32 -52v-4q-24 -8 -36 -8 q-24 0 -42 18.5t-18 45.5zM1400.5 641q-2.5 -13 3.5 -25l168 -272q-36 -43 -36 -88q0 -53 38 -90.5t90 -37.5q54 0 91 37t37 91t-37 91t-91 37q-12 0 -36 -8l-172 272q-6 12 -19 15t-25 -3q-9 -6 -11.5 -19zM1600 256q0 39 32 52v4q24 8 32 8q27 0 45.5 -18.5t18.5 -45.5 t-18.5 -45.5t-45.5 -18.5q-25 0 -44.5 19t-19.5 45zM1600 1216q0 26 19.5 45t44.5 19q27 0 45.5 -18.5t18.5 -45.5t-18.5 -45.5t-45.5 -18.5q-25 0 -44.5 19t-19.5 45z" />
<glyph unicode="&#x11f;" horiz-adv-x="1796" d="M0 768q0 -183 71.5 -349t192 -285.5t287 -190.5t349.5 -71q151 0 293.5 50t262.5 146q24 -24 64 -24q42 0 71 31t29 73q0 31 -20 64q94 118 145 261.5t51 294.5q0 182 -69 344t-195 288q0 4 -4 4q-122 122 -285 191t-343 69q-315 0 -560 -196q-24 24 -64 24 q-42 0 -71 -31t-29 -73q0 -31 20 -64q-94 -118 -145 -261.5t-51 -294.5zM72 768q0 142 47 275.5t137 244.5q8 -4 20 -4q44 0 74 30.5t30 73.5v24q109 88 243 136t277 48q156 0 299.5 -58t256.5 -162l-144 -148q-134 122 -316 152q-6 33 -33 54.5t-63 21.5q-39 0 -66.5 -21.5 t-33.5 -54.5q-199 -33 -340.5 -174t-171.5 -338q-34 -9 -57 -37t-23 -63t23 -63t57 -37q36 -226 209 -373t403 -147q125 0 240 49t198 131.5t132.5 197.5t49.5 242q0 116 -42 223t-118 189l144 148q104 -114 162 -257.5t58 -302.5q0 -142 -47 -275.5t-137 -244.5q-8 4 -20 4 q-44 0 -74 -30.5t-30 -73.5v-24q-109 -88 -242.5 -136t-273.5 -48q-169 0 -322.5 65.5t-264.5 177t-176 264.5t-65 321zM244 1388q0 15 10 25.5t22 10.5q19 0 32 -20q4 -4 4 -16q0 -8 -4 -12v-4l-8 -8l-8 -8h-4h-8h-4h-8q-4 0 -8 4q-16 8 -16 28zM276 768q0 29 36 36l4 -4 h12q1 -1 3.5 -2.5t3.5 -2.5t1 -3l4 -4q4 -4 4 -8q0 -2 2 -6t2 -6t-2 -6t-2 -6l-4 -8l-4 -4q0 -2 -1 -3t-3.5 -2.5t-3.5 -2.5h-12q0 -4 -4 -4q-36 7 -36 36zM356 676q8 0 20 12l4 4q4 2 7 5t6.5 7.5t6.5 7.5q8 16 8 24l4 4l4 28q0 4 -2 14t-2 14t-4 4q0 8 -8 24 q-3 3 -6.5 7.5t-6.5 7.5t-7 5q0 4 -4 4q-4 4 -20 12q30 175 152.5 298.5t295.5 153.5q8 -16 16 -24v-4q4 -2 10 -8t10 -8h4q4 -4 20 -12h8q8 -4 28 -4q16 0 24 4h8l24 12q4 2 10 8t10 8v4q8 8 16 24q159 -30 272 -132l-196 -196q-80 60 -168 60q-116 0 -196 -80.5 t-80 -195.5t80 -195.5t196 -80.5q114 0 193 81t79 195q0 100 -56 168l196 196q136 -155 136 -364q0 -150 -73 -277t-199.5 -201t-275.5 -74q-203 0 -357 130.5t-187 329.5zM692 768q0 87 60.5 147.5t147.5 60.5q63 0 116 -40l-144 -144q-9 -9 -9 -24t9 -24q12 -12 28 -12 q12 0 24 12l144 144q36 -54 36 -120q0 -87 -60 -147.5t-144 -60.5q-87 0 -147.5 60.5t-60.5 147.5zM864 1352v4q0 12 10.5 22t25.5 10q12 0 22 -10t10 -22v-4q0 -8 -4 -12q0 -4 -8 -12l-8 -4q-4 -4 -12 -4q-12 0 -16 4q-4 0 -8 4q-8 8 -8 12q-4 4 -4 12zM1484 148q0 8 4 12 v4q4 4 4 8h4l8 8h4h8h4h8q4 0 8 -4q16 -8 16 -28q0 -15 -10 -25.5t-22 -10.5q-19 0 -32 20q-4 4 -4 16z" />
<glyph unicode="&#x120;" horiz-adv-x="1496" d="M0 1156q0 -60 44.5 -104t107.5 -44h1072q63 0 107.5 44t44.5 104v148h28q12 0 22 -8t10 -20v-360q0 -12 -10 -20t-22 -8h-684q-39 0 -65.5 -26.5t-26.5 -65.5v-208h-180q-12 0 -20 -8t-8 -20v-120q0 -12 8 -22t20 -10h32v-448q0 -36 26 -62t62 -26h180q36 0 62 26t26 62 v448h32q12 0 20 10t8 22v120q0 12 -8 20t-20 8h-180v208q0 13 9 22.5t23 9.5h684q39 0 65.5 26t26.5 62v360q0 36 -26.5 62t-65.5 26h-28v152q0 60 -44.5 104t-107.5 44h-1072q-63 0 -107.5 -44t-44.5 -104v-360zM60 1156v360q0 36 26.5 62t65.5 26h1072q39 0 65.5 -26 t26.5 -62v-360q0 -36 -26.5 -62t-65.5 -26h-1072q-39 0 -65.5 26t-26.5 62zM480 468v60h356v-60h-356zM540 -8h236v-32q0 -12 -8 -20t-20 -8h-180q-12 0 -20 8t-8 20v32zM540 52v356h236v-356h-236z" />
<glyph unicode="&#x121;" d="M0 768q0 -183 71 -349t190.5 -285.5t285.5 -190.5t349 -71q181 0 347 71t286 190.5t191.5 285.5t71.5 349t-71.5 349t-191.5 285.5t-286 190.5t-347 71q-183 0 -349 -71t-285.5 -190.5t-190.5 -285.5t-71 -349zM36 768q0 174 68 332.5t183 273t274.5 182.5t334.5 68 q174 0 332.5 -68t273 -182.5t182.5 -273t68 -332.5t-68 -332.5t-182.5 -273t-273 -182.5t-332.5 -68q-175 0 -334.5 68t-274.5 182.5t-183 273t-68 332.5zM388 768q0 20 20 20q7 0 13.5 -6t6.5 -14q0 -193 137 -330.5t331 -137.5q94 0 180 37.5t148 100.5t99 149.5t37 180.5 t-37 180.5t-99 149.5t-148 100.5t-180 37.5q-208 0 -352 -156h156q7 0 13.5 -6t6.5 -14t-6.5 -14t-13.5 -6h-196h-4l-4 4h-4q0 2 -2 4t-2 4l-4 4v4v196q0 7 6 13.5t14 6.5t14 -6.5t6 -13.5v-144q73 79 169 121.5t203 42.5q136 0 252 -68t184 -185t68 -255t-68 -255 t-184 -185t-252 -68q-103 0 -197 40.5t-162 108.5t-108.5 162t-40.5 197z" />
<glyph unicode="&#x122;" d="M0 768q0 -183 71 -349t190.5 -285.5t285.5 -190.5t349 -71t349 71t285.5 190.5t190.5 285.5t71 349t-71 349t-190.5 285.5t-285.5 190.5t-349 71t-349 -71t-285.5 -190.5t-190.5 -285.5t-71 -349zM68 768q0 168 66 321.5t176.5 264t264 176.5t321.5 66t321.5 -66 t264 -176.5t176.5 -264t66 -321.5t-66 -321.5t-176.5 -264t-264 -176.5t-321.5 -66t-321.5 66t-264 176.5t-176.5 264t-66 321.5zM551.5 701.5q-0.5 -13.5 8.5 -25.5l208 -240q6 -12 28 -12q19 0 24 16l416 620q14 28 -12 48q-28 14 -48 -12l-388 -580l-176 204 q-9 12 -24 12.5t-24 -8.5q-12 -9 -12.5 -22.5z" />
<glyph unicode="&#x126;" horiz-adv-x="1660" d="M4 656q12 -94 48 -136q18 -24 40 -24q14 0 8 24q-31 174 32 248q82 106 192 112q59 6 104 -20q42 -30 120 -108l-8 -20q-18 -18 4 -40l48 -48l-388 -372q-48 -42 -48 -108t44 -116q44 -44 112 -44q60 -11 108 44l368 392q217 -230 372 -428q11 -11 28 0l200 204 q17 17 0 28l-428 384l144 156q16 22 52 16q8 0 16 -8q224 -66 376 80l8 4q0 4 4 4q94 94 100 216q6 104 -56 144l-192 -196l-8 -12l-8 -4q-4 -4 -16 -4t-16 4l-16 16l-164 168l-16 16q-4 4 -4 20q0 12 4 16l4 4l8 12l192 192q-12 30 -60 48q-49 18 -80 12q-114 -6 -212 -104 l-8 -8q-142 -154 -76 -384q4 -4 4 -20q5 -31 -16 -52l-152 -148q-14 14 -26 27t-18.5 20.5t-7.5 8.5q-16 16 -40 4l-20 -12q-133 133 -144 172q-18 72 12 132q17 40 68 40l32 -36q17 -11 28 0l124 124q16 16 0 32l-200 200q-17 17 -28 0l-124 -124q-17 -11 0 -28l16 -16 q0 -44 -20 -64q-14 -14 -52 -8q-38 0 -56 -12q-48 -36 -96 -84q-120 -120 -192 -300q-42 -139 -24 -236z" />
<glyph unicode="&#x137;" horiz-adv-x="1280" d="M0 128v512l200 -200l256 256l112 -112l-256 -256l200 -200h-512zM0 896v512h512l-200 -200l256 -256l-112 -112l-256 256zM712 584l112 112l256 -256l200 200v-512h-512l200 200zM712 952l256 256l-200 200h512v-512l-200 200l-256 -256z" />
<glyph unicode="&#x13f;" horiz-adv-x="1888" d="M0 176q273 -176 592 -176q496 0 804 344q300 342 300 760v48q125 94 192 200q-103 -48 -224 -60q130 77 172 216q-125 -78 -248 -96q-112 124 -280 124q-164 0 -276 -112t-112 -276q0 -48 8 -88q-488 24 -796 404q-52 -87 -52 -192q0 -211 172 -324q-86 0 -176 48v-4 q0 -140 92 -244q88 -106 220 -136q-59 -16 -104 -16q-8 0 -72 8q37 -118 136 -188q97 -74 224 -80q-210 -168 -480 -168q-4 0 -92 8z" />
<glyph unicode="&#x140;" horiz-adv-x="1536" d="M0 288q0 -117 85.5 -202.5t202.5 -85.5h532v596h-200v232h200v168q0 145 81 226.5t215 81.5q100 0 180 -8v-208h-120q-66 0 -91 -28t-25 -88v-144h228l-28 -232h-200v-596h188q117 0 202.5 85.5t85.5 202.5v960q0 117 -85.5 202.5t-202.5 85.5h-960q-117 0 -202.5 -85.5 t-85.5 -202.5v-960z" />
<glyph unicode="&#x141;" horiz-adv-x="1528" d="M0 40v-104q10 0 40.5 2t91 6.5t120.5 7.5q288 8 332 8q80 0 144 -4h144q98 0 188 12q203 41 328 148q65 55 102.5 142t37.5 190q0 157 -108.5 266t-283.5 150q56 22 92 44q38 17 84 49.5t68 62.5q60 86 60 180q0 75 -32 152q-54 120 -196 184q-134 64 -292 64h-68h-76 q-140 0 -404 -12q-176 -8 -364 -8v-92q16 0 32 -4q11 0 29 -2t23 -2q66 -7 104 -20q20 -13 20 -16q28 -45 28 -1108v-32v-40q0 -56 -4 -80q-2 -4 -4 -15.5t-4 -16.5q-6 -43 -20 -64q-52 -22 -116 -32q-30 -7 -60.5 -11t-35.5 -5zM576 1476q90 12 144 12q146 0 248 -60 q120 -69 120 -224q0 -178 -108 -248q-91 -64 -276 -64q-88 0 -116 8v72v84v88q0 92 -4 168q-8 144 -8 164zM584 356q4 44 4 76v172v172q30 12 112 12q22 0 55 -2t45 -2q110 -8 176 -36q94 -55 140 -132q44 -75 44 -196q0 -183 -100.5 -273.5t-307.5 -90.5q-65 0 -148 32 q-13 52 -16 76q-4 64 -4 192z" />
<glyph unicode="&#x142;" horiz-adv-x="1660" d="M0 580q0 -8 8 -48h336v148h-96v-56h-120q0 40 104 96q42 22 71 61.5t29 82.5q0 67 -44.5 105.5t-115.5 38.5q-55 0 -99 -26.5t-65 -73.5l76 -56q37 56 76 56q24 0 38 -13.5t14 -34.5q0 -22 -18.5 -41t-57.5 -43q-20 -12 -60 -44q-33 -26 -54.5 -66.5t-21.5 -85.5zM4 -4 q60 -60 160 -60q77 0 128.5 43.5t51.5 116.5q0 46 -28 81t-76 47l88 104v84h-312v-144h100v52h44h48q-44 -44 -76 -84q-24 -36 -32 -44l24 -52q100 6 100 -52q0 -23 -20 -37.5t-48 -14.5q-54 0 -100 40zM20 1480l64 -72q43 37 48 52v-12v-112v-116h-100v-92h312v92h-100v380 h-100zM464 204q0 -12 10 -22t22 -10h1132q12 0 22 10t10 22v176q0 12 -10 22t-22 10h-1132q-32 0 -32 -32v-176zM464 680q0 -12 10 -20t22 -8h1132q12 0 22 8t10 20v180q0 12 -10 20t-22 8h-1132q-15 0 -23.5 -8t-8.5 -20v-180zM464 1160q0 -12 10 -22t22 -10h1132 q12 0 22 10t10 22v176q0 12 -10 22t-22 10h-1132q-12 0 -22 -10t-10 -22v-176z" />
<glyph unicode="&#x143;" horiz-adv-x="1112" d="M0 -60q36 0 132 12q136 8 156 8q124 0 224 -4q48 0 92 -8q60 -12 92 -12q20 0 36 4h36q16 53 16 108q-49 8 -99.5 15.5t-73 11t-27.5 5.5v20q0 32 8 64q10 72 36 184l16 64q25 127 84 388q70 313 96 452q0 24 12 96q1 4 11 37.5t17 50.5q34 17 116 36l112 32q18 79 20 96 q-4 0 -108 -8q-200 -8 -236 -8h-132q-209 9 -292 16l-20 -112q4 0 24 -2t36 -2q89 -6 136 -32v-24q0 -28 -56 -320q-25 -131 -124 -592q-67 -311 -68 -312q-11 -69 -44 -108q-32 -21 -120 -40l-88 -24z" />
<glyph unicode="&#x144;" horiz-adv-x="1968" d="M0 164q0 -96 66 -162t162 -66h452q96 0 162 66t66 162v452q0 96 -66 162t-162 66h-264q-45 0 -78.5 33.5t-33.5 78.5v40q0 123 88.5 211.5t211.5 88.5h76q32 0 54 22.5t22 53.5v152q0 31 -22 53.5t-54 22.5h-76q-121 0 -231 -46.5t-193 -129.5q-85 -82 -132.5 -194 t-47.5 -234v-832zM1060 164q0 -96 66 -162t162 -66h452q96 0 162 66t66 162v452q0 96 -66 162t-162 66h-264q-47 0 -79.5 33t-32.5 79v40q0 123 88.5 211.5t211.5 88.5h76q30 0 53 23t23 53v152q0 30 -23 53t-53 23h-76q-121 0 -233.5 -47t-194.5 -129t-129 -194.5 t-47 -233.5v-832z" />
<glyph unicode="&#x145;" horiz-adv-x="2120" d="M0 164q0 -96 66 -162t162 -66t162 66t66 162q0 92 -68 160q-64 64 -160 64t-162 -65.5t-66 -158.5zM0 768q0 -96 66 -162t162 -66t162 66t66 162q0 92 -68 160t-160 68q-96 0 -162 -66t-66 -162zM0 1372q0 -93 66 -158.5t162 -65.5t162 65.5t66 158.5q0 98 -68 160 q-68 68 -160 68q-96 0 -162 -66t-66 -162zM608 48q0 -15 10.5 -25.5t25.5 -10.5h1436q15 0 27.5 10.5t12.5 25.5v228q0 15 -12.5 27.5t-27.5 12.5h-1436q-15 0 -25.5 -12.5t-10.5 -27.5v-228zM608 656q0 -15 10.5 -27.5t25.5 -12.5h1436q15 0 27.5 12.5t12.5 27.5v224 q0 15 -12.5 27.5t-27.5 12.5h-1436q-15 0 -25.5 -12.5t-10.5 -27.5v-224zM608 1260q0 -15 10.5 -27.5t25.5 -12.5h1436q15 0 27.5 12.5t12.5 27.5v228q0 15 -12.5 25.5t-27.5 10.5h-1436q-15 0 -25.5 -10.5t-10.5 -25.5v-228z" />
<glyph unicode="&#x146;" horiz-adv-x="1280" d="M0 80q0 -32 24 -56t56 -24q20 0 44 12l1112 664q44 38 44 92t-44 92l-1112 664q-18 12 -44 12q-32 0 -56 -24t-24 -56v-1376z" />
<glyph unicode="&#x1e9e;" d="M0 764q0 -225 105.5 -421.5t294.5 -322.5q4 -4 16 -4q16 0 28 12q6 12 3.5 25t-11.5 19q-174 117 -273 301t-99 391q0 210 99 394t273 298q9 9 11.5 22t-3.5 22q-9 12 -22 15t-22 -3q-189 -126 -294.5 -324t-105.5 -424zM256 764q0 -159 76 -300.5t208 -231.5q8 -4 20 -4 q18 0 24 12q9 12 6.5 25t-14.5 19q-120 81 -188 208.5t-68 271.5t68 271.5t188 208.5q26 20 8 44q-6 12 -19 14.5t-25 -6.5q-132 -87 -208 -228.5t-76 -303.5zM512 764q0 -96 45.5 -181t126.5 -139q4 -4 16 -4q17 0 28 16q6 9 3.5 22t-11.5 22q-69 45 -106.5 114t-37.5 150 q0 82 37.5 152.5t106.5 115.5q9 6 11.5 19t-3.5 25q-9 12 -22 14.5t-22 -6.5q-81 -54 -126.5 -139t-45.5 -181zM768 764q0 -52 37.5 -90t90.5 -38t90.5 38t37.5 90q0 54 -37 91t-91 37t-91 -37t-37 -91zM832 764q0 27 18.5 45.5t45.5 18.5t45.5 -18.5t18.5 -45.5 t-18.5 -45.5t-45.5 -18.5t-45.5 18.5t-18.5 45.5zM1060.5 478q-2.5 -13 3.5 -22q11 -16 28 -16q12 0 16 4q81 54 126.5 139t45.5 181t-45.5 181t-126.5 139q-9 9 -22 6.5t-22 -14.5q-6 -12 -3.5 -25t11.5 -19q69 -45 106.5 -115.5t37.5 -152.5q0 -81 -37.5 -150t-106.5 -114 q-9 -9 -11.5 -22zM1201.5 265q-2.5 -13 6.5 -25q6 -12 24 -12q12 0 20 4q132 90 208 231.5t76 300.5q0 162 -76 303.5t-208 228.5q-12 9 -25 6.5t-19 -14.5q-18 -24 8 -44q120 -81 188 -208.5t68 -271.5t-68 -271.5t-188 -208.5q-12 -6 -14.5 -19zM1344.5 53 q-2.5 -13 3.5 -25q12 -12 28 -12q12 0 16 4q189 126 294.5 322.5t105.5 421.5q0 226 -105.5 424t-294.5 324q-9 6 -22 3t-22 -15q-6 -9 -3.5 -22t11.5 -22q174 -114 273 -298t99 -394q0 -207 -99 -391t-273 -301q-9 -6 -11.5 -19z" />
<glyph unicode="&#x2000;" horiz-adv-x="898" />
<glyph unicode="&#x2001;" horiz-adv-x="1796" />
<glyph unicode="&#x2002;" horiz-adv-x="898" />
<glyph unicode="&#x2003;" horiz-adv-x="1796" />
<glyph unicode="&#x2004;" horiz-adv-x="598" />
<glyph unicode="&#x2005;" horiz-adv-x="449" />
<glyph unicode="&#x2006;" horiz-adv-x="299" />
<glyph unicode="&#x2007;" horiz-adv-x="299" />
<glyph unicode="&#x2008;" horiz-adv-x="224" />
<glyph unicode="&#x2009;" horiz-adv-x="359" />
<glyph unicode="&#x200a;" horiz-adv-x="99" />
<glyph unicode="&#x202f;" horiz-adv-x="359" />
<glyph unicode="&#x205f;" horiz-adv-x="449" />
<glyph unicode="&#x2150;" horiz-adv-x="1608" d="M0 -36q0 -12 10 -22t22 -10h616q14 0 23 9.5t9 22.5t-9 22.5t-23 9.5h-584v1608h924v-280q0 -12 10 -22t22 -10h280v-524q0 -12 8 -22t20 -10q14 0 23 9.5t9 22.5v556q0 8 -4 12l-4 8l-308 312q-2 0 -6 2t-6 2q-4 4 -12 4h-988q-13 0 -22.5 -9t-9.5 -23v-1668zM804 -88 q-6 -18 8 -32q16 -8 24 -8h8l264 88q2 2 6 4t6 4l372 376l88 84q28 35 28 68q0 36 -28 64l-88 88q-27 27 -66 27t-66 -27l-84 -88l-376 -376q-2 0 -3 -1t-2.5 -3.5t-2.5 -3.5zM884 -48l56 172l88 -28l28 -88zM980 180l316 316l132 -132l-316 -316l-28 84q-7 13 -20 20z M1052 1356v204l204 -204h-204zM1340 540l64 64q9 9 22 9t22 -9l88 -88q8 -4 8 -20t-8 -24l-64 -64z" />
<glyph unicode="&#x2151;" d="M0 772q0 -183 71 -350t190.5 -288.5t285.5 -193.5t349 -72t349 72t285.5 193.5t190.5 288.5t71 350q0 181 -71 347t-190.5 286t-285.5 191.5t-349 71.5t-349 -71.5t-285.5 -191.5t-190.5 -286t-71 -347zM68 772q0 168 65.5 320.5t177 263t264.5 175.5t321 65t321 -65 t264.5 -175.5t177 -263t65.5 -320.5q0 -152 -54 -292.5t-150 -251.5q-140 102 -368 144q-12 0 -12 12v84q0 24 32 88q48 87 52 144q44 94 44 164q0 41 -16 68q0 12 8 44q0 12 8 52q24 128 -24 218.5t-160 129.5l-56 16q-194 43 -256 100q-18 18 -44 12q-24 -10 -29 -56 q-1 -7 -2 -24l-1 -12q0 -40 -4 -48q-108 -51 -148.5 -133t-19.5 -203q8 -40 8 -52q8 -32 8 -44q-16 -27 -16 -68q0 -70 44 -164q4 -52 48 -140q36 -58 36 -92v-84q0 -12 -12 -12q-228 -42 -368 -144q-96 111 -150 251.5t-54 292.5zM320 176q121 91 332 128q30 3 50.5 28.5 t17.5 55.5v80q0 44 -40 124q-3 5 -10 19.5t-10.5 21t-9 19t-8 21t-4.5 19t-2 20.5v8l-4 4q-40 87 -40 140q0 24 12 36l12 12l-4 16l-12 60q0 12 -8 52q-18 99 14 160.5t122 103.5q22 8 29 34t7 74q17 -11 39.5 -21t38.5 -16.5t45.5 -16t40 -12.5t44 -12t36.5 -10 q42 -7 52 -12q176 -67 140 -272q-8 -40 -8 -52l-12 -60l-4 -16l12 -12q12 -12 12 -36q0 -53 -40 -140l-4 -4v-8q0 -11 -2 -22.5t-4.5 -20t-8 -21.5t-8.5 -19t-11 -21.5t-10 -19.5q-40 -80 -40 -120v-80q-3 -30 17.5 -55.5t50.5 -28.5q211 -37 332 -128 q-114 -111 -263 -173.5t-313 -62.5t-313 62.5t-263 173.5z" />
<glyph unicode="&#x2152;" d="M0 32q0 -39 28.5 -67.5t67.5 -28.5h1600q39 0 67.5 28.5t28.5 67.5v1472q0 39 -28.5 67.5t-67.5 28.5h-1600q-39 0 -67.5 -28.5t-28.5 -67.5v-1472zM64 32v1472q0 12 10 22t22 10h1600q12 0 22 -10t10 -22v-1472q0 -12 -10 -22t-22 -10h-1600q-12 0 -22 10t-10 22z M128 96q0 -12 10 -22t22 -10h1472q12 0 22 10t10 22v1344q0 12 -10 22t-22 10h-1472q-12 0 -22 -10t-10 -22v-1344zM192 128v1280h1408v-1280h-1408zM255 672q0 -15 9 -24q16 -8 24 -8t24 8l128 128q9 9 9 24t-9 24t-24 9t-24 -9l-128 -128q-9 -9 -9 -24zM448 896 q0 -27 18.5 -45.5t45.5 -18.5t45.5 18.5t18.5 45.5t-18.5 45.5t-45.5 18.5t-45.5 -18.5t-18.5 -45.5zM575 800q0 -15 9 -24l128 -128q16 -8 24 -8t24 8q9 9 9 24t-9 24l-128 128q-9 9 -24 9t-24 -9t-9 -24zM768 576q0 -27 18.5 -45.5t45.5 -18.5t45.5 18.5t18.5 45.5 t-18.5 45.5t-45.5 18.5t-45.5 -18.5t-18.5 -45.5zM895 672q0 -15 9 -24q16 -8 24 -8t24 8l256 256q9 9 9 24t-9 24t-24 9t-24 -9l-256 -256q-9 -9 -9 -24zM1216 1024q0 -27 18.5 -45.5t45.5 -18.5t45.5 18.5t18.5 45.5t-18.5 45.5t-45.5 18.5t-45.5 -18.5t-18.5 -45.5z M1343 928q0 -15 9 -24l128 -128q16 -8 24 -8t24 8q9 9 9 24t-9 24l-128 128q-9 9 -24 9t-24 -9t-9 -24z" />
<glyph unicode="&#x233c;" horiz-adv-x="1024" d="M0 128h64v572q78 28 208 28q36 0 256 -52q162 -36 276 -36q24 0 156 12q20 0 32 4q24 0 32 4v692q-8 -4 -32 -4q-12 -4 -32 -4l-64 -8q-80 -8 -96 -8q-15 0 -260 44q-162 36 -268 36q-166 0 -260 -44l-12 -12v-1224z" />
<glyph unicode="&#x25fc;" horiz-adv-x="1660" d="M0 0v1660h1660v-1660h-1660z" />
<glyph unicode="&#x350b;" d="M0 768q0 -183 71 -349t190.5 -285.5t285.5 -190.5t349 -71t349 71t285.5 190.5t190.5 285.5t71 349q0 181 -71 347t-190.5 286t-285.5 191.5t-349 71.5t-349 -71.5t-285.5 -191.5t-190.5 -286t-71 -347zM68 768q0 168 65.5 320.5t177 263t264.5 175.5t321 65t321 -65 t264.5 -175.5t177 -263t65.5 -320.5q0 -169 -65.5 -322.5t-177 -264.5t-264.5 -176t-321 -65t-321 65t-264.5 176t-177 264.5t-65.5 322.5zM744 1040l120 -388q6 -24 32 -24t32 24l120 388q25 76 -24 144q-45 64 -128 64t-128 -64q-49 -68 -24 -144zM760 420 q0 -57 39.5 -96.5t96.5 -39.5t96.5 39.5t39.5 96.5t-39.5 98.5t-96.5 41.5t-96.5 -41.5t-39.5 -98.5zM808 1060q-14 48 12 80q33 40 76 40t76 -40q26 -32 12 -80l-88 -280zM828 420q0 30 19 51t49 21q27 0 47.5 -21t20.5 -51q0 -27 -20.5 -47.5t-47.5 -20.5q-29 0 -48.5 20 t-19.5 48z" />
<glyph unicode="&#x350c;" horiz-adv-x="1704" d="M4 12q19 -64 80 -76q306 -68 688 -68q72 0 216 8q14 0 23 9.5t9 22.5q-3 14 -12.5 22.5t-23.5 5.5q-68 -4 -212 -4q-356 0 -676 64q-27 14 -32 32q0 29 16 40q134 117 376 160q36 -54 123.5 -101t196.5 -47q44 0 68 4q12 3 19.5 13.5t4.5 22.5t-13.5 19.5t-22.5 4.5 q-10 0 -28 -2t-28 -2q-96 0 -170 40t-98 80q8 8 8 12q22 27 28 84q123 -100 188 -100l16 4q8 8 28 8q16 0 32 -8q12 -3 24.5 2.5t15.5 17.5q6 12 1 24.5t-17 15.5q-20 8 -56 8q-32 0 -48 -8q-69 14 -196 128q-13 23 -32.5 64t-42.5 108t-25 112q0 12 -16 28q-30 14 -45 63.5 t-15 100.5q0 20 32 44q0 2 1 3t3.5 2.5t3.5 2.5q11 11 4 32q-4 20 -20 44q3 12 11.5 18.5t40.5 21.5q8 4 24 10t24 10q24 12 64 44q8 4 44 28q-23 -81 16 -152q8 -16 20 -16q13 -7 24 4q51 38 103.5 52t86.5 12t90 -12q125 -25 200 0q23 8 40 -4q12 -12 12 -28q-2 0 -6 -2 t-6 -2q-24 -8 -24 -32q-5 -15 8 -28q0 -2 1 -3t3.5 -2.5t3.5 -2.5q28 -28 28 -44q0 -53 -16 -101.5t-44 -62.5q-25 -19 -12 -44q6 -12 19 -15t25 3q29 17 48.5 49.5t27 70t10 59.5t2.5 41q0 40 -24 64q4 4 4 8t8 12q21 51 24 96q18 135 -53 245t-203 155q-8 4 -72 20 q-71 18 -115.5 30.5t-110 40.5t-94.5 57q-15 12 -44 12q-12 -5 -19 -19.5t-8.5 -27t-3.5 -44.5v-3t-0.5 -3t-0.5 -3.5v-3.5q0 -56 -8 -68q-302 -139 -236 -416q2 -7 5.5 -13.5t10 -15t8.5 -11.5t9 -13t11 -19q-40 -32 -40 -80q0 -27 3 -57.5t22 -81t51 -73.5q3 -33 13.5 -72 t25 -75.5t27 -64.5t25 -54.5t13.5 -29.5q10 -32 5.5 -59.5t-13.5 -45t-16 -19.5q-261 -49 -412 -176q-49 -37 -36 -104zM348 1116q-18 108 34 185.5t178 134.5q22 11 29 39.5t11 84.5v24q88 -63 316 -120l64 -16q101 -37 166 -121.5t54 -206.5q-51 29 -96 12q-62 -22 -164 0 q-58 11 -92.5 14t-92 -8.5t-111.5 -45.5q-7 33 2.5 67.5t37.5 56.5q20 13 12 36q-13 20 -32 20q-32 -4 -62.5 -16.5t-45.5 -22t-44 -29.5l-60 -36q-6 -3 -21.5 -9.5t-22.5 -10.5q-47 -19 -60 -32zM508 900q0 -14 9.5 -23t22.5 -9h44v-8q0 -12 8 -20t20 -8h8q12 0 22 8t10 20 q0 2 -2 4t-2 4h44q13 0 22.5 9t9.5 23q0 12 -10 20t-22 8h-152q-12 0 -22 -8t-10 -20zM683 515q5 -13 17 -19q28 -12 72 -12q21 0 39 3t27 6l10 3q11 6 15 18t1 22q-13 27 -40 20q-20 -8 -52 -8q-14 0 -26 2t-17 4l-5 2q-12 3 -24.5 -2t-15.5 -14q-6 -12 -1 -25zM824 900 q0 -32 32 -32h40q0 -2 -2 -4t-2 -4q0 -12 10 -20t22 -8h8q12 0 20 8t8 20v8h48q12 0 20 8.5t8 23.5q0 12 -8 20t-20 8h-152q-15 0 -23.5 -8t-8.5 -20zM896 276q0 -165 119.5 -286.5t284.5 -121.5q167 0 285.5 121t118.5 287q0 168 -118 286t-286 118q-166 0 -285 -118.5 t-119 -285.5zM960 276q0 141 99.5 242.5t240.5 101.5t242.5 -101.5t101.5 -242.5t-101.5 -242.5t-242.5 -101.5t-240.5 101.5t-99.5 242.5zM1084 276q0 -12 8.5 -20t23.5 -8h152v-156q0 -14 9.5 -23t22.5 -9t22.5 9t9.5 23v156h156q12 0 22 8t10 20q0 14 -9.5 23t-22.5 9 h-156v156q0 12 -10 22t-22 10t-22 -10t-10 -22v-156h-152q-32 0 -32 -32z" />
<glyph unicode="&#x350d;" d="M0 224q0 -39 28.5 -67.5t67.5 -28.5h1600q39 0 67.5 28.5t28.5 67.5v1088q0 39 -28.5 67.5t-67.5 28.5h-1600q-39 0 -67.5 -28.5t-28.5 -67.5v-1088zM64 224v672h1664v-672q0 -12 -10 -22t-22 -10h-1600q-12 0 -22 10t-10 22zM64 1004v84h84zM64 1152v160q0 12 10 22 t22 10h1600q12 0 22 -10t10 -22v-160h-1664zM108 960l128 128h104l-128 -128h-104zM192 480q0 -12 10 -22t22 -10h832q12 0 22 10t10 22t-10 22t-22 10h-832q-12 0 -22 -10t-10 -22zM192 608q0 -12 10 -22t22 -10h192q12 0 22 10t10 22t-10 22t-22 10h-192q-12 0 -22 -10 t-10 -22zM300 960l128 128h104l-128 -128h-104zM492 960l128 128h104l-128 -128h-104zM512 608q0 -12 10 -22t22 -10h320q12 0 22 10t10 22t-10 22t-22 10h-320q-12 0 -22 -10t-10 -22zM684 960l128 128h104l-128 -128h-104zM876 960l128 128h104l-128 -128h-104zM1068 960 l128 128h104l-128 -128h-104zM1260 960l128 128h104l-128 -128h-104zM1452 960l128 128h104l-128 -128h-104zM1644 960l84 84v-84h-84z" />
<glyph unicode="&#x350e;" d="M-1 384q0 -15 9 -24l288 -288l192 -188q6 -12 24 -12q12 0 24 12l404 404l24 -24q6 -12 24 -12q12 0 24 12l192 192q8 8 8 24q0 8 -8 24l-24 24l24 20q58 58 64 136l20 140q20 117 108 188l316 264q74 62 80 160q0 100 -64 164q-70 64 -156 64q-106 0 -168 -80l-264 -316 q-79 -92 -192 -104l-136 -20q-80 -12 -136 -68l-24 -24l-20 24q-26 20 -52 0l-188 -192q-12 -9 -12 -24t12 -24l24 -24l-408 -404q-9 -9 -9 -24zM84 384l380 380l428 -428l-380 -380l-48 48l260 260q12 9 12 24t-12 24q-9 12 -22.5 12t-25.5 -12l-260 -260l-48 44l240 240 q9 9 9 24t-9 24q-26 20 -52 0l-236 -236l-48 44l168 168q9 9 9 24t-9 24t-24 9t-24 -9l-168 -168l-48 48l216 216q9 9 9 22.5t-9 25.5q-9 9 -24 9t-24 -9l-216 -216zM464 860l144 144l520 -524l-140 -144zM571 860q0 -15 9 -24l384 -380q6 -12 24 -12q12 0 24 12q9 9 9 22.5 t-9 25.5l-380 380q-26 26 -52 0q-9 -9 -9 -24zM704 1004l20 24q42 36 96 48l140 16q143 25 232 132l264 316q44 56 116 56q64 0 108 -44q44 -50 44 -116q-6 -65 -56 -108l-316 -264q-106 -82 -132 -232l-20 -140q-6 -56 -48 -92l-20 -24l-216 212zM1458 1432q0 -42 30 -72 q28 -28 72 -28t72 28t28 72t-28 72q-30 30 -72 30t-72 -30t-30 -72zM1527 1432q0 15 9 24q16 8 24 8t24 -8q8 -16 8 -24t-8 -24q-9 -9 -24 -9t-24 9t-9 24z" />
</font>
</defs>
</svg>
