<?xml version="1.0" encoding="UTF-8" standalone="no"?>
<svg width="133px" height="39px" viewBox="0 0 133 39" version="1.1" xmlns="http://www.w3.org/2000/svg" xmlns:xlink="http://www.w3.org/1999/xlink">
    <!-- Generator: Sketch 39.1 (31720) - http://www.bohemiancoding.com/sketch -->
    <title>HR Logo</title>
    <desc>Created with Sketch.</desc>
    <defs></defs>
    <g id="Starred-HR" stroke="none" stroke-width="1" fill="none" fill-rule="evenodd">
        <g id="Artboard-2-Copy" transform="translate(-115.000000, -132.000000)" fill="#9e7bd2">
            <g id="HR-Logo" transform="translate(115.000000, 132.000000)">
                <path d="M20.8539,18.5187574 C17.57835,18.0160869 16.54827,17.4368108 16.53348,16.1723879 L16.53087,16.1723879 L16.53087,10.5190663 L12.40185,10.5190663 L12.40185,16.1723879 L12.41229,16.1723879 C12.40968,16.2403861 12.40185,16.3075237 12.40185,16.3798256 C12.40185,20.5018957 16.13589,21.3566078 19.79337,21.9014544 C22.34769,22.2905076 23.52741,22.9110991 23.52741,24.2736459 C23.52741,25.7145199 22.0719,26.4538932 20.34234,26.5692318 L20.34234,30.1068616 C24.62883,30.0311167 27.81129,27.6589251 27.81129,24.1565857 C27.81129,20.3469631 24.58794,19.1402096 20.8539,18.5187574 L20.8539,18.5187574 Z M18.68064,26.5339418 C16.98762,26.329947 15.47643,25.6370536 13.99743,24.2736459 L12.08169,27.3068835 C14.12619,29.139393 16.33773,30.0250915 18.68064,30.0930897 L18.68064,26.5339418 L18.68064,26.5339418 Z M18.20301,14.2124894 L26.13915,14.2124894 L26.13915,10.4794724 L18.20301,10.4794724 L18.20301,14.2124894 L18.20301,14.2124894 Z M34.0257,18.2992694 L34.0257,23.1805097 C34.0257,24.3390619 34.45374,24.5396136 35.33244,24.5396136 L36.43647,24.5396136 L36.43647,26.6570271 L34.47636,26.6570271 C32.65197,26.6570271 31.54794,25.8771992 31.54794,23.6926484 L31.54794,18.2992694 L34.0257,18.2992694 L34.0257,18.2992694 Z M29.99325,17.54096 L29.99325,15.6017192 L31.59318,15.6017192 L31.59318,12.7716155 L34.0257,12.7716155 L34.0257,15.6017192 L36.41385,15.6017192 L36.41385,17.54096 L29.99325,17.54096 L29.99325,17.54096 Z M44.3874,19.5473383 C44.3874,18.3887861 43.77927,17.6080975 42.06711,17.6080975 C40.9857,17.6080975 40.12962,17.8310284 39.38664,18.5437188 L38.12427,16.9616839 C39.25092,15.8694084 40.60203,15.4683049 42.26982,15.4683049 C44.92767,15.4683049 46.88778,16.4263054 46.88778,19.4578216 L46.88778,26.6570271 L44.3874,26.6570271 L44.3874,19.5473383 L44.3874,19.5473383 Z M43.62093,26.3454403 C43.0128,26.6570271 42.15672,26.7904414 41.27802,26.7904414 C38.93511,26.7904414 37.44915,25.5871308 37.44915,23.5144758 C37.44915,21.3970623 38.86812,20.1489936 41.84178,20.1489936 L43.62093,20.1489936 L43.62093,21.9763384 L41.70693,21.9763384 C40.44456,21.9763384 39.81381,22.6898895 39.81381,23.3363032 C39.81381,24.1385103 40.46718,24.7849238 41.93139,24.7849238 C42.47253,24.7849238 43.17114,24.6962679 43.62093,24.4948555 L43.62093,26.3454403 L43.62093,26.3454403 Z M52.5393,16.1147185 C53.19267,15.6464775 53.9139,15.4467865 54.6795,15.4467865 C55.33287,15.4467865 56.18895,15.6249591 56.84232,15.9589251 C56.70747,16.3376494 55.91925,17.8973052 55.78353,18.2768902 C55.28763,17.9868218 54.70212,17.8086492 54.11661,17.8086492 C53.62071,17.8086492 53.05782,17.9420635 52.5393,18.2106135 L52.5393,16.1147185 L52.5393,16.1147185 Z M49.29594,26.6570271 L51.7737,26.6570271 L51.7737,15.6017192 L49.29594,15.6017192 L49.29594,26.6570271 L49.29594,26.6570271 Z M61.18797,16.1147185 C61.84134,15.6464775 62.56257,15.4467865 63.32817,15.4467865 C63.98154,15.4467865 64.83762,15.6249591 65.49099,15.9589251 C65.35614,16.3376494 64.56705,17.8973052 64.4322,18.2768902 C63.9363,17.9868218 63.35079,17.8086492 62.76528,17.8086492 C62.26938,17.8086492 61.70649,17.9420635 61.18797,18.2106135 L61.18797,16.1147185 L61.18797,16.1147185 Z M57.94461,26.6570271 L60.42237,26.6570271 L60.42237,15.6017192 L57.94461,15.6017192 L57.94461,26.6570271 L57.94461,26.6570271 Z M71.32347,15.4467865 C74.1849,15.4906841 75.67173,17.6528558 75.67173,20.6163738 L75.67173,21.8205451 L69.56607,21.8205451 L69.56607,20.1042353 L73.10349,20.1042353 C73.0365,18.6332354 72.45012,17.6976141 71.32347,17.5857183 L71.32347,15.4467865 L71.32347,15.4467865 Z M70.53525,17.5857183 C69.38598,17.7423725 68.68824,18.7890288 68.68824,21.0846149 C68.68824,23.7813043 69.5217,24.6515095 71.32347,24.6515095 C72.22479,24.6515095 73.01301,24.3829595 73.89171,23.6263716 L75.19845,25.2979231 C74.0718,26.3669586 72.51798,26.7904414 71.09814,26.7904414 C68.50815,26.7904414 66.16437,25.5656123 66.16437,21.1965106 C66.16437,17.2293731 68.21496,15.5578216 70.53525,15.4467865 L70.53525,17.5857183 L70.53525,17.5857183 Z M84.34215,26.6570271 L86.84253,26.6570271 L86.84253,10.4312712 L84.34215,10.4312712 L84.34215,26.6570271 L84.34215,26.6570271 Z M83.57655,17.8757867 C83.19288,17.7191326 82.60737,17.6528558 82.15671,17.6528558 C80.17485,17.6528558 79.90428,19.6816132 79.90428,21.3075458 C79.90428,22.8680621 80.12874,24.5843719 82.11147,24.5843719 C82.56213,24.5843719 83.14851,24.4948555 83.57655,24.2943036 L83.57655,26.3454403 C83.03541,26.6570271 82.13409,26.7904414 81.54858,26.7904414 C78.19212,26.7904414 77.38128,24.1608893 77.38128,21.3746832 C77.38128,18.477442 78.25998,15.4683049 81.70605,15.4683049 C82.24719,15.4683049 83.03541,15.5578216 83.57655,15.8470293 L83.57655,17.8757867 L83.57655,17.8757867 Z M0,20.8913602 C0.0904720114,22.113912 0.296088518,23.3049112 0.60465,24.4544008 L5.80986,22.8138357 C5.53581,21.712953 5.394,20.5612866 5.40096,19.3743301 C5.42706,14.9647737 7.51245,11.0423945 10.74885,8.49289111 L7.56639,4.10485315 C3.2895242,7.37989632 0.417301878,12.364011 0,18.029832 L0,20.8913598 L0,20.8913602 L0,20.8913602 Z M18.69021,33.4456609 C13.0065,33.1005054 8.23455,29.4466762 6.31011,24.4130853 L1.10838,26.0510681 C3.73578,33.2511343 10.55049,38.4801125 18.65889,38.8442042 L18.69021,33.4456609 L18.69021,33.4456609 Z M12.06081,7.58567416 C16.86408,4.55846163 22.89492,4.74007717 27.44328,7.69412704 L30.67794,3.34310079 C24.27474,-0.953699042 15.65478,-1.22224903 8.87922,3.19935768 L12.06081,7.58567416 L12.06081,7.58567416 Z M27.90438,30.7971727 C25.77984,32.3361707 23.20986,33.2881461 20.38236,33.4473825 L20.35104,38.8502295 C24.2469,38.697879 27.84609,37.4136591 30.83628,35.3272324 L27.90438,30.7971727 L27.90438,30.7971727 Z" id="Combined-Shape"></path>
                <path d="M107,8.39941406 C107,7.07425427 108.084086,6 109.399414,6 L130.600586,6 C131.925746,6 133,7.08408585 133,8.39941406 L133,29.6005859 C133,30.9257457 131.915914,32 130.600586,32 L109.399414,32 C108.074254,32 107,30.9159141 107,29.6005859 L107,8.39941406 Z M112.948,14.5039997 L114.46,14.5039997 L114.46,17.8879998 L118.432,17.8879998 L118.432,14.5039997 L119.944,14.5039997 L119.944,23 L118.432,23 L118.432,19.2559999 L114.46,19.2559999 L114.46,23 L112.948,23 L112.948,14.5039997 Z M121.84,14.5039997 L124.792001,14.5039997 C125.200003,14.5039997 125.593999,14.5419993 125.974001,14.6179997 C126.354002,14.694 126.691999,14.8239988 126.988001,15.0079997 C127.284002,15.1920006 127.52,15.4399981 127.696001,15.7519997 C127.872002,16.0640013 127.960001,16.4599973 127.960001,16.9399998 C127.960001,17.5560029 127.790002,18.0719977 127.450001,18.4879998 C127.109999,18.9040019 126.624004,19.1559994 125.992001,19.2439999 L128.248001,23 L126.424001,23 L124.456,19.3999999 L123.352,19.3999999 L123.352,23 L121.84,23 L121.84,14.5039997 Z M124.528,18.1039998 C124.744002,18.1039998 124.959999,18.0939999 125.176001,18.0739998 C125.392002,18.0539997 125.59,18.0060002 125.770001,17.9299998 C125.950001,17.8539994 126.096,17.7380006 126.208001,17.5819998 C126.320001,17.425999 126.376001,17.2080012 126.376001,16.9279998 C126.376001,16.6799985 126.324001,16.4800005 126.220001,16.3279997 C126.116,16.175999 125.980001,16.0620001 125.812001,15.9859997 C125.644,15.9099993 125.458002,15.8599998 125.254001,15.8359997 C125.049999,15.8119996 124.852001,15.7999997 124.660001,15.7999997 L123.352,15.7999997 L123.352,18.1039998 L124.528,18.1039998 Z" id="Combined-Shape"></path>
            </g>
        </g>
    </g>
</svg>