<?xml version="1.0" encoding="utf-8"?>
<!-- Generator: Adobe Illustrator 15.1.0, SVG Export Plug-In . SVG Version: 6.00 Build 0)  -->
<!DOCTYPE svg PUBLIC "-//W3C//DTD SVG 1.1//EN" "http://www.w3.org/Graphics/SVG/1.1/DTD/svg11.dtd">
<svg version="1.1" id="Layer_1" xmlns="http://www.w3.org/2000/svg" xmlns:xlink="http://www.w3.org/1999/xlink" x="0px" y="0px"
	 width="162.2px" height="49.9px" viewBox="0 0 162.2 49.9" style="enable-background:new 0 0 162.2 49.9;" xml:space="preserve">
<style type="text/css">
<![CDATA[
	.st0{display:none;fill:#FFFFFF;}
	.st1{font-size:25.8886;}
	.st2{display:inline;fill:#FFFFFF;}
	.st3{fill:#C6C6C6;}
	.st4{fill:#FFFFFF;}
	.st5{display:inline;}
	.st6{font-family:'PFDinStencil-Medium';}
	.st7{display:none;}
	.st8{fill:#76BB61;}
]]>
</style>
<g id="Layer_9">
</g>
<g id="logo_compleet" class="st7">
	<g id="orig_copy_2" class="st5">
		<g>
			<circle class="st4" cx="-57.9" cy="487.1" r="13.7"/>
			<path class="st3" d="M-41.7,473.8c-1.1-1.4-2.5-2.7-4-3.8c-5.4-3.9-12-4.9-18-3.3l1.8,5.6c4.2-1.1,8.9-0.4,12.7,2.4
				c1,0.7,1.9,1.6,2.7,2.5L-41.7,473.8z"/>
			<path class="st3" d="M-66.9,499.3c-3.9-2.8-6-7.1-6.2-11.5H-79c0.2,6.2,3.2,12.3,8.7,16.3c1.5,1.1,3.2,2,4.9,2.7l1.8-5.6
				C-64.8,500.7-65.9,500.1-66.9,499.3z"/>
			<path class="st3" d="M-46.2,496.6c-3.9,4.7-10.1,6.6-15.7,5.1l-1.8,5.6c8,2.3,16.8-0.4,22.2-7.2L-46.2,496.6z"/>
			<path class="st3" d="M-73.1,486c0.2-2.7,1.1-5.5,2.9-7.9c1.8-2.4,4.1-4.2,6.7-5.2l-1.8-5.6c-3.7,1.4-7.1,3.9-9.7,7.3
				c-2.5,3.4-3.8,7.4-4,11.3H-73.1z"/>
			<path class="st4" d="M-45.3,478.7c3.2,4.9,3.4,11.3,0.2,16.5l4.7,3.4c4.8-7.3,4.5-16.5-0.2-23.4L-45.3,478.7z"/>
		</g>
		<path class="st7" d="M-58.7,499.4c-3.2,0-6.2-1.1-9-3.3l2.5-3.6c2,1.7,4.1,2.5,6.5,2.7V499.4z"/>
		<path d="M-58.7,499.4c-2.9,0-5.6-1.1-8.1-3.3l2.3-3.6c1.8,1.7,3.7,2.5,5.8,2.7V499.4z"/>
		<path d="M-56.4,485.7c-3.8-0.6-5.1-1.3-5.1-2.8h-4.8c0,0.1,0,0.2,0,0.2c0,4.9,4.4,5.9,8.7,6.6c3,0.5,4.4,1.2,4.4,2.8
			c0,1.7-1.7,2.6-3.7,2.7v4.2c5-0.1,8.8-2.9,8.8-7.1C-48.3,487.8-52.1,486.4-56.4,485.7z"/>
		<rect x="-66.4" y="476.2" width="4.8" height="6.7"/>
		<rect x="-60" y="476.1" width="9.7" height="4.4"/>
		<text transform="matrix(1 0 0 1 -47.2222 495.1758)" class="st6 st1">tarred</text>
	</g>
</g>
<g id="logo_compleet_redef">
	<g id="orig_copy_3">
		<g class="st7">
			<circle class="st2" cx="-57.9" cy="487.1" r="13.7"/>
			<path class="st2" d="M-41.7,473.8c-1.1-1.4-2.5-2.7-4-3.8c-5.4-3.9-12-4.9-18-3.3l1.8,5.6c4.2-1.1,8.9-0.4,12.7,2.4
				c1,0.7,1.9,1.6,2.7,2.5L-41.7,473.8z"/>
			<path class="st2" d="M-66.9,499.3c-3.9-2.8-6-7.1-6.2-11.5H-79c0.2,6.2,3.2,12.3,8.7,16.3c1.5,1.1,3.2,2,4.9,2.7l1.8-5.6
				C-64.8,500.7-65.9,500.1-66.9,499.3z"/>
			<path class="st2" d="M-46.2,496.6c-3.9,4.7-10.1,6.6-15.7,5.1l-1.8,5.6c8,2.3,16.8-0.4,22.2-7.2L-46.2,496.6z"/>
			<path class="st2" d="M-73.1,486c0.2-2.7,1.1-5.5,2.9-7.9c1.8-2.4,4.1-4.2,6.7-5.2l-1.8-5.6c-3.7,1.4-7.1,3.9-9.7,7.3
				c-2.5,3.4-3.8,7.4-4,11.3H-73.1z"/>
			<path class="st2" d="M-45.3,478.7c3.2,4.9,3.4,11.3,0.2,16.5l4.7,3.4c4.8-7.3,4.5-16.5-0.2-23.4L-45.3,478.7z"/>
		</g>
		<path class="st8" d="M26.5,23.8c-4.1-0.6-5.4-1.4-5.4-3h0v-7.2h-5.2v7.2h0c0,0.1,0,0.2,0,0.3c0,5.2,4.7,6.3,9.3,7
			c3.2,0.5,4.7,1.3,4.7,3c0,1.8-1.8,2.8-4,2.9v4.5c5.4-0.1,9.4-3.1,9.4-7.6C35.3,26.1,31.2,24.6,26.5,23.8z"/>
		<path class="st0" d="M-58.7,499.4c-3.2,0-6.2-1.1-9-3.3l2.5-3.6c2,1.7,4.1,2.5,6.5,2.7V499.4z"/>
		<path class="st0" d="M-58.6,499.2c-2.8,0-5.5-1-7.9-3.3l2.2-3.5c1.8,1.7,3.6,2.5,5.7,2.7V499.2z"/>
		<path class="st0" d="M-56.5,485.7c-3.8-0.6-4.9-1.3-5-2.7h0v-6.6h-4.7v6.6h0c0,0.1,0,0.2,0,0.2c0,4.8,4.3,5.8,8.5,6.4
			c2.9,0.5,4.3,1.2,4.3,2.8c0,1.7-1.7,2.5-3.7,2.7v4.1c4.9-0.1,8.6-2.8,8.6-6.9C-48.5,487.8-52.2,486.4-56.5,485.7z"/>
		<g>
			<path class="st8" d="M38,18.2v-4.3h3.5V7.6h5.3v6.2H52v4.3H38z M46.8,19.8v10.8c0,2.6,0.9,3,2.9,3h2.4v4.7h-4.3
				c-4,0-6.4-1.7-6.4-6.5V19.8H46.8z"/>
			<path class="st8" d="M67.8,37.6c-1.3,0.7-3.2,1-5.1,1c-5.1,0-8.4-2.7-8.4-7.2c0-4.7,3.1-7.4,9.6-7.4h3.9v4h-4.2
				c-2.8,0-4.1,1.6-4.1,3c0,1.8,1.4,3.2,4.6,3.2c1.2,0,2.7-0.2,3.7-0.6V37.6z M69.5,22.6c0-2.6-1.3-4.3-5.1-4.3
				c-2.4,0-4.2,0.5-5.9,2.1l-2.8-3.5c2.5-2.4,5.4-3.3,9.1-3.3c5.8,0,10.1,2.1,10.1,8.8v15.9h-5.5V22.6z"/>
			<path class="st8" d="M85.6,38.3h-5.4V13.9h5.4V38.3z M87.3,15c1.4-1,3-1.5,4.7-1.5c1.4,0,3.3,0.4,4.7,1.1c-0.3,0.8-2,4.3-2.3,5.1
				c-1.1-0.6-2.4-1-3.6-1c-1.1,0-2.3,0.3-3.4,0.9V15z"/>
			<path class="st8" d="M104.5,38.3h-5.4V13.9h5.4V38.3z M106.1,15c1.4-1,3-1.5,4.7-1.5c1.4,0,3.3,0.4,4.7,1.1
				c-0.3,0.8-2,4.3-2.3,5.1c-1.1-0.6-2.4-1-3.6-1c-1.1,0-2.3,0.3-3.4,0.9V15z"/>
			<path class="st8" d="M126.6,18.2c-2.5,0.3-4,2.7-4,7.7c0,6,1.8,7.9,5.8,7.9c2,0,3.7-0.6,5.6-2.3l2.9,3.7c-2.5,2.4-5.9,3.3-9,3.3
				c-5.7,0-10.8-2.7-10.8-12.3c0-8.8,4.5-12.4,9.5-12.7V18.2z M128.3,13.5c6.2,0.1,9.5,4.9,9.5,11.4v2.7h-13.3v-3.8h7.7
				c-0.1-3.2-1.4-5.3-3.9-5.6V13.5z"/>
			<path class="st8" d="M155,18.9c-0.8-0.3-2.1-0.5-3.1-0.5c-4.3,0-4.9,4.5-4.9,8.1c0,3.4,0.5,7.2,4.8,7.2c1,0,2.3-0.2,3.2-0.6v4.5
				c-1.2,0.7-3.2,1-4.4,1c-7.3,0-9.1-5.8-9.1-12c0-6.4,1.9-13,9.4-13c1.2,0,2.9,0.2,4.1,0.8V18.9z M156.7,2.5h5.5v35.8h-5.5V2.5z"/>
		</g>
		<path class="st8" d="M23.8,34c-2.1-0.3-4-1.1-5.9-2.9L15.5,35c2.6,2.3,5.4,3.5,8.3,3.5V34z"/>
		<rect x="23.2" y="13.6" class="st8" width="10" height="4.8"/>
	</g>
</g>
<path class="st8" d="M7,24.9c0-5.6,2.7-10.6,6.7-13.9l-4-5.6C4,9.9,0.2,17,0.2,24.8c0,2.3,0.3,4.4,0.8,6.5l6.6-2.1
	C7.2,27.9,7,26.4,7,24.9z"/>
<path class="st8" d="M23.8,42.8c-7.2-0.4-13.2-5.1-15.6-11.5l-6.6,2.1c3.3,9.2,11.9,15.8,22.1,16.3L23.8,42.8z"/>
<path class="st8" d="M15.4,9.9c6-3.9,13.6-3.6,19.4,0.1l4.1-5.5C30.8-1,20-1.3,11.4,4.3L15.4,9.9z"/>
<path class="st8" d="M35.4,39.4c-2.7,2-5.9,3.2-9.5,3.4l0,6.9c4.9-0.2,9.4-1.8,13.2-4.5L35.4,39.4z"/>
</svg>
